<?xml version="1.0" standalone="no"?>
<!DOCTYPE svg PUBLIC "-//W3C//DTD SVG 1.1//EN" "http://www.w3.org/Graphics/SVG/1.1/DTD/svg11.dtd" >
<svg>
<metadata>
Created by FontForge 20120731 at Tue Jul 19 09:38:23 2016
 By Apache
Copyright (c) 2006 by Double Alex Font Studio. All rights reserved.
</metadata>
<defs>
<font id="DietDidotTitle-Bold" horiz-adv-x="354" >
  <font-face 
    font-family="DietDidotTitle-Bold"
    font-weight="400"
    font-stretch="normal"
    units-per-em="1000"
    panose-1="2 0 8 3 9 0 0 2 0 3"
    ascent="701"
    descent="-299"
    x-height="426"
    cap-height="667"
    bbox="-105 -317 1070 1036"
    underline-thickness="50"
    underline-position="-50"
    unicode-range="U+000D-FB04"
  />
<missing-glyph horiz-adv-x="175" 
 />
    <glyph glyph-name=".notdef" horiz-adv-x="175" 
 />
    <glyph glyph-name=".null" horiz-adv-x="0" 
 />
    <glyph glyph-name=".null" horiz-adv-x="0" 
 />
    <glyph glyph-name="nonmarkingreturn" horiz-adv-x="333" 
 />
    <glyph glyph-name="CR" unicode="&#xd;" horiz-adv-x="175" 
 />
    <glyph glyph-name="space" unicode=" " horiz-adv-x="175" 
 />
    <glyph glyph-name="exclam" unicode="!" horiz-adv-x="208" 
d="M163 607q0 -31 -28.5 -195t-28.5 -257h-4q0 93 -28.5 257t-28.5 195q0 76 59 76t59 -76zM163 44q0 -25 -17 -42.5t-42 -17.5q-23 0 -39 17.5t-16 42.5q0 23 16 39.5t39 16.5q25 0 42 -16.5t17 -39.5z" />
    <glyph glyph-name="quotedbl" unicode="&#x22;" horiz-adv-x="331" 
d="M133 622q0 -26 -18 -89t-21 -96v-11h-4v11q-4 27 -22.5 92t-18.5 93q0 20 10 37t32 17t32 -17t10 -37zM283 622q0 -26 -18 -89t-21 -96v-11h-4v11q-4 27 -22.5 92t-18.5 93q0 20 10 37t32 17t32 -17t10 -37z" />
    <glyph glyph-name="numbersign" unicode="#" horiz-adv-x="470" 
d="M64 82l43 138h-104l15 71h111l33 101h-105l16 71h111l41 130h11l-41 -130h126l42 130h11l-41 -130h108l-16 -71h-114l-33 -101h108l-16 -71h-113l-44 -138h-11l44 138h-128l-43 -138h-11zM140 291h126l34 101h-126z" />
    <glyph glyph-name="dollar" unicode="$" horiz-adv-x="542" 
d="M497 206q0 -72 -50 -136.5t-135 -80.5v-84h-4v83q-19 -4 -45 -4q-19 0 -30 1v-80h-4v80q-77 9 -129 51t-52 89q0 27 18 44.5t40 17.5t38 -15.5t16 -35.5q0 -22 -17.5 -39.5t-17.5 -28.5q0 -14 6.5 -28.5t31.5 -30.5t66 -20v298q-78 27 -122.5 69.5t-44.5 118.5
q0 77 47 133.5t120 70.5v83h4v-82q21 3 40 3q23 0 35 -2v81h4v-82q64 -12 107.5 -53.5t43.5 -84.5q0 -26 -17 -42t-38 -16t-35 14.5t-14 35.5q0 19 16 36.5t16 31.5q0 18 -19 41.5t-60 32.5v-279q95 -35 140 -76.5t45 -114.5zM308 399v278q-16 2 -35 2q-22 0 -40 -3v-248
q33 -15 75 -29zM229 431v244q-50 -10 -79 -40t-29 -69q0 -84 108 -135zM430 111q0 52 -27.5 85.5t-90.5 59.5v-263q57 12 87.5 44.5t30.5 73.5zM308 -8v266q-33 14 -75 28v-297q9 -1 30 -1q26 0 45 4z" />
    <glyph glyph-name="percent" unicode="%" horiz-adv-x="680" 
d="M343 509q0 -69 -44 -117t-109 -48q-63 0 -106.5 48t-43.5 117t43.5 117.5t106.5 48.5q65 0 109 -48t44 -118zM257 509q0 96 -14 129t-53 33q-36 0 -50.5 -33t-14.5 -129q0 -70 9 -106.5t21 -45.5t35 -9q25 0 38 10t21 45.5t8 105.5zM640 157q0 -69 -44 -117t-109 -48
q-63 0 -106.5 48t-43.5 117t43.5 117.5t106.5 48.5q65 0 109 -48t44 -118zM554 157q0 96 -14 129t-53 33q-36 0 -50.5 -33t-14.5 -129q0 -70 9 -106.5t21 -45.5t35 -9q25 0 38 10t21 45.5t8 105.5zM555 683l-426 -706l-4 3l426 705z" />
    <glyph glyph-name="ampersand" unicode="&#x26;" horiz-adv-x="624" 
d="M637 61q-14 -35 -53.5 -55.5t-82.5 -20.5q-53 0 -101 45q-74 -46 -159 -46q-91 0 -149 54.5t-58 139.5q0 137 151 237q-16 59 -16 91q0 80 37.5 128.5t94.5 48.5q90 0 90 -84q0 -69 -97 -127q41 -136 181 -354q39 68 47 166q5 51 1 61t-28 10h-45v4h157v-4h-48
q-18 0 -23 -10.5t-9 -47.5v-4.5t-0.5 -4t-0.5 -4.5q-10 -101 -48 -171l24 -38q41 -62 71 -62q7 0 15 3q34 12 46 48zM389 599q0 35 -18.5 56t-43.5 21q-53 0 -53 -92q0 -48 18 -107q97 55 97 122zM397 33q-31 31 -55 73q-122 200 -155 305q-60 -48 -60 -152q0 -94 54 -167.5
t149 -73.5q30 0 67 15z" />
    <glyph glyph-name="quotesingle" unicode="'" horiz-adv-x="181" 
d="M133 622q0 -26 -18 -89t-21 -96v-11h-4v11q-4 27 -22.5 92t-18.5 93q0 20 10 37t32 17t32 -17t10 -37z" />
    <glyph glyph-name="parenleft" unicode="(" horiz-adv-x="266" 
d="M171 247q0 -245 25 -337t118 -151l-3 -3q-117 79 -181.5 206.5t-64.5 284.5t64.5 284.5t181.5 206.5l3 -3q-93 -59 -118 -151t-25 -337z" />
    <glyph glyph-name="parenright" unicode=")" horiz-adv-x="266" 
d="M95 247q0 245 -25 337t-118 151l3 3q117 -79 181.5 -206.5t64.5 -284.5t-64.5 -284.5t-181.5 -206.5l-3 3q93 59 118 151t25 337z" />
    <glyph glyph-name="asterisk" unicode="*" horiz-adv-x="319" 
d="M269 507q0 -9 -7.5 -18t-17.5 -9q-13 0 -21 10t-21.5 28t-34.5 30l-5 3v-6q0 -32 12 -55t12 -34q0 -10 -7.5 -17t-18.5 -7t-18.5 7t-7.5 17q0 11 12 34t12 55v6l-6 -3q-22 -11 -35 -28.5t-21 -28.5t-20 -11q-11 0 -18.5 9t-7.5 18q0 12 10 19t20 7q40 0 76 21
q-36 21 -76 21q-10 0 -20 7t-10 19q0 9 7.5 18.5t18.5 9.5q16 0 34.5 -26.5t41.5 -41.5l6 -4v7q0 32 -12 55t-12 33t7.5 17t18.5 7t18.5 -7t7.5 -17t-12 -33t-12 -55v-7l5 4q21 12 34.5 29.5t21.5 28t21 10.5q10 0 17.5 -9.5t7.5 -18.5q0 -12 -9.5 -19t-19.5 -7
q-40 0 -76 -21q36 -21 76 -21q10 0 19.5 -7t9.5 -19z" />
    <glyph glyph-name="plus" unicode="+" horiz-adv-x="600" 
d="M548 217h-220v-217h-60v217h-219v54h219v216h60v-216h220v-54z" />
    <glyph glyph-name="comma" unicode="," horiz-adv-x="200" 
d="M158 31q0 -45 -39 -107.5t-85 -77.5l-1 4q27 9 49.5 34t22.5 52q0 35 -37 62q-25 17 -25 48q0 24 16.5 41.5t39.5 17.5q59 0 59 -74z" />
    <glyph glyph-name="hyphen" unicode="-" horiz-adv-x="322" 
d="M287 271v-65h-252v65h252z" />
    <glyph glyph-name="period" unicode="." horiz-adv-x="200" 
d="M157 49q0 -25 -17 -42.5t-42 -17.5q-23 0 -39 17.5t-16 42.5q0 23 16 39.5t39 16.5q25 0 42 -16.5t17 -39.5z" />
    <glyph glyph-name="slash" unicode="/" horiz-adv-x="340" 
d="M316 681l-287 -697l-5 2l288 697z" />
    <glyph glyph-name="zero" unicode="0" horiz-adv-x="500" 
d="M482 334q0 -153 -71.5 -248t-161.5 -95q-89 0 -160 95t-71 248t71 248t160 95q90 0 161.5 -95t71.5 -248zM359 334q0 196 -23.5 267.5t-86.5 71.5q-62 0 -85 -71.5t-23 -267.5q0 -139 12 -213.5t34 -100t62 -25.5q41 0 63.5 26t34.5 100.5t12 212.5z" />
    <glyph glyph-name="one" unicode="1" horiz-adv-x="500" 
d="M397 0h-247v4h67v659h-67v4h181v-663h66v-4z" />
    <glyph glyph-name="two" unicode="2" horiz-adv-x="500" 
d="M224 677q79 0 139 -42.5t60 -129.5q0 -36 -20.5 -74.5t-45 -65.5t-72.5 -77t-77 -84l-102 -120v-4h217q43 0 58 16t15 58h4v-154h-353v14l147 193q73 96 96.5 154.5t23.5 152.5q0 82 -21.5 120.5t-68.5 38.5q-83 0 -83 -48q0 -14 11 -31.5t11 -29.5q0 -41 -48 -41
q-22 0 -38.5 17t-16.5 38q0 37 44 68t120 31z" />
    <glyph glyph-name="three" unicode="3" horiz-adv-x="500" 
d="M201 -8q-76 0 -115.5 28.5t-39.5 65.5q0 21 16.5 38t38.5 17q48 0 48 -41q0 -12 -11 -29.5t-11 -31.5q0 -21 14 -32t60 -11q60 0 89 40.5t29 149.5q0 110 -21 147t-74 37q-22 0 -71 -32l-2 3q76 43 102.5 85.5t26.5 122.5q0 67 -17.5 93t-61.5 26q-50 0 -50 -47
q0 -9 4 -19.5t4 -18.5q0 -15 -11 -25.5t-33 -10.5q-21 0 -31 13t-10 32q0 28 37.5 53.5t89.5 25.5q187 0 187 -131q0 -55 -55 -101t-126 -66q17 4 37 4q88 0 141 -54t53 -128q0 -94 -71.5 -148.5t-165.5 -54.5z" />
    <glyph glyph-name="four" unicode="4" horiz-adv-x="500" 
d="M457 0h-247v4h67v217h-222v5q43 67 62 109l149 331q27 -10 84 11t75 43l4 -1l-369 -494h217v110q31 4 64.5 32.5t45.5 61.5h4v-204h98v-4h-98v-217h66v-4z" />
    <glyph glyph-name="five" unicode="5" horiz-adv-x="500" 
d="M216 -6q-76 0 -115.5 28.5t-39.5 65.5q0 21 16.5 38t38.5 17q48 0 48 -41q0 -12 -11 -29.5t-11 -31.5q0 -21 14 -32t60 -11q57 0 80.5 43.5t23.5 164.5q0 124 -16 163.5t-66 39.5q-30 0 -55 -18.5t-34 -51.5q-4 -3 -2 -18t2 -16q0 -6 -5 -6t-5 7q0 3 1.5 14.5t1.5 15.5
v314q0 3 -0.5 5t-0.5 3l3 1q24 -22 80 -22q31 0 54 12.5t39.5 25t30.5 12.5q40 0 40 -36q0 -32 -31.5 -58.5t-76.5 -26.5q-39 0 -80 28.5t-54 57.5v-307q25 71 112 71q82 0 131 -59t49 -142q0 -68 -36.5 -120.5t-86 -76.5t-99.5 -24z" />
    <glyph glyph-name="six" unicode="6" horiz-adv-x="500" 
d="M351 183q0 135 -35 171q-20 19 -58 19q-39 0 -68 -24t-29 -43v-126q0 -126 40 -166q20 -20 57 -20q38 0 58 20q35 35 35 169zM291 666q-34 0 -59 -27.5t-39.5 -77t-21.5 -108t-9 -129.5q34 52 96 52q80 0 140.5 -57.5t60.5 -135.5q0 -77 -60.5 -134t-140.5 -57
q-90 0 -152.5 73t-62.5 212q0 97 32.5 187.5t90.5 148t125 57.5q76 0 115.5 -28.5t39.5 -65.5q0 -21 -16.5 -38t-38.5 -17q-48 0 -48 41q0 12 11 29.5t11 31.5q0 21 -14 32t-60 11z" />
    <glyph glyph-name="seven" unicode="7" horiz-adv-x="500" 
d="M443 667q-25 -50 -61 -160l-127 -507h-144l287 567h-206q-46 0 -61 -12t-15 -53h-4v165h331z" />
    <glyph glyph-name="eight" unicode="8" horiz-adv-x="500" 
d="M441 186q0 -85 -56 -139.5t-141 -54.5q-79 0 -138 46t-59 128q0 117 132 172q-89 72 -89 172q0 61 39 111t115 50q68 0 120 -37t52 -104q0 -95 -115 -142q140 -95 140 -202zM343 527q0 76 -25.5 108t-73.5 32q-47 0 -69 -26t-22 -68q0 -26 10 -50t19.5 -38t36.5 -36.5
t36 -28.5t44 -30q26 22 35 46t9 91zM373 126q0 30 -11 55t-33 46t-43 36.5t-53.5 36.5t-51.5 36q-21 -20 -30 -32.5t-16 -45t-7 -86.5q0 -99 29.5 -138t86.5 -39q22 0 42.5 6t41 19t33 40.5t12.5 65.5z" />
    <glyph glyph-name="nine" unicode="9" horiz-adv-x="500" 
d="M346 475q0 77 -10 115t-31 59q-22 21 -63 21q-37 0 -58 -21q-20 -19 -27 -56t-7 -120q0 -76 7 -117.5t27 -59.5q22 -21 58 -21q40 0 65.5 21t31.5 47q7 16 7 132zM204 -2q37 0 63.5 25.5t40.5 74.5t21 102t9 124q-33 -52 -96 -52q-83 0 -142 59t-59 142q0 82 59 141
t142 59q93 0 157.5 -72t64.5 -216q0 -98 -33 -187.5t-93.5 -146.5t-133.5 -57q-76 0 -115.5 28.5t-39.5 65.5q0 21 16.5 38t38.5 17q48 0 48 -41q0 -12 -11 -29.5t-11 -31.5q0 -21 14 -32t60 -11z" />
    <glyph glyph-name="colon" unicode=":" horiz-adv-x="200" 
d="M157 49q0 -25 -17 -42.5t-42 -17.5q-23 0 -39 17.5t-16 42.5q0 23 16 39.5t39 16.5q25 0 42 -16.5t17 -39.5zM157 364q0 -25 -17 -42.5t-42 -17.5q-23 0 -39 17.5t-16 42.5q0 23 16 39.5t39 16.5q25 0 42 -16.5t17 -39.5z" />
    <glyph glyph-name="semicolon" unicode=";" horiz-adv-x="200" 
d="M157 364q0 -25 -17 -42.5t-42 -17.5q-23 0 -39 17.5t-16 42.5q0 23 16 39.5t39 16.5q25 0 42 -16.5t17 -39.5zM158 31q0 -45 -39 -107.5t-85 -77.5l-1 4q27 9 49.5 34t22.5 52q0 35 -37 62q-25 17 -25 48q0 24 16.5 41.5t39.5 17.5q59 0 59 -74z" />
    <glyph glyph-name="less" unicode="&#x3c;" horiz-adv-x="600" 
d="M549 14l-499 199v59l499 200v-60l-429 -170l429 -168v-60z" />
    <glyph glyph-name="equal" unicode="=" horiz-adv-x="600" 
d="M549 309h-500v54h500v-54zM549 122h-500v54h500v-54z" />
    <glyph glyph-name="greater" unicode="&#x3e;" horiz-adv-x="600" 
d="M549 213l-499 -199v60l428 168l-428 170v60l499 -200v-59z" />
    <glyph glyph-name="question" unicode="?" horiz-adv-x="399" 
d="M365 487q0 -83 -48.5 -135.5t-117.5 -52.5q-48 0 -69 28v-172h-4v180l2 1q17 -33 71 -33q25 0 44 17q11 12 14 41t3 126q0 132 -35 171q-19 21 -63 21q-68 0 -68 -60q0 -19 10 -36t10 -32q0 -19 -14.5 -32.5t-38.5 -13.5q-53 0 -53 57q0 46 45.5 83.5t108.5 37.5
q88 0 145.5 -55t57.5 -141zM187 44q0 -25 -17 -42.5t-42 -17.5q-23 0 -39 17.5t-16 42.5q0 23 16 39.5t39 16.5q25 0 42 -16.5t17 -39.5z" />
    <glyph glyph-name="at" unicode="@" horiz-adv-x="776" 
d="M714 379q0 -53 -20.5 -95.5t-53 -67t-69 -37.5t-71.5 -13q-47 0 -71 20.5t-24 53.5q0 11 3 23q-31 -96 -106 -96q-51 0 -75.5 34.5t-24.5 84.5q0 76 64 146t148 70q48 0 52 -43l11 34h75l-47 -150q-29 -93 -29 -126q0 -42 40 -42q78 0 136 56.5t58 147.5q0 140 -89 220
t-224 80q-143 0 -244.5 -101t-101.5 -244q0 -144 101.5 -245t244.5 -101q123 0 218 77q1 1 3 1q1 0 1 -1t-1 -2q-95 -79 -221 -79q-145 0 -247.5 102.5t-102.5 247.5t102.5 247t247.5 102q137 0 227 -81.5t90 -222.5zM462 446q0 2 0.5 5t0.5 4q0 20 -13 32t-36 12
q-38 0 -73 -49t-53.5 -111t-18.5 -110q0 -30 8.5 -43t29.5 -13q37 0 62 28t35 62z" />
    <glyph glyph-name="A" unicode="A" horiz-adv-x="632" 
d="M660 0h-320v4h95l-81 227h-207l-70 -188q-8 -25 -5.5 -32t13.5 -7h71v-4h-178v4h57q13 0 21 7t17 32l234 637h4l263 -676h86v-4zM352 235l-100 284l-104 -284h204z" />
    <glyph glyph-name="B" unicode="B" horiz-adv-x="621" 
d="M580 177q0 -72 -59.5 -124.5t-165.5 -52.5h-318v4h90v659h-90v4h271q94 0 158 -40t64 -114q0 -65 -54.5 -110t-126.5 -47q103 -2 167 -49.5t64 -129.5zM417 509q0 85 -26.5 119.5t-97.5 34.5h-37v-305h69q53 0 72.5 32t19.5 119zM453 171q0 109 -31 146t-107 37h-59v-350
h72q68 0 96.5 37.5t28.5 129.5z" />
    <glyph glyph-name="C" unicode="C" horiz-adv-x="627" 
d="M581 -14h-3q-2 10 -14 19t-30 9q-21 0 -81 -15t-88 -15q-134 0 -226 103.5t-92 245.5q0 143 89.5 246.5t223.5 103.5q24 0 76.5 -12.5t74.5 -12.5q19 0 32.5 7t15.5 15h4v-219h-4q0 72 -64.5 145t-134.5 73q-71 0 -106 -36q-65 -65 -65 -310q0 -244 65 -309
q36 -37 111 -37q86 0 149 75.5t63 170.5h4v-247z" />
    <glyph glyph-name="D" unicode="D" horiz-adv-x="704" 
d="M657 333q0 -137 -91.5 -235t-221.5 -98h-307v4h90v659h-90v4h307q130 0 221.5 -97.5t91.5 -236.5zM516 333q0 232 -65 296q-37 34 -107 34h-88v-659h88q71 0 107 35q35 34 50 98t15 196z" />
    <glyph glyph-name="E" unicode="E" horiz-adv-x="619" 
d="M597 0h-561v4h91v659h-91v4h510v-196h-4q0 72 -50 132t-134 60h-102v-319h24q57 0 95.5 38.5t38.5 88.5h4v-257h-4q0 50 -38.5 88.5t-95.5 38.5h-24v-337h104q110 0 171.5 65t61.5 146h4v-215z" />
    <glyph glyph-name="F" unicode="F" horiz-adv-x="596" 
d="M547 471h-4q0 72 -50.5 132t-134.5 60h-102v-319h16q56 0 94.5 38.5t38.5 88.5h4v-257h-4q0 50 -38.5 88.5t-94.5 38.5h-16v-337h91v-4h-310v4h90v659h-90v4h510v-196z" />
    <glyph glyph-name="G" unicode="G" horiz-adv-x="656" 
d="M687 252h-90v-256h-6q-3 11 -17 23t-32 12q-16 0 -43 -11.5t-66.5 -23.5t-86.5 -12q-89 0 -158.5 50t-105 128.5t-35.5 170.5q0 143 89.5 246.5t222.5 103.5q23 0 69.5 -12.5t68.5 -12.5q19 0 32.5 7t15.5 15h4v-219h-4q0 74 -57.5 146t-128.5 72q-70 0 -106 -36
q-65 -65 -65 -310q0 -145 9.5 -210.5t42.5 -98.5q37 -37 106 -37q121 0 121 87v178h-91v4h311v-4z" />
    <glyph glyph-name="H" unicode="H" horiz-adv-x="749" 
d="M712 0h-301v4h81v341h-236v-341h82v-4h-301v4h90v659h-90v4h301v-4h-82v-314h236v314h-81v4h301v-4h-90v-659h90v-4z" />
    <glyph glyph-name="I" unicode="I" horiz-adv-x="383" 
d="M347 0h-310v4h90v659h-90v4h310v-4h-90v-659h90v-4z" />
    <glyph glyph-name="J" unicode="J" horiz-adv-x="485" 
d="M472 663h-91v-506q0 -80 -55 -126.5t-141 -46.5q-60 0 -110.5 40.5t-50.5 88.5q0 37 23.5 60t51.5 23q29 0 49 -20.5t20 -49.5q0 -30 -22 -48t-22 -37q0 -22 18.5 -38t42.5 -16q67 0 67 77v599h-90v4h310v-4z" />
    <glyph glyph-name="K" unicode="K" horiz-adv-x="656" 
d="M742 0h-350v4h104l-239 326v-326h90v-4h-310v4h90v659h-90v4h310v-4h-90v-327l252 288q34 39 10 39h-71v4h189v-4h-59q-29 0 -63 -39l-177 -202l312 -418h92v-4z" />
    <glyph glyph-name="L" unicode="L" horiz-adv-x="590" 
d="M572 0h-535v4h90v659h-90v4h310v-4h-84h-6v-659h102q100 0 154.5 68.5t54.5 151.5h4v-224z" />
    <glyph glyph-name="M" unicode="M" horiz-adv-x="843" 
d="M127 658v-608q0 -28 5.5 -37t17.5 -9h68v-4h-186v4h66q12 0 18.5 9t6.5 37v613h-91v4h225l179 -480l147 480h223v-4h-91v-659h91v-4h-310v4h90v654l-206 -670h-5z" />
    <glyph glyph-name="N" unicode="N" horiz-adv-x="700" 
d="M123 50v613h-91v4h240l306 -462v412q0 28 -6.5 37t-18.5 9h-66v4h186v-4h-68q-12 0 -17.5 -9t-5.5 -37v-629h-5l-450 670v-608q0 -28 5.5 -37t17.5 -9h68v-4h-186v4h66q12 0 18.5 9t6.5 37z" />
    <glyph glyph-name="O" unicode="O" horiz-adv-x="720" 
d="M673 333q0 -145 -92 -247t-222 -102q-129 0 -220.5 102t-91.5 247q0 143 89.5 246.5t222.5 103.5q131 0 222.5 -102.5t91.5 -247.5zM532 333q0 244 -66 310q-35 36 -107 36q-70 0 -105 -36q-66 -66 -66 -310q0 -139 15 -206t51 -103q35 -36 105 -36q72 0 107 36
q36 36 51 103t15 206z" />
    <glyph glyph-name="P" unicode="P" horiz-adv-x="616" 
d="M587 463q0 -86 -64.5 -137.5t-176.5 -51.5q-41 0 -89 11v-281h90v-4h-310v4h90v659h-90v4h284q125 0 195.5 -57.5t70.5 -146.5zM459 463q0 200 -138 200h-64v-370q32 -15 89 -15q66 0 89.5 40.5t23.5 144.5z" />
    <glyph glyph-name="Q" unicode="Q" horiz-adv-x="720" 
d="M685 -236q-75 0 -130 10t-85.5 25.5t-50.5 34.5t-30.5 38t-20.5 34.5t-26.5 25.5t-41.5 10q-10 0 -21 -7t-14 -7q-5 0 -5 4q0 8 32 13q17 7 128 45q-28 -6 -61 -6q-129 0 -220.5 102t-91.5 247q0 143 89.5 246.5t222.5 103.5q130 0 221.5 -102t91.5 -248
q0 -99 -46.5 -182.5t-121.5 -126.5q-27 -16 -61.5 -29.5t-76.5 -27.5t-63 -22q65 0 111.5 -10t71 -25.5t42 -34.5t29.5 -37.5t26 -34t39 -25.5t63 -10v-4zM531 333q0 245 -65 310q-36 36 -107 36q-70 0 -106 -36q-65 -65 -65 -310q0 -139 15 -206.5t50 -102.5
q36 -36 106 -36q71 0 107 36q35 35 50 102.5t15 206.5z" />
    <glyph glyph-name="R" unicode="R" horiz-adv-x="661" 
d="M715 27q-33 -33 -89 -33q-68 0 -116 44.5t-48 138.5v51q0 117 -141 117h-65v-341h91v-4h-310v4h90v659h-90v4h298q105 0 168 -46.5t63 -117.5q0 -66 -55.5 -111t-143.5 -45q118 0 173 -51t55 -131v-75q0 -37 16 -62.5t42 -25.5q31 0 59 28zM436 500q0 88 -29 125.5
t-96 37.5h-55v-314h65q69 0 92 30.5t23 120.5z" />
    <glyph glyph-name="S" unicode="S" horiz-adv-x="533" 
d="M507 206q0 -83 -64 -152.5t-169 -69.5q-38 0 -92 19.5t-73 19.5q-20 0 -35.5 -11t-17.5 -25h-3v225h4q0 -40 27 -91.5t79 -92.5t110 -41q79 0 123 36.5t44 86.5q0 65 -43 98t-163 76q-50 18 -83 39t-56 60t-23 92q0 88 55.5 148t129.5 60q24 0 66.5 -12.5t65.5 -12.5
q35 0 39 22h4v-174h-4q0 67 -53 120t-117 53q-56 0 -91 -32.5t-35 -81.5q0 -50 41 -87.5t132 -69.5q105 -37 153.5 -79.5t48.5 -122.5z" />
    <glyph glyph-name="T" unicode="T" horiz-adv-x="629" 
d="M610 442h-4q0 89 -57 155t-156 66h-16v-659h91v-4h-311v4h90v659h-16q-98 0 -153 -66t-55 -155h-4v225h591v-225z" />
    <glyph glyph-name="U" unicode="U" horiz-adv-x="686" 
d="M582 198v419q0 28 -6.5 37t-18.5 9h-66v4h186v-4h-67q-12 0 -17.5 -9t-5.5 -37v-419q0 -101 -57 -157.5t-174 -56.5q-114 0 -181 51.5t-67 152.5v475h-90v4h310v-4h-91v-475q0 -95 32 -144t111 -49q102 0 152 54.5t50 148.5z" />
    <glyph glyph-name="V" unicode="V" horiz-adv-x="663" 
d="M690 663h-66q-11 0 -19 -7t-17 -32l-227 -638h-4l-300 677h-91v4h338v-4h-107l219 -511l167 472q14 39 -13 39h-70v4h190v-4z" />
    <glyph glyph-name="W" unicode="W" horiz-adv-x="958" 
d="M1006 663h-69q-10 0 -17 -7t-16 -32l-221 -638h-5l-183 491l-171 -491h-5l-271 677h-91v4h323v-4h-94l197 -497l109 317l-67 180h-78v4h319v-4h-106l182 -499l159 465q12 34 -9 34h-76v4h190v-4z" />
    <glyph glyph-name="X" unicode="X" horiz-adv-x="674" 
d="M707 0h-337v4h102l-161 285l-152 -246q-25 -39 1 -39h70v-4h-190v4h70q20 0 43 39l155 251l-214 369h-93v4h337v-4h-103l143 -253l132 214q11 17 12.5 26t-2 11t-11.5 2h-70v4h190v-4h-67q-24 0 -47 -39l-134 -218l233 -402h93v-4z" />
    <glyph glyph-name="Y" unicode="Y" horiz-adv-x="630" 
d="M654 663h-60q-24 0 -42 -39l-150 -317v-303h91v-4h-310v4h90v287l-195 372h-93v4h342v-4h-108l181 -349l148 310q8 17 9 26t-2.5 11t-10.5 2h-80v4h190v-4z" />
    <glyph glyph-name="Z" unicode="Z" horiz-adv-x="606" 
d="M556 0h-508l370 663h-120q-92 0 -150 -67t-58 -154h-4v225h470l-369 -663h153q91 0 151.5 69.5t60.5 155.5h4v-229z" />
    <glyph glyph-name="bracketleft" unicode="[" horiz-adv-x="275" 
d="M290 -244h-205v979h205v-4h-100v-971h100v-4z" />
    <glyph glyph-name="backslash" unicode="\" horiz-adv-x="340" 
d="M311 -16l-287 697l4 2l288 -697z" />
    <glyph glyph-name="bracketright" unicode="]" horiz-adv-x="275" 
d="M190 -244h-205v4h100v971h-100v4h205v-979z" />
    <glyph glyph-name="asciicircum" unicode="^" horiz-adv-x="600" 
d="M499 266h-63l-136 345l-133 -345h-63l168 416h58z" />
    <glyph glyph-name="underscore" unicode="_" horiz-adv-x="570" 
d="M535 0h-500q-1 0 -1 2t1 2h500q1 0 1 -2t-1 -2z" />
    <glyph glyph-name="grave" unicode="`" 
d="M304 508l-1 -2l-204 107q-21 11 -21 32q0 16 11.5 28t28.5 12q22 0 42 -23z" />
    <glyph glyph-name="a" unicode="a" horiz-adv-x="436" 
d="M437 31q-5 -15 -26 -27t-48 -12q-32 0 -56.5 18.5t-29.5 46.5q-20 -65 -104 -65q-55 0 -97 27t-42 78q0 34 15 60t38 39t43 19.5t38 8.5q83 8 97 18q7 5 7 12v76q0 102 -64 102q-62 0 -62 -46q0 -8 6 -22t6 -23q0 -16 -12 -26.5t-35 -10.5q-22 0 -33 14t-11 33
q0 31 39.5 58t101.5 27q78 0 121 -45t43 -136v-215q0 -34 26 -34q12 0 22 8.5t13 17.5zM272 70v171q-10 -7 -23.5 -10.5t-34 -6t-28.5 -4.5q-27 -5 -40.5 -31.5t-13.5 -91.5q0 -59 15.5 -78t43.5 -19q36 0 58.5 20.5t22.5 49.5z" />
    <glyph glyph-name="b" unicode="b" horiz-adv-x="521" 
d="M132 47q-19 0 -33.5 -11t-14.5 -36h-4v731h-61v4h161v-341q36 41 93 41q84 0 146 -69.5t62 -155.5q0 -84 -62 -151.5t-146 -67.5q-40 0 -69 20q-7 5 -20 16.5t-23.5 15.5t-28.5 4zM376 210q0 159 -39 198q-22 23 -64 23q-58 0 -93 -44v-337q10 -27 36 -41t57 -14
q41 0 64 23q39 39 39 192z" />
    <glyph glyph-name="c" unicode="c" horiz-adv-x="441" 
d="M419 86q-29 -43 -74.5 -69t-96.5 -26q-87 0 -148 65t-61 157t61 157t148 65q66 0 108.5 -31t42.5 -70q0 -46 -45 -46q-20 0 -31.5 11t-11.5 27q0 12 6 25t6 29q0 51 -75 51q-42 0 -65 -23q-21 -22 -30 -64.5t-9 -130.5t9 -130.5t30 -64.5q23 -23 65 -23q51 0 95.5 25.5
t71.5 67.5z" />
    <glyph glyph-name="d" unicode="d" horiz-adv-x="511" 
d="M503 0h-162v47q-7 -22 -30.5 -39t-61.5 -17q-84 0 -146 67.5t-62 151.5q0 86 62 155.5t146 69.5q57 0 92 -41v337h-61v4h161v-731h62v-4zM341 72v315q-33 44 -92 44q-42 0 -64 -23q-40 -40 -40 -198q0 -152 40 -192q23 -23 64 -23q43 0 67.5 22.5t24.5 54.5z" />
    <glyph glyph-name="e" unicode="e" horiz-adv-x="464" 
d="M430 238h-286v-25q0 -88 9 -130.5t31 -64.5q23 -23 64 -23q52 0 96.5 25.5t71.5 67.5l3 -2q-29 -44 -74 -69.5t-97 -25.5q-86 0 -147 65t-61 157t61 157t147 65q85 0 133.5 -63.5t48.5 -130.5v-3zM336 242q-3 129 -33 166q-20 23 -55 23q-41 0 -64 -23q-36 -36 -39 -166
h191z" />
    <glyph glyph-name="f" unicode="f" horiz-adv-x="310" 
d="M361 670q0 -21 -13.5 -36t-34.5 -15q-47 0 -47 37q0 12 7 24.5t7 27.5q0 16 -6.5 23t-22.5 7q-51 0 -51 -118v-194h89v-4h-89v-418h61v-4h-222v4h61v418h-75v4h75v24q0 294 172 294q36 0 62.5 -20t26.5 -54z" />
    <glyph glyph-name="g" unicode="g" horiz-adv-x="485" 
d="M506 391q0 -13 -9.5 -24t-21.5 -11q-13 0 -21.5 7.5t-8.5 16.5q0 8 4 14t4 11q0 16 -18 16q-35 0 -57 -49q33 -45 33 -97q0 -67 -48.5 -114t-116.5 -47q-76 0 -126 58q-33 -23 -33 -67q0 -41 20 -54.5t72 -13.5h115q199 0 199 -163q0 -86 -75.5 -137.5t-164.5 -51.5
q-100 0 -163.5 39.5t-63.5 97.5q0 42 29.5 79t72.5 48q-39 11 -60.5 38t-21.5 65q0 76 72 123q-36 44 -36 100q0 67 48 113.5t116 46.5q81 0 128 -60q29 60 83 60q20 0 34.5 -11.5t14.5 -32.5zM320 275q0 112 -28 141q-15 16 -46 16q-30 0 -45 -16q-28 -29 -28 -141
q0 -111 28 -140q16 -17 45 -17q30 0 46 17q28 29 28 140zM435 -168q0 46 -34 79t-87 33h-144q-19 0 -34 4q-40 -26 -40 -113q0 -78 39 -112.5t118 -34.5q76 0 129 38t53 106z" />
    <glyph glyph-name="h" unicode="h" horiz-adv-x="528" 
d="M519 0h-223v4h62v325q0 50 -18.5 76t-46.5 26q-87 0 -113 -84v-343h61v-4h-222v4h61v727h-61v4h161v-378q13 39 44.5 58.5t68.5 19.5q77 0 120.5 -44t43.5 -123v-264h62v-4z" />
    <glyph glyph-name="i" unicode="i" horiz-adv-x="270" 
d="M252 0h-223v4h61v418h-61v4h161v-422h62v-4zM197 606q0 -25 -17 -42.5t-42 -17.5q-23 0 -39 17.5t-16 42.5q0 23 16 39.5t39 16.5q25 0 42 -16.5t17 -39.5z" />
    <glyph glyph-name="j" unicode="j" horiz-adv-x="265" 
d="M190 -23q0 -294 -171 -294q-37 0 -63.5 19.5t-26.5 53.5q0 21 13.5 36t34.5 15q47 0 47 -37q0 -12 -7 -24.5t-7 -27.5q0 -16 6.5 -23t22.5 -7q51 0 51 118v616h-61v4h161v-449zM197 606q0 -25 -17 -42.5t-42 -17.5q-23 0 -39 17.5t-16 42.5q0 23 16 39.5t39 16.5
q25 0 42 -16.5t17 -39.5z" />
    <glyph glyph-name="k" unicode="k" horiz-adv-x="489" 
d="M534 0h-243v4h61l-172 225v-225h61v-4h-222v4h61v727h-61v4h161v-500l159 145q37 34 32 39q-3 3 -20 3h-45v4h148v-4h-31q-19 0 -34.5 -7.5t-44.5 -34.5l-98 -90l220 -286h68v-4z" />
    <glyph glyph-name="l" unicode="l" horiz-adv-x="250" 
d="M242 0h-223v4h61v727h-61v4h161v-731h62v-4z" />
    <glyph glyph-name="m" unicode="m" horiz-adv-x="805" 
d="M796 0h-222v4h61v325q0 50 -18.5 76t-46.5 26q-49 0 -81 -29.5t-32 -61.5v-336h62v-4h-223v4h61v325q0 50 -18 76t-46 26q-87 0 -113 -84v-343h61v-4h-222v4h61v418h-61v4h161v-69q13 39 44.5 58.5t68.5 19.5q130 0 161 -86q8 40 43 63t73 23q165 0 165 -146v-285h61v-4z
" />
    <glyph glyph-name="n" unicode="n" horiz-adv-x="528" 
d="M519 0h-223v4h62v325q0 50 -18.5 76t-46.5 26q-87 0 -113 -84v-343h61v-4h-222v4h61v418h-61v4h161v-69q13 39 44.5 58.5t68.5 19.5q77 0 120.5 -44t43.5 -123v-264h62v-4z" />
    <glyph glyph-name="o" unicode="o" horiz-adv-x="497" 
d="M457 213q0 -92 -61 -157t-148 -65q-86 0 -147 65t-61 157t61 157t147 65q87 0 148 -65t61 -157zM352 213q0 155 -39 195q-23 23 -65 23q-41 0 -64 -23q-39 -40 -39 -195q0 -88 9 -130.5t30 -64.5q23 -23 64 -23q42 0 65 23q21 22 30 64.5t9 130.5z" />
    <glyph glyph-name="p" unicode="p" horiz-adv-x="521" 
d="M481 210q0 -84 -62 -151.5t-147 -67.5q-56 0 -92 41v-337h61v-4h-222v4h61v727h-61v4h161v-32q36 41 92 41q84 0 146.5 -70t62.5 -155zM376 210q0 159 -39 198q-23 23 -65 23q-57 0 -92 -44v-337q10 -26 36 -40.5t56 -14.5q43 0 65 23q39 39 39 192z" />
    <glyph glyph-name="q" unicode="q" horiz-adv-x="511" 
d="M502 -309h-222v4h61v352q-7 -23 -30.5 -39.5t-61.5 -16.5q-85 0 -147 67.5t-62 151.5q0 85 62.5 155t146.5 70q56 0 92 -41v32h161v-4h-61v-727h61v-4zM341 72v315q-35 44 -92 44q-42 0 -65 -23q-39 -39 -39 -198q0 -153 39 -192q22 -23 65 -23t67.5 22.5t24.5 54.5z" />
    <glyph glyph-name="r" unicode="r" horiz-adv-x="386" 
d="M362 361q0 -20 -15.5 -35.5t-36.5 -15.5q-23 0 -36.5 11t-13.5 27q0 13 7 24.5t7 19.5q0 14 -8.5 22t-20.5 8q-42 0 -65 -77v-341h61v-4h-222v4h61v418h-61v4h161v-69q25 78 92 78q37 0 63.5 -20t26.5 -54z" />
    <glyph glyph-name="s" unicode="s" horiz-adv-x="367" 
d="M344 137q0 -63 -39 -104.5t-108 -41.5q-30 0 -61.5 13.5t-48.5 13.5q-12 0 -22.5 -6.5t-12.5 -12.5h-4v154h4q-2 -57 41 -107.5t104 -50.5q91 0 91 85q0 37 -28 60t-88 40q-51 14 -83.5 46t-32.5 73q0 63 36.5 99.5t85.5 36.5q15 0 37 -5t45 -5q21 0 21 14h4v-127h-4
q0 50 -32.5 84.5t-70.5 34.5q-73 0 -73 -69q0 -36 28 -59t87 -39q124 -36 124 -127z" />
    <glyph glyph-name="t" unicode="t" horiz-adv-x="304" 
d="M288 79q-22 -88 -106 -88q-48 0 -70 24t-22 73v334h-76v4h76v106q32 3 60 20.5t35 39.5h4v-166h90v-4h-90v-387q0 -29 29 -29q21 0 39.5 19.5t27.5 54.5z" />
    <glyph glyph-name="u" unicode="u" horiz-adv-x="518" 
d="M509 0h-161v70q-13 -40 -44.5 -59t-69.5 -19q-77 0 -120.5 40.5t-43.5 118.5v271h-61v4h161v-329q0 -50 18.5 -75.5t45.5 -25.5q87 0 114 83v343h-62v4h161v-422h62v-4z" />
    <glyph glyph-name="v" unicode="v" horiz-adv-x="415" 
d="M443 422h-35q-15 0 -23.5 -7.5t-18.5 -33.5l-143 -388h-5l-196 429h-54v4h219v-4h-58l137 -301l96 259q7 19 7 28.5t-4 11.5t-12 2h-38v4h128v-4z" />
    <glyph glyph-name="w" unicode="w" horiz-adv-x="667" 
d="M698 422h-37q-14 0 -22 -7t-17 -34l-136 -388h-6l-146 333l-117 -333h-6l-188 429h-55v4h217v-4h-55l130 -296l72 206l-40 90h-48v4h216v-4h-61l129 -296l90 254q15 42 -8 42h-40v4h128v-4z" />
    <glyph glyph-name="x" unicode="x" horiz-adv-x="474" 
d="M494 0h-226v4h58l-120 182l-104 -140q-27 -41 -11 -42h61v-4h-149v4h42q13 0 22 7.5t30 34.5l107 144l-153 232h-55v4h226v-4h-57l97 -147l79 105q27 37 18 41q-4 1 -12 1h-56v4h148v-4h-42q-12 0 -21.5 -7t-29.5 -34l-82 -110l176 -267h54v-4z" />
    <glyph glyph-name="y" unicode="y" horiz-adv-x="415" 
d="M443 422h-41q-13 0 -19.5 -7.5t-16.5 -33.5l-227 -617q-17 -46 -34 -63.5t-47 -17.5q-31 0 -51 16t-20 45q0 25 15 42.5t36 17.5t32.5 -11t11.5 -28q0 -13 -10 -28t-10 -26q0 -15 17 -15q31 0 55 66l84 229l-196 431h-54v4h220v-4h-58l137 -299l94 257q7 18 6.5 28
t-4.5 12t-11 2h-37v4h128v-4z" />
    <glyph glyph-name="z" unicode="z" horiz-adv-x="421" 
d="M379 0h-359l250 422h-65q-70 0 -108 -37t-38 -96h-4v137h320l-248 -422h88q76 0 118 41.5t42 105.5h4v-151z" />
    <glyph glyph-name="braceleft" unicode="{" horiz-adv-x="279" 
d="M281 -244h-21q-88 0 -139 58t-51 151q0 45 19.5 95.5t39 91.5t19.5 63q0 24 -16 28q-10 2 -11 2q-6 0 -13.5 -1.5t-11.5 -1.5q-8 0 -8 5q0 4 8 4q4 0 11.5 -1t13.5 -1t11 2q16 4 16 27t-39 108t-39 142q0 93 51 151t139 58h21v-4h-21q-53 0 -76 -38t-23 -125
q0 -36 15 -122t15 -124q0 -24 -16 -47t-44 -30q28 -8 44 -31t16 -47q0 -38 -15 -124t-15 -122q0 -87 23 -125t76 -38h21v-4z" />
    <glyph glyph-name="bar" unicode="|" horiz-adv-x="154" 
d="M79 -23h-4v779h4v-779z" />
    <glyph glyph-name="braceright" unicode="}" horiz-adv-x="279" 
d="M209 -35q0 -93 -51 -151t-139 -58h-21v4h21q53 0 76 38t23 125q0 36 -15 122t-15 124q0 24 16 47t44 31q-28 7 -44 30t-16 47q0 38 15 124t15 122q0 87 -23 125t-76 38h-21v4h21q88 0 139 -58t51 -151q0 -57 -39 -142t-39 -108t16 -27q5 -2 11 -2t13.5 1t11.5 1q8 0 8 -4
q0 -5 -8 -5q-4 0 -11.5 1.5t-13.5 1.5q-1 0 -11 -2q-16 -4 -16 -28q0 -22 19.5 -63t39 -91.5t19.5 -95.5z" />
    <glyph glyph-name="asciitilde" unicode="~" horiz-adv-x="600" 
d="M561 313q-7 -58 -37 -95.5t-85 -37.5q-44 0 -145 37t-134 37t-54.5 -24t-26.5 -58h-41q17 135 123 135q46 0 143 -36.5t137 -36.5q65 0 80 79h40z" />
    <glyph glyph-name="uni00A0" unicode="&#xa0;" horiz-adv-x="175" 
 />
    <glyph glyph-name="exclamdown" unicode="&#xa1;" horiz-adv-x="208" 
d="M46 -189q0 31 28.5 195t28.5 257h4q0 -93 28.5 -257t28.5 -195q0 -76 -59 -76t-59 76zM46 376q0 25 17 42.5t42 17.5q23 0 39 -17.5t16 -42.5q0 -23 -16 -39.5t-39 -16.5q-25 0 -42 16.5t-17 39.5z" />
    <glyph glyph-name="cent" unicode="&#xa2;" horiz-adv-x="441" 
d="M419 86q-29 -43 -74.5 -68.5t-96.5 -25.5v-70h-5v70q-85 1 -144.5 66t-59.5 155q0 91 59.5 155.5t144.5 66.5v70h5v-70q66 0 108.5 -31t42.5 -70q0 -46 -45 -46q-20 0 -31.5 11t-11.5 27q0 12 6 25t6 29q0 51 -75 51v-436q51 0 95.5 25.5t71.5 67.5zM243 -5v436
q-40 -2 -60 -23q-21 -22 -30 -64.5t-9 -130.5t9 -130.5t30 -64.5q21 -21 60 -23z" />
    <glyph glyph-name="sterling" unicode="&#xa3;" horiz-adv-x="539" 
d="M523 120q-4 -50 -50 -93t-102 -43q-73 0 -188 51q-59 -51 -107 -51q-19 0 -36.5 11.5t-17.5 36.5q0 26 32.5 52t79.5 26q46 0 90 -7q11 27 11 52q0 17 -6 39.5t-12 40t-18.5 48.5t-18.5 47h-75v4h74q-27 74 -27 121q0 89 56 158.5t140 69.5q47 0 83 -30t36 -64
q0 -21 -16.5 -38t-38.5 -17q-48 0 -48 41q0 12 11 29.5t11 31.5q0 42 -52 42q-83 0 -83 -174q0 -23 4 -49t11 -61t11 -60h90v-4h-90q7 -51 7 -101q0 -59 -46 -129q18 -4 57 -16.5t76 -19t88 -6.5q25 0 41.5 18.5t18.5 43.5h4zM177 38q-73 32 -104 32q-49 0 -49 -40
q0 -21 17.5 -31.5t37.5 -10.5q46 0 98 50z" />
    <glyph glyph-name="currency" unicode="&#xa4;" horiz-adv-x="600" 
d="M530 163l-37 -37l-64 64q-55 -45 -129 -45q-70 0 -129 45l-63 -64l-38 37l64 64q-45 59 -45 129t45 129l-64 64l37 37l63 -64q64 44 131 44t129 -44l63 64l37 -37l-64 -64q45 -61 45 -130q0 -67 -45 -128zM455 356q0 64 -45.5 110t-109.5 46t-109 -46t-45 -110
t45.5 -110.5t108.5 -46.5q64 0 109.5 46.5t45.5 110.5z" />
    <glyph glyph-name="yen" unicode="&#xa5;" horiz-adv-x="599" 
d="M618 663h-62q-12 0 -20 -8t-19 -31l-130 -264h162v-3h-163l-20 -40v-82h183v-4h-183v-227h90v-4h-281v4h90v227h-181v4h181v57l-33 65h-148v3h146l-158 303h-94v4h319v-4h-107l176 -335l146 296q6 12 8.5 18t3 11.5t-2.5 7.5t-10 2h-83v4h190v-4z" />
    <glyph glyph-name="brokenbar" unicode="&#xa6;" horiz-adv-x="222" 
d="M141 411h-60v250h60v-250zM141 -89h-60v250h60v-250z" />
    <glyph glyph-name="section" unicode="&#xa7;" horiz-adv-x="494" 
d="M447 207q0 -50 -19.5 -85.5t-68.5 -86.5q58 -55 58 -123q0 -89 -54 -149.5t-142 -60.5q-60 0 -115 36t-55 77q0 21 11.5 32.5t29.5 11.5q19 0 31.5 -10t12.5 -28q0 -7 -6 -20.5t-6 -25.5q0 -30 30.5 -50t66.5 -20q62 0 100.5 38.5t38.5 101.5q0 47 -32 81t-78 57
t-92.5 47.5t-78.5 66t-32 98.5q0 50 19.5 86t68.5 86q-58 55 -58 123q0 89 53.5 149.5t141.5 60.5q60 0 105.5 -29.5t45.5 -70.5q0 -22 -11.5 -33t-29.5 -11q-19 0 -31.5 10t-12.5 28q0 7 5.5 20.5t5.5 25.5q0 56 -77 56q-62 0 -100.5 -38t-38.5 -101q0 -47 32.5 -81
t78.5 -57t92 -47.5t78.5 -66t32.5 -98.5zM410 137q0 38 -30 70.5t-69 52t-91 49t-82 55.5q-55 -57 -55 -101q0 -48 44.5 -83.5t119.5 -73.5t109 -68q54 59 54 99z" />
    <glyph glyph-name="dieresis" unicode="&#xa8;" 
d="M141 594q0 -22 -14.5 -37.5t-35.5 -15.5t-36 15.5t-15 37.5t15 37.5t36 15.5t35.5 -15.5t14.5 -37.5zM314 594q0 -22 -14.5 -37.5t-35.5 -15.5t-36 15.5t-15 37.5t15 37.5t36 15.5t35.5 -15.5t14.5 -37.5z" />
    <glyph glyph-name="copyright" unicode="&#xa9;" horiz-adv-x="844" 
d="M572 139q-4 -4 -4 0q-1 6 -8.5 11.5t-18.5 5.5q-14 0 -52 -9.5t-56 -9.5q-86 0 -144.5 66t-58.5 157t57.5 157t142.5 66q15 0 48.5 -8t47.5 -8q27 0 31 14q0 1 1 1t2 -1v-140h-3q0 45 -41.5 91.5t-85.5 46.5q-45 0 -68 -23q-42 -41 -42 -196t42 -196q23 -23 71 -23
q55 0 95 47.5t40 107.5h4v-157zM772 334q0 -145 -102.5 -247.5t-247.5 -102.5t-247.5 102.5t-102.5 247.5t102.5 247t247.5 102t247.5 -102t102.5 -247zM768 334q0 143 -101.5 244t-244.5 101t-244.5 -101t-101.5 -244q0 -144 101.5 -245t244.5 -101t244.5 101t101.5 245z
" />
    <glyph glyph-name="ordfeminine" unicode="&#xaa;" horiz-adv-x="346" 
d="M329 378q-3 -11 -18.5 -20t-35.5 -9q-23 0 -41.5 13.5t-22.5 34.5q-15 -48 -77 -48q-42 0 -72 18.5t-30 58.5q0 84 99 94q19 1 29.5 2.5t23 3.5t18 6t5.5 10v56q0 74 -47 74q-15 0 -25.5 -9t-10.5 -28q0 -6 3.5 -14.5t3.5 -14.5q0 -11 -9 -19.5t-26 -8.5
q-16 0 -24.5 10.5t-8.5 24.5q0 22 28 42.5t69 20.5q121 0 121 -133v-158q0 -25 20 -25q8 0 15.5 6t9.5 13zM207 408v124q-8 -5 -18 -7.5t-24 -5t-21 -3.5q-20 -3 -30 -22.5t-10 -67.5q0 -42 11.5 -56.5t32.5 -14.5q26 0 42.5 15.5t16.5 37.5z" />
    <glyph glyph-name="guillemotleft" unicode="&#xab;" horiz-adv-x="375" 
d="M338 59h-7q0 27 -17.5 55.5t-44 50t-46.5 34.5t-35 21v4q23 12 51 30.5t60 56t32 73.5h7q0 -44 -21 -91.5t-46 -70.5q25 -23 46 -71t21 -92zM190 59h-7q0 27 -17.5 55.5t-44 50t-46.5 34.5t-35 21v4q23 12 51 30.5t60 56t32 73.5h7q0 -44 -21 -91.5t-46 -70.5
q25 -23 46 -71t21 -92z" />
    <glyph glyph-name="logicalnot" unicode="&#xac;" horiz-adv-x="600" 
d="M549 122h-56v187h-443v54h499v-241z" />
    <glyph glyph-name="uni00AD" unicode="&#xad;" horiz-adv-x="322" 
d="M287 271v-65h-252v65h252z" />
    <glyph glyph-name="registered" unicode="&#xae;" horiz-adv-x="844" 
d="M666 158q-21 -21 -56 -21q-43 0 -74 28.5t-31 87.5v39q0 75 -90 75h-41v-216h57v-4h-198v4h58v417h-58v4h191q67 0 107 -29.5t40 -74.5q0 -42 -35.5 -70.5t-91.5 -28.5q75 0 110.5 -33t35.5 -84v-54q0 -24 9 -39t26 -15q22 0 39 17zM488 466q0 56 -18 79t-61 23h-35v-198
h41q44 0 58.5 19.5t14.5 76.5zM772 334q0 -145 -102.5 -247.5t-247.5 -102.5t-247.5 102.5t-102.5 247.5t102.5 247t247.5 102t247.5 -102t102.5 -247zM768 334q0 143 -101.5 244t-244.5 101t-244.5 -101t-101.5 -244q0 -144 101.5 -245t244.5 -101t244.5 101t101.5 245z
" />
    <glyph glyph-name="macron" unicode="&#xaf;" 
d="M37 562v41h280v-41h-280z" />
    <glyph glyph-name="degree" unicode="&#xb0;" horiz-adv-x="283" 
d="M218 601q0 -32 -22.5 -54.5t-53.5 -22.5q-32 0 -54.5 22.5t-22.5 54.5t22.5 54.5t54.5 22.5q31 0 53.5 -22.5t22.5 -54.5zM213 601q0 30 -21 51.5t-50 21.5q-30 0 -51 -21.5t-21 -51.5t21 -51.5t51 -21.5q29 0 50 21.5t21 51.5z" />
    <glyph glyph-name="plusminus" unicode="&#xb1;" horiz-adv-x="600" 
d="M549 265h-220v-175h-60v175h-219v54h219v176h60v-176h220v-54zM549 -9h-499v54h499v-54z" />
    <glyph glyph-name="twosuperior" unicode="&#xb2;" horiz-adv-x="330" 
d="M156 673q53 0 92.5 -25.5t39.5 -77.5q0 -22 -13.5 -45t-29.5 -39.5t-48 -46t-51 -50.5l-65 -72v-2h139q29 0 39 9.5t10 34.5h4v-92h-233v8l97 116q48 58 63.5 93t15.5 91q0 49 -14 71.5t-46 22.5q-53 0 -53 -27q0 -8 7 -19t7 -18q0 -11 -8.5 -19t-23.5 -8q-36 0 -36 36
q0 22 29 40.5t78 18.5z" />
    <glyph glyph-name="threesuperior" unicode="&#xb3;" horiz-adv-x="330" 
d="M142 264q-50 0 -76 17t-26 40q0 16 10 25.5t25 9.5q32 0 32 -26q0 -7 -7 -18t-7 -20q0 -12 9 -18t40 -6q40 0 58.5 22.5t18.5 88.5q0 64 -13.5 88.5t-40.5 24.5q-19 0 -56 -21l-2 4q51 26 69 50.5t18 70.5q0 42 -9 57t-38 15q-13 0 -24 -7.5t-11 -20.5q0 -6 2.5 -13.5
t2.5 -11.5q0 -10 -7.5 -18.5t-21.5 -8.5q-27 0 -27 30q0 19 24.5 36.5t58.5 17.5q121 0 121 -81q0 -52 -118 -98q14 3 23 3q58 0 93 -33.5t35 -78.5q0 -56 -47 -88t-109 -32z" />
    <glyph glyph-name="acute" unicode="&#xb4;" 
d="M68 508l144 154q20 23 42 23q17 0 28.5 -12t11.5 -28q0 -21 -21 -32l-204 -107z" />
    <glyph glyph-name="mu" unicode="&#xb5;" horiz-adv-x="518" 
d="M70 422h-61v4h161v-329q0 -50 18.5 -75.5t45.5 -25.5q87 0 114 83v343h-62v4h161v-422h62v-4h-161v70q-13 -40 -44.5 -59t-69.5 -19q-123 0 -154 104l1 -7q1 -36 12.5 -121t11.5 -112q0 -26 -9 -50.5t-25 -24.5t-23.5 23.5t-7.5 51.5q0 26 15.5 106.5t16.5 119.5
q1 11 -0.5 30t-1.5 26v284z" />
    <glyph glyph-name="paragraph" unicode="&#xb6;" horiz-adv-x="581" 
d="M547 663h-65q-24 -8 -38.5 -55t-14.5 -121v-383q0 -79 -9 -135t-32 -102.5t-66.5 -70t-107.5 -23.5q-41 0 -77.5 14t-36.5 48q0 19 13 33t32 14t32.5 -13t13.5 -32q0 -5 -6.5 -19t-6.5 -21t7 -12.5t17 -5.5q100 0 100 246v195q-111 -6 -189.5 53.5t-78.5 169.5
q0 64 27 110t73.5 69.5t97.5 34t111 10.5h204v-4zM470 663h-116q-48 -34 -48 -241v-401q0 -235 -92 -244q56 0 95.5 19.5t61.5 49t34.5 79.5t16 96.5t3.5 114.5v351q0 139 45 176z" />
    <glyph glyph-name="periodcentered" unicode="&#xb7;" horiz-adv-x="200" 
d="M157 357q0 -25 -17 -42.5t-42 -17.5q-23 0 -39 17.5t-16 42.5q0 23 16 39.5t39 16.5q25 0 42 -16.5t17 -39.5z" />
    <glyph glyph-name="cedilla" unicode="&#xb8;" 
d="M268 -151q0 -34 -23.5 -52t-63.5 -18q-35 0 -56 15t-21 36q0 12 7.5 20.5t19.5 8.5q10 0 17 -6t7 -17q0 -10 -8 -17t-8 -12q0 -10 12.5 -17t29.5 -7q35 0 54 14t19 36q0 9 -24.5 17.5t-49 26t-24.5 46.5q0 19 11.5 41.5t22.5 32.5l2 -1q-19 -23 -19 -43q0 -12 15 -22
t32.5 -17t32.5 -24t15 -41z" />
    <glyph glyph-name="onesuperior" unicode="&#xb9;" horiz-adv-x="330" 
d="M252 267h-163v4h44v392h-44v4h120v-396h43v-4z" />
    <glyph glyph-name="ordmasculine" unicode="&#xba;" horiz-adv-x="387" 
d="M347 512q0 -68 -45 -115.5t-109 -47.5t-108.5 47.5t-44.5 115.5t44.5 116t108.5 48t109 -48t45 -116zM269 512q0 114 -28 143q-17 17 -48 17q-30 0 -47 -17q-28 -29 -28 -143q0 -112 28 -143q18 -17 47 -17q30 0 48 17q28 31 28 143z" />
    <glyph glyph-name="guillemotright" unicode="&#xbb;" horiz-adv-x="375" 
d="M335 220q-15 -8 -35 -21t-46.5 -34.5t-44 -50t-17.5 -55.5h-7q0 44 21 92t46 71q-25 23 -46 70.5t-21 91.5h7q0 -36 32 -73.5t60 -56t51 -30.5v-4zM187 220q-15 -8 -35 -21t-46.5 -34.5t-44 -50t-17.5 -55.5h-7q0 44 21 92t46 71q-25 23 -46 70.5t-21 91.5h7
q0 -36 32 -73.5t60 -56t51 -30.5v-4z" />
    <glyph glyph-name="onequarter" unicode="&#xbc;" horiz-adv-x="758" 
d="M252 267h-163v4h44v392h-44v4h120v-396h43v-4zM722 0h-163v4h44v132h-144v4q39 54 51 79l86 181q22 -8 55 3.5t47 27.5l3 -2l-236 -289h138v61q25 1 45 16t25 40h5v-117h54v-4h-54v-132h44v-4zM581 677l-401 -693l-3 2l401 693z" />
    <glyph glyph-name="onehalf" unicode="&#xbd;" horiz-adv-x="758" 
d="M561 677l-401 -693l-3 2l401 693zM252 267h-163v4h44v392h-44v4h120v-396h43v-4zM576 406q53 0 92.5 -25.5t39.5 -77.5q0 -22 -13.5 -45t-29.5 -39.5t-48 -46t-51 -50.5l-65 -72v-2h139q29 0 39 9.5t10 34.5h4v-92h-233v8l97 116q48 58 63.5 93t15.5 91q0 49 -14 71.5
t-46 22.5q-53 0 -53 -27q0 -8 7 -19t7 -18q0 -11 -8.5 -19t-23.5 -8q-36 0 -36 36q0 22 29 40.5t78 18.5z" />
    <glyph glyph-name="threequarters" unicode="&#xbe;" horiz-adv-x="758" 
d="M142 264q-50 0 -76 17t-26 40q0 16 10 25.5t25 9.5q32 0 32 -26q0 -7 -7 -18t-7 -20q0 -12 9 -18t40 -6q40 0 58.5 22.5t18.5 88.5q0 64 -13.5 88.5t-40.5 24.5q-19 0 -56 -21l-2 4q51 26 69 50.5t18 70.5q0 42 -9 57t-38 15q-13 0 -24 -7.5t-11 -20.5q0 -6 2.5 -13.5
t2.5 -11.5q0 -10 -7.5 -18.5t-21.5 -8.5q-27 0 -27 30q0 19 24.5 36.5t58.5 17.5q121 0 121 -81q0 -52 -118 -98q14 3 23 3q58 0 93 -33.5t35 -78.5q0 -56 -47 -88t-109 -32zM722 0h-163v4h44v132h-144v4q39 54 51 79l86 181q22 -8 55 3.5t47 27.5l3 -2l-236 -289h138v61
q25 1 45 16t25 40h5v-117h54v-4h-54v-132h44v-4zM591 677l-401 -693l-3 2l401 693z" />
    <glyph glyph-name="questiondown" unicode="&#xbf;" horiz-adv-x="399" 
d="M8 -69q0 83 48.5 135.5t117.5 52.5q48 0 69 -28v172h4v-180l-2 -1q-17 33 -71 33q-25 0 -44 -17q-11 -12 -14 -41t-3 -126q0 -132 35 -171q19 -21 63 -21q68 0 68 60q0 19 -10 36t-10 32q0 19 14.5 32.5t38.5 13.5q53 0 53 -57q0 -46 -45.5 -83.5t-108.5 -37.5
q-88 0 -145.5 55t-57.5 141zM186 374q0 25 17 42.5t42 17.5q23 0 39 -17.5t16 -42.5q0 -23 -16 -39.5t-39 -16.5q-25 0 -42 16.5t-17 39.5z" />
    <glyph glyph-name="Agrave" unicode="&#xc0;" horiz-adv-x="632" 
d="M660 0h-320v4h95l-81 227h-207l-70 -188q-8 -25 -5.5 -32t13.5 -7h71v-4h-178v4h57q13 0 21 7t17 32l234 637h4l263 -676h86v-4zM352 235l-100 284l-104 -284h204zM385 729l-1 -2l-204 107q-21 11 -21 32q0 16 11.5 28t28.5 12q22 0 42 -23z" />
    <glyph glyph-name="Aacute" unicode="&#xc1;" horiz-adv-x="632" 
d="M660 0h-320v4h95l-81 227h-207l-70 -188q-8 -25 -5.5 -32t13.5 -7h71v-4h-178v4h57q13 0 21 7t17 32l234 637h4l263 -676h86v-4zM352 235l-100 284l-104 -284h204zM243 729l144 154q20 23 42 23q17 0 28.5 -12t11.5 -28q0 -21 -21 -32l-204 -107z" />
    <glyph glyph-name="Acircumflex" unicode="&#xc2;" horiz-adv-x="632" 
d="M660 0h-320v4h95l-81 227h-207l-70 -188q-8 -25 -5.5 -32t13.5 -7h71v-4h-178v4h57q13 0 21 7t17 32l234 637h4l263 -676h86v-4zM352 235l-100 284l-104 -284h204zM188 728l-1 2q81 95 127 183h2q44 -86 128 -183l-2 -2l-127 79z" />
    <glyph glyph-name="Atilde" unicode="&#xc3;" horiz-adv-x="632" 
d="M660 0h-320v4h95l-81 227h-207l-70 -188q-8 -25 -5.5 -32t13.5 -7h71v-4h-178v4h57q13 0 21 7t17 32l234 637h4l263 -676h86v-4zM352 235l-100 284l-104 -284h204zM462 871h3q-2 -15 -8 -34t-29 -43.5t-57 -24.5q-27 0 -75 21t-65 21q-24 0 -40.5 -14.5t-20.5 -27.5h-3
q8 45 33.5 72t55.5 27q26 0 75 -19t69 -19q23 0 40.5 15t21.5 26z" />
    <glyph glyph-name="Adieresis" unicode="&#xc4;" horiz-adv-x="632" 
d="M660 0h-320v4h95l-81 227h-207l-70 -188q-8 -25 -5.5 -32t13.5 -7h71v-4h-178v4h57q13 0 21 7t17 32l234 637h4l263 -676h86v-4zM352 235l-100 284l-104 -284h204zM270 806q0 -25 -17 -42.5t-42 -17.5q-23 0 -39 17.5t-16 42.5q0 23 16 39.5t39 16.5q25 0 42 -16.5
t17 -39.5zM270 806q0 -25 -17 -42.5t-42 -17.5q-23 0 -39 17.5t-16 42.5q0 23 16 39.5t39 16.5q25 0 42 -16.5t17 -39.5zM463 806q0 -25 -17 -42.5t-42 -17.5q-23 0 -39 17.5t-16 42.5q0 23 16 39.5t39 16.5q25 0 42 -16.5t17 -39.5q0 -25 -17 -42.5t-42 -17.5
q-23 0 -39 17.5t-16 42.5q0 23 16 39.5t39 16.5q25 0 42 -16.5t17 -39.5z" />
    <glyph glyph-name="Aring" unicode="&#xc5;" horiz-adv-x="632" 
d="M308 859q29 0 62 -23.5t33 -67.5q0 -35 -28 -61.5t-63 -28.5l262 -674h86v-4h-320v4h95l-81 227h-207l-70 -188q-8 -25 -5.5 -32t13.5 -7h71v-4h-178v4h57q13 0 21 7t17 32l233 635q-36 1 -64.5 28t-28.5 62q0 44 33 67.5t62 23.5zM352 235l-100 284l-104 -284h204z
M308 856q-15 0 -24.5 -6t-13 -21t-4.5 -26.5t-1 -35.5q0 -50 9.5 -68t33.5 -18t33.5 18t9.5 68q0 24 -1 35.5t-4.5 26.5t-13 21t-24.5 6z" />
    <glyph glyph-name="AE" unicode="&#xc6;" horiz-adv-x="900" 
d="M878 0h-561v4h91v275h-218l-133 -236q-19 -34 -14 -38q3 -1 9 -1h76v-4h-178v4h62q11 0 18.5 7t22.5 32l351 620h-87v4h510v-197h-4q0 73 -50 133t-134 60h-102v-319h25q56 0 94.5 38.5t38.5 88.5h4v-257h-4q0 50 -38.5 88.5t-94.5 38.5h-25v-337h105q110 0 171 65
t61 146h4v-215zM408 283v379l-216 -379h216z" />
    <glyph glyph-name="Ccedilla" unicode="&#xc7;" horiz-adv-x="627" 
d="M581 -14h-3q-2 10 -14 19t-30 9q-21 0 -81 -15t-88 -15h-4q-11 -17 -11 -31q0 -12 15 -22t32.5 -17t32.5 -24t15 -41q0 -34 -23.5 -52t-63.5 -18q-35 0 -56 15t-21 36q0 12 7.5 20.5t19.5 8.5q10 0 17 -6t7 -17q0 -10 -8 -17t-8 -12q0 -10 12.5 -17t29.5 -7q35 0 54 14
t19 36q0 9 -24.5 17.5t-49 26t-24.5 46.5t22 61q-131 4 -219.5 107t-88.5 242q0 143 89.5 246.5t223.5 103.5q24 0 76.5 -12.5t74.5 -12.5q19 0 32.5 7t15.5 15h4v-219h-4q0 72 -64.5 145t-134.5 73q-71 0 -106 -36q-65 -65 -65 -310q0 -244 65 -309q36 -37 111 -37
q86 0 149 75.5t63 170.5h4v-247z" />
    <glyph glyph-name="Egrave" unicode="&#xc8;" horiz-adv-x="619" 
d="M597 0h-561v4h91v659h-91v4h510v-196h-4q0 72 -50 132t-134 60h-102v-319h24q57 0 95.5 38.5t38.5 88.5h4v-257h-4q0 50 -38.5 88.5t-95.5 38.5h-24v-337h104q110 0 171.5 65t61.5 146h4v-215zM419 729l-1 -2l-204 107q-21 11 -21 32q0 16 11.5 28t28.5 12q22 0 42 -23z
" />
    <glyph glyph-name="Eacute" unicode="&#xc9;" horiz-adv-x="619" 
d="M597 0h-561v4h91v659h-91v4h510v-196h-4q0 72 -50 132t-134 60h-102v-319h24q57 0 95.5 38.5t38.5 88.5h4v-257h-4q0 50 -38.5 88.5t-95.5 38.5h-24v-337h104q110 0 171.5 65t61.5 146h4v-215zM227 729l144 154q20 23 42 23q17 0 28.5 -12t11.5 -28q0 -21 -21 -32
l-204 -107z" />
    <glyph glyph-name="Ecircumflex" unicode="&#xca;" horiz-adv-x="619" 
d="M597 0h-561v4h91v659h-91v4h510v-196h-4q0 72 -50 132t-134 60h-102v-319h24q57 0 95.5 38.5t38.5 88.5h4v-257h-4q0 50 -38.5 88.5t-95.5 38.5h-24v-337h104q110 0 171.5 65t61.5 146h4v-215zM182 728l-1 2q81 95 127 183h2q44 -86 128 -183l-2 -2l-127 79z" />
    <glyph glyph-name="Edieresis" unicode="&#xcb;" horiz-adv-x="619" 
d="M597 0h-561v4h91v659h-91v4h510v-196h-4q0 72 -50 132t-134 60h-102v-319h24q57 0 95.5 38.5t38.5 88.5h4v-257h-4q0 50 -38.5 88.5t-95.5 38.5h-24v-337h104q110 0 171.5 65t61.5 146h4v-215zM269 806q0 -25 -17 -42.5t-42 -17.5q-23 0 -39 17.5t-16 42.5q0 23 16 39.5
t39 16.5q25 0 42 -16.5t17 -39.5zM269 806q0 -25 -17 -42.5t-42 -17.5q-23 0 -39 17.5t-16 42.5q0 23 16 39.5t39 16.5q25 0 42 -16.5t17 -39.5zM462 806q0 -25 -17 -42.5t-42 -17.5q-23 0 -39 17.5t-16 42.5q0 23 16 39.5t39 16.5q25 0 42 -16.5t17 -39.5q0 -25 -17 -42.5
t-42 -17.5q-23 0 -39 17.5t-16 42.5q0 23 16 39.5t39 16.5q25 0 42 -16.5t17 -39.5z" />
    <glyph glyph-name="Igrave" unicode="&#xcc;" horiz-adv-x="383" 
d="M347 0h-310v4h90v659h-90v4h310v-4h-90v-659h90v-4zM281 729l-1 -2l-204 107q-21 11 -21 32q0 16 11.5 28t28.5 12q22 0 42 -23z" />
    <glyph glyph-name="Iacute" unicode="&#xcd;" horiz-adv-x="383" 
d="M347 0h-310v4h90v659h-90v4h310v-4h-90v-659h90v-4zM109 729l144 154q20 23 42 23q17 0 28.5 -12t11.5 -28q0 -21 -21 -32l-204 -107z" />
    <glyph glyph-name="Icircumflex" unicode="&#xce;" horiz-adv-x="383" 
d="M347 0h-310v4h90v659h-90v4h310v-4h-90v-659h90v-4zM64 728l-1 2q81 95 127 183h2q44 -86 128 -183l-2 -2l-127 79z" />
    <glyph glyph-name="Idieresis" unicode="&#xcf;" horiz-adv-x="383" 
d="M347 0h-310v4h90v659h-90v4h310v-4h-90v-659h90v-4zM151 806q0 -25 -17 -42.5t-42 -17.5q-23 0 -39 17.5t-16 42.5q0 23 16 39.5t39 16.5q25 0 42 -16.5t17 -39.5zM151 806q0 -25 -17 -42.5t-42 -17.5q-23 0 -39 17.5t-16 42.5q0 23 16 39.5t39 16.5q25 0 42 -16.5
t17 -39.5zM344 806q0 -25 -17 -42.5t-42 -17.5q-23 0 -39 17.5t-16 42.5q0 23 16 39.5t39 16.5q25 0 42 -16.5t17 -39.5q0 -25 -17 -42.5t-42 -17.5q-23 0 -39 17.5t-16 42.5q0 23 16 39.5t39 16.5q25 0 42 -16.5t17 -39.5z" />
    <glyph glyph-name="Eth" unicode="&#xd0;" horiz-adv-x="704" 
d="M50 342h77v321h-90v4h307q130 0 221.5 -97.5t91.5 -236.5q0 -137 -91.5 -235t-221.5 -98h-307v4h90v334h-77v4zM516 333q0 232 -65 296q-37 34 -107 34h-88v-321h91v-4h-91v-334h88q71 0 107 35q35 34 50 98t15 196z" />
    <glyph glyph-name="Ntilde" unicode="&#xd1;" horiz-adv-x="700" 
d="M123 50v613h-91v4h240l306 -462v412q0 28 -6.5 37t-18.5 9h-66v4h186v-4h-68q-12 0 -17.5 -9t-5.5 -37v-629h-5l-450 670v-608q0 -28 5.5 -37t17.5 -9h68v-4h-186v4h66q12 0 18.5 9t6.5 37zM496 871h3q-2 -15 -8 -34t-29 -43.5t-57 -24.5q-27 0 -75 21t-65 21
q-24 0 -40.5 -14.5t-20.5 -27.5h-3q8 45 33.5 72t55.5 27q26 0 75 -19t69 -19q23 0 40.5 15t21.5 26z" />
    <glyph glyph-name="Ograve" unicode="&#xd2;" horiz-adv-x="720" 
d="M673 333q0 -145 -92 -247t-222 -102q-129 0 -220.5 102t-91.5 247q0 143 89.5 246.5t222.5 103.5q131 0 222.5 -102.5t91.5 -247.5zM532 333q0 244 -66 310q-35 36 -107 36q-70 0 -105 -36q-66 -66 -66 -310q0 -139 15 -206t51 -103q35 -36 105 -36q72 0 107 36
q36 36 51 103t15 206zM429 729l-1 -2l-204 107q-21 11 -21 32q0 16 11.5 28t28.5 12q22 0 42 -23z" />
    <glyph glyph-name="Oacute" unicode="&#xd3;" horiz-adv-x="720" 
d="M673 333q0 -145 -92 -247t-222 -102q-129 0 -220.5 102t-91.5 247q0 143 89.5 246.5t222.5 103.5q131 0 222.5 -102.5t91.5 -247.5zM532 333q0 244 -66 310q-35 36 -107 36q-70 0 -105 -36q-66 -66 -66 -310q0 -139 15 -206t51 -103q35 -36 105 -36q72 0 107 36
q36 36 51 103t15 206zM287 729l144 154q20 23 42 23q17 0 28.5 -12t11.5 -28q0 -21 -21 -32l-204 -107z" />
    <glyph glyph-name="Ocircumflex" unicode="&#xd4;" horiz-adv-x="720" 
d="M673 333q0 -145 -92 -247t-222 -102q-129 0 -220.5 102t-91.5 247q0 143 89.5 246.5t222.5 103.5q131 0 222.5 -102.5t91.5 -247.5zM532 333q0 244 -66 310q-35 36 -107 36q-70 0 -105 -36q-66 -66 -66 -310q0 -139 15 -206t51 -103q35 -36 105 -36q72 0 107 36
q36 36 51 103t15 206zM232 728l-1 2q81 95 127 183h2q44 -86 128 -183l-2 -2l-127 79z" />
    <glyph glyph-name="Otilde" unicode="&#xd5;" horiz-adv-x="720" 
d="M673 333q0 -145 -92 -247t-222 -102q-129 0 -220.5 102t-91.5 247q0 143 89.5 246.5t222.5 103.5q131 0 222.5 -102.5t91.5 -247.5zM532 333q0 244 -66 310q-35 36 -107 36q-70 0 -105 -36q-66 -66 -66 -310q0 -139 15 -206t51 -103q35 -36 105 -36q72 0 107 36
q36 36 51 103t15 206zM506 871h3q-2 -15 -8 -34t-29 -43.5t-57 -24.5q-27 0 -75 21t-65 21q-24 0 -40.5 -14.5t-20.5 -27.5h-3q8 45 33.5 72t55.5 27q26 0 75 -19t69 -19q23 0 40.5 15t21.5 26z" />
    <glyph glyph-name="Odieresis" unicode="&#xd6;" horiz-adv-x="720" 
d="M673 333q0 -145 -92 -247t-222 -102q-129 0 -220.5 102t-91.5 247q0 143 89.5 246.5t222.5 103.5q131 0 222.5 -102.5t91.5 -247.5zM532 333q0 244 -66 310q-35 36 -107 36q-70 0 -105 -36q-66 -66 -66 -310q0 -139 15 -206t51 -103q35 -36 105 -36q72 0 107 36
q36 36 51 103t15 206zM319 806q0 -25 -17 -42.5t-42 -17.5q-23 0 -39 17.5t-16 42.5q0 23 16 39.5t39 16.5q25 0 42 -16.5t17 -39.5zM319 806q0 -25 -17 -42.5t-42 -17.5q-23 0 -39 17.5t-16 42.5q0 23 16 39.5t39 16.5q25 0 42 -16.5t17 -39.5zM512 806q0 -25 -17 -42.5
t-42 -17.5q-23 0 -39 17.5t-16 42.5q0 23 16 39.5t39 16.5q25 0 42 -16.5t17 -39.5q0 -25 -17 -42.5t-42 -17.5q-23 0 -39 17.5t-16 42.5q0 23 16 39.5t39 16.5q25 0 42 -16.5t17 -39.5z" />
    <glyph glyph-name="multiply" unicode="&#xd7;" horiz-adv-x="600" 
d="M454 50l-156 156l-153 -153l-38 38l153 153l-155 155l39 38l154 -155l153 153l38 -38l-152 -153l155 -155z" />
    <glyph glyph-name="Oslash" unicode="&#xd8;" horiz-adv-x="678" 
d="M149 -23l-4 3l39 64q-63 47 -100 123.5t-37 165.5q0 143 89.5 246.5t222.5 103.5q95 0 175 -59l37 61l4 -2l-38 -62q63 -48 99.5 -124t36.5 -164q0 -145 -92 -247t-222 -102q-94 0 -172 57zM188 333q0 -169 25 -241l292 483q-15 44 -39 68q-35 36 -107 36q-70 0 -105 -36
q-66 -66 -66 -310zM532 333q0 158 -26 237l-291 -484q14 -37 39 -62q36 -37 105 -37q71 0 107 37q36 36 51 103t15 206z" />
    <glyph glyph-name="Ugrave" unicode="&#xd9;" horiz-adv-x="686" 
d="M582 198v419q0 28 -6.5 37t-18.5 9h-66v4h186v-4h-67q-12 0 -17.5 -9t-5.5 -37v-419q0 -101 -57 -157.5t-174 -56.5q-114 0 -181 51.5t-67 152.5v475h-90v4h310v-4h-91v-475q0 -95 32 -144t111 -49q102 0 152 54.5t50 148.5zM422 729l-1 -2l-204 107q-21 11 -21 32
q0 16 11.5 28t28.5 12q22 0 42 -23z" />
    <glyph glyph-name="Uacute" unicode="&#xda;" horiz-adv-x="686" 
d="M582 198v419q0 28 -6.5 37t-18.5 9h-66v4h186v-4h-67q-12 0 -17.5 -9t-5.5 -37v-419q0 -101 -57 -157.5t-174 -56.5q-114 0 -181 51.5t-67 152.5v475h-90v4h310v-4h-91v-475q0 -95 32 -144t111 -49q102 0 152 54.5t50 148.5zM330 729l144 154q20 23 42 23q17 0 28.5 -12
t11.5 -28q0 -21 -21 -32l-204 -107z" />
    <glyph glyph-name="Ucircumflex" unicode="&#xdb;" horiz-adv-x="686" 
d="M582 198v419q0 28 -6.5 37t-18.5 9h-66v4h186v-4h-67q-12 0 -17.5 -9t-5.5 -37v-419q0 -101 -57 -157.5t-174 -56.5q-114 0 -181 51.5t-67 152.5v475h-90v4h310v-4h-91v-475q0 -95 32 -144t111 -49q102 0 152 54.5t50 148.5zM265 728l-1 2q81 95 127 183h2
q44 -86 128 -183l-2 -2l-127 79z" />
    <glyph glyph-name="Udieresis" unicode="&#xdc;" horiz-adv-x="686" 
d="M582 198v419q0 28 -6.5 37t-18.5 9h-66v4h186v-4h-67q-12 0 -17.5 -9t-5.5 -37v-419q0 -101 -57 -157.5t-174 -56.5q-114 0 -181 51.5t-67 152.5v475h-90v4h310v-4h-91v-475q0 -95 32 -144t111 -49q102 0 152 54.5t50 148.5zM352 806q0 -25 -17 -42.5t-42 -17.5
q-23 0 -39 17.5t-16 42.5q0 23 16 39.5t39 16.5q25 0 42 -16.5t17 -39.5zM352 806q0 -25 -17 -42.5t-42 -17.5q-23 0 -39 17.5t-16 42.5q0 23 16 39.5t39 16.5q25 0 42 -16.5t17 -39.5zM545 806q0 -25 -17 -42.5t-42 -17.5q-23 0 -39 17.5t-16 42.5q0 23 16 39.5t39 16.5
q25 0 42 -16.5t17 -39.5q0 -25 -17 -42.5t-42 -17.5q-23 0 -39 17.5t-16 42.5q0 23 16 39.5t39 16.5q25 0 42 -16.5t17 -39.5z" />
    <glyph glyph-name="Yacute" unicode="&#xdd;" horiz-adv-x="630" 
d="M654 663h-60q-24 0 -42 -39l-150 -317v-303h91v-4h-310v4h90v287l-195 372h-93v4h342v-4h-108l181 -349l148 310q8 17 9 26t-2.5 11t-10.5 2h-80v4h190v-4zM302 729l144 154q20 23 42 23q17 0 28.5 -12t11.5 -28q0 -21 -21 -32l-204 -107z" />
    <glyph glyph-name="Thorn" unicode="&#xde;" horiz-adv-x="616" 
d="M257 552v-4h63q126 0 196.5 -59.5t70.5 -148.5q0 -87 -65.5 -141t-180.5 -54q-38 0 -84 11v-152h86v-4h-303v4h87v659h-87v4h303v-4h-86v-111zM459 344q0 100 -36.5 150t-102.5 50h-63v-381q34 -15 84 -15q64 0 91 46.5t27 149.5z" />
    <glyph glyph-name="germandbls" unicode="&#xdf;" horiz-adv-x="549" 
d="M509 193q0 -97 -49.5 -149t-106.5 -52q-47 0 -77 25t-30 59q0 17 9 26.5t23 9.5q15 0 24.5 -8t9.5 -21q0 -5 -4.5 -15.5t-4.5 -19.5q0 -24 14 -38.5t36 -14.5t33.5 13t18 54t6.5 122q0 121 -23.5 172.5t-77.5 51.5q-18 0 -36 -11l-2 3q50 30 66.5 70.5t16.5 126.5
q0 80 -19.5 111.5t-69.5 31.5q-86 0 -86 -120v-616h62v-4h-223v4h61v446q0 150 52.5 222t133.5 72q82 0 131 -39t49 -110q0 -60 -42 -108.5t-106 -74.5q14 3 33 3q57 0 99 -35.5t60.5 -84.5t18.5 -102z" />
    <glyph glyph-name="agrave" unicode="&#xe0;" horiz-adv-x="436" 
d="M437 31q-5 -15 -26 -27t-48 -12q-32 0 -56.5 18.5t-29.5 46.5q-20 -65 -104 -65q-55 0 -97 27t-42 78q0 34 15 60t38 39t43 19.5t38 8.5q83 8 97 18q7 5 7 12v76q0 102 -64 102q-62 0 -62 -46q0 -8 6 -22t6 -23q0 -16 -12 -26.5t-35 -10.5q-22 0 -33 14t-11 33
q0 31 39.5 58t101.5 27q78 0 121 -45t43 -136v-215q0 -34 26 -34q12 0 22 8.5t13 17.5zM272 70v171q-10 -7 -23.5 -10.5t-34 -6t-28.5 -4.5q-27 -5 -40.5 -31.5t-13.5 -91.5q0 -59 15.5 -78t43.5 -19q36 0 58.5 20.5t22.5 49.5zM307 508l-1 -2l-204 107q-21 11 -21 32
q0 16 11.5 28t28.5 12q22 0 42 -23z" />
    <glyph glyph-name="aacute" unicode="&#xe1;" horiz-adv-x="436" 
d="M437 31q-5 -15 -26 -27t-48 -12q-32 0 -56.5 18.5t-29.5 46.5q-20 -65 -104 -65q-55 0 -97 27t-42 78q0 34 15 60t38 39t43 19.5t38 8.5q83 8 97 18q7 5 7 12v76q0 102 -64 102q-62 0 -62 -46q0 -8 6 -22t6 -23q0 -16 -12 -26.5t-35 -10.5q-22 0 -33 14t-11 33
q0 31 39.5 58t101.5 27q78 0 121 -45t43 -136v-215q0 -34 26 -34q12 0 22 8.5t13 17.5zM272 70v171q-10 -7 -23.5 -10.5t-34 -6t-28.5 -4.5q-27 -5 -40.5 -31.5t-13.5 -91.5q0 -59 15.5 -78t43.5 -19q36 0 58.5 20.5t22.5 49.5zM145 508l144 154q20 23 42 23q17 0 28.5 -12
t11.5 -28q0 -21 -21 -32l-204 -107z" />
    <glyph glyph-name="acircumflex" unicode="&#xe2;" horiz-adv-x="436" 
d="M437 31q-5 -15 -26 -27t-48 -12q-32 0 -56.5 18.5t-29.5 46.5q-20 -65 -104 -65q-55 0 -97 27t-42 78q0 34 15 60t38 39t43 19.5t38 8.5q83 8 97 18q7 5 7 12v76q0 102 -64 102q-62 0 -62 -46q0 -8 6 -22t6 -23q0 -16 -12 -26.5t-35 -10.5q-22 0 -33 14t-11 33
q0 31 39.5 58t101.5 27q78 0 121 -45t43 -136v-215q0 -34 26 -34q12 0 22 8.5t13 17.5zM272 70v171q-10 -7 -23.5 -10.5t-34 -6t-28.5 -4.5q-27 -5 -40.5 -31.5t-13.5 -91.5q0 -59 15.5 -78t43.5 -19q36 0 58.5 20.5t22.5 49.5zM90 507l-1 2q81 95 127 183h2
q44 -86 128 -183l-2 -2l-127 79z" />
    <glyph glyph-name="atilde" unicode="&#xe3;" horiz-adv-x="436" 
d="M437 31q-5 -15 -26 -27t-48 -12q-32 0 -56.5 18.5t-29.5 46.5q-20 -65 -104 -65q-55 0 -97 27t-42 78q0 34 15 60t38 39t43 19.5t38 8.5q83 8 97 18q7 5 7 12v76q0 102 -64 102q-62 0 -62 -46q0 -8 6 -22t6 -23q0 -16 -12 -26.5t-35 -10.5q-22 0 -33 14t-11 33
q0 31 39.5 58t101.5 27q78 0 121 -45t43 -136v-215q0 -34 26 -34q12 0 22 8.5t13 17.5zM272 70v171q-10 -7 -23.5 -10.5t-34 -6t-28.5 -4.5q-27 -5 -40.5 -31.5t-13.5 -91.5q0 -59 15.5 -78t43.5 -19q36 0 58.5 20.5t22.5 49.5zM364 650h3q-2 -15 -8 -34t-29 -43.5
t-57 -24.5q-27 0 -75 21t-65 21q-24 0 -40.5 -14.5t-20.5 -27.5h-3q8 45 33.5 72t55.5 27q26 0 75 -19t69 -19q23 0 40.5 15t21.5 26z" />
    <glyph glyph-name="adieresis" unicode="&#xe4;" horiz-adv-x="436" 
d="M437 31q-5 -15 -26 -27t-48 -12q-32 0 -56.5 18.5t-29.5 46.5q-20 -65 -104 -65q-55 0 -97 27t-42 78q0 34 15 60t38 39t43 19.5t38 8.5q83 8 97 18q7 5 7 12v76q0 102 -64 102q-62 0 -62 -46q0 -8 6 -22t6 -23q0 -16 -12 -26.5t-35 -10.5q-22 0 -33 14t-11 33
q0 31 39.5 58t101.5 27q78 0 121 -45t43 -136v-215q0 -34 26 -34q12 0 22 8.5t13 17.5zM272 70v171q-10 -7 -23.5 -10.5t-34 -6t-28.5 -4.5q-27 -5 -40.5 -31.5t-13.5 -91.5q0 -59 15.5 -78t43.5 -19q36 0 58.5 20.5t22.5 49.5zM181 594q0 -22 -14.5 -37.5t-35.5 -15.5
t-36 15.5t-15 37.5t15 37.5t36 15.5t35.5 -15.5t14.5 -37.5zM354 594q0 -22 -14.5 -37.5t-35.5 -15.5t-36 15.5t-15 37.5t15 37.5t36 15.5t35.5 -15.5t14.5 -37.5z" />
    <glyph glyph-name="aring" unicode="&#xe5;" horiz-adv-x="436" 
d="M437 31q-5 -15 -26 -27t-48 -12q-32 0 -56.5 18.5t-29.5 46.5q-20 -65 -104 -65q-55 0 -97 27t-42 78q0 34 15 60t38 39t43 19.5t38 8.5q83 8 97 18q7 5 7 12v76q0 102 -64 102q-62 0 -62 -46q0 -8 6 -22t6 -23q0 -16 -12 -26.5t-35 -10.5q-22 0 -33 14t-11 33
q0 31 39.5 58t101.5 27q78 0 121 -45t43 -136v-215q0 -34 26 -34q12 0 22 8.5t13 17.5zM272 70v171q-10 -7 -23.5 -10.5t-34 -6t-28.5 -4.5q-27 -5 -40.5 -31.5t-13.5 -91.5q0 -59 15.5 -78t43.5 -19q36 0 58.5 20.5t22.5 49.5zM218 701q29 0 62 -23.5t33 -67.5
q0 -36 -29.5 -63t-65.5 -27t-65.5 27t-29.5 63q0 44 33 67.5t62 23.5zM218 698q-15 0 -24.5 -6t-13 -21t-4.5 -26.5t-1 -35.5q0 -50 9.5 -68t33.5 -18t33.5 18t9.5 68q0 24 -1 35.5t-4.5 26.5t-13 21t-24.5 6z" />
    <glyph glyph-name="ae" unicode="&#xe6;" horiz-adv-x="705" 
d="M671 241v-3h-285q-1 -8 -1 -25q0 -92 13.5 -141t34 -63t56.5 -14q52 0 96.5 25.5t71.5 67.5l3 -2q-28 -43 -73.5 -69t-97.5 -26q-62 0 -103 28.5t-51 73.5q-8 -39 -55.5 -70.5t-101.5 -31.5q-56 0 -100 27.5t-44 77.5q0 35 14.5 60.5t38 39t42.5 19.5t38 8q98 9 113 20
q5 5 6 10v76q0 102 -72 102q-68 0 -68 -45q0 -8 5.5 -23t5.5 -23q0 -16 -11.5 -26.5t-34.5 -10.5q-22 0 -33 14t-11 33q0 31 40.5 58t106.5 27q93 0 129 -67q40 67 146 67q85 0 133.5 -63.5t48.5 -130.5zM577 242q-2 106 -22 147.5t-66 41.5q-54 0 -77.5 -42t-25.5 -151
l-3 4h194zM286 108v132q-18 -11 -53 -16t-49 -11q-18 -8 -26.5 -15t-17 -32.5t-8.5 -69.5q0 -59 15 -80t42 -21q39 0 68 26.5t29 86.5z" />
    <glyph glyph-name="ccedilla" unicode="&#xe7;" horiz-adv-x="441" 
d="M419 86q-28 -42 -72.5 -68t-94.5 -27q-15 -23 -15 -38q0 -12 15 -22t32.5 -17t32.5 -24t15 -41q0 -34 -23.5 -52t-63.5 -18q-35 0 -56 15t-21 36q0 12 7.5 20.5t19.5 8.5q10 0 17 -6t7 -17q0 -10 -8 -17t-8 -12q0 -10 12.5 -17t29.5 -7q34 0 53.5 14t19.5 36
q0 9 -24.5 17.5t-49 26t-24.5 46.5q0 36 28 68q-87 0 -148 65t-61 157t61 157t148 65q66 0 108.5 -31t42.5 -70q0 -46 -45 -46q-20 0 -31.5 11t-11.5 27q0 12 6 25t6 29q0 51 -75 51q-42 0 -65 -23q-21 -22 -30 -64.5t-9 -130.5t9 -130.5t30 -64.5q23 -23 65 -23
q51 0 95.5 25.5t71.5 67.5z" />
    <glyph glyph-name="egrave" unicode="&#xe8;" horiz-adv-x="464" 
d="M430 238h-286v-25q0 -88 9 -130.5t31 -64.5q23 -23 64 -23q52 0 96.5 25.5t71.5 67.5l3 -2q-29 -44 -74 -69.5t-97 -25.5q-86 0 -147 65t-61 157t61 157t147 65q85 0 133.5 -63.5t48.5 -130.5v-3zM336 242q-3 129 -33 166q-20 23 -55 23q-41 0 -64 -23q-36 -36 -39 -166
h191zM321 508l-1 -2l-204 107q-21 11 -21 32q0 16 11.5 28t28.5 12q22 0 42 -23z" />
    <glyph glyph-name="eacute" unicode="&#xe9;" horiz-adv-x="464" 
d="M430 238h-286v-25q0 -88 9 -130.5t31 -64.5q23 -23 64 -23q52 0 96.5 25.5t71.5 67.5l3 -2q-29 -44 -74 -69.5t-97 -25.5q-86 0 -147 65t-61 157t61 157t147 65q85 0 133.5 -63.5t48.5 -130.5v-3zM336 242q-3 129 -33 166q-20 23 -55 23q-41 0 -64 -23q-36 -36 -39 -166
h191zM169 508l144 154q20 23 42 23q17 0 28.5 -12t11.5 -28q0 -21 -21 -32l-204 -107z" />
    <glyph glyph-name="ecircumflex" unicode="&#xea;" horiz-adv-x="464" 
d="M430 238h-286v-25q0 -88 9 -130.5t31 -64.5q23 -23 64 -23q52 0 96.5 25.5t71.5 67.5l3 -2q-29 -44 -74 -69.5t-97 -25.5q-86 0 -147 65t-61 157t61 157t147 65q85 0 133.5 -63.5t48.5 -130.5v-3zM336 242q-3 129 -33 166q-20 23 -55 23q-41 0 -64 -23q-36 -36 -39 -166
h191zM124 507l-1 2q81 95 127 183h2q44 -86 128 -183l-2 -2l-127 79z" />
    <glyph glyph-name="edieresis" unicode="&#xeb;" horiz-adv-x="464" 
d="M430 238h-286v-25q0 -88 9 -130.5t31 -64.5q23 -23 64 -23q52 0 96.5 25.5t71.5 67.5l3 -2q-29 -44 -74 -69.5t-97 -25.5q-86 0 -147 65t-61 157t61 157t147 65q85 0 133.5 -63.5t48.5 -130.5v-3zM336 242q-3 129 -33 166q-20 23 -55 23q-41 0 -64 -23q-36 -36 -39 -166
h191zM215 594q0 -22 -14.5 -37.5t-35.5 -15.5t-36 15.5t-15 37.5t15 37.5t36 15.5t35.5 -15.5t14.5 -37.5zM388 594q0 -22 -14.5 -37.5t-35.5 -15.5t-36 15.5t-15 37.5t15 37.5t36 15.5t35.5 -15.5t14.5 -37.5z" />
    <glyph glyph-name="igrave" unicode="&#xec;" horiz-adv-x="270" 
d="M252 0h-223v4h61v418h-61v4h161v-422h62v-4zM215 508l-1 -2l-204 107q-21 11 -21 32q0 16 11.5 28t28.5 12q22 0 42 -23z" />
    <glyph glyph-name="iacute" unicode="&#xed;" horiz-adv-x="270" 
d="M252 0h-223v4h61v418h-61v4h161v-422h62v-4zM43 508l144 154q20 23 42 23q17 0 28.5 -12t11.5 -28q0 -21 -21 -32l-204 -107z" />
    <glyph glyph-name="icircumflex" unicode="&#xee;" horiz-adv-x="270" 
d="M252 0h-223v4h61v418h-61v4h161v-422h62v-4zM8 507l-1 2q81 95 127 183h2q44 -86 128 -183l-2 -2l-127 79z" />
    <glyph glyph-name="idieresis" unicode="&#xef;" horiz-adv-x="270" 
d="M252 0h-223v4h61v418h-61v4h161v-422h62v-4zM99 594q0 -22 -14.5 -37.5t-35.5 -15.5t-36 15.5t-15 37.5t15 37.5t36 15.5t35.5 -15.5t14.5 -37.5zM272 594q0 -22 -14.5 -37.5t-35.5 -15.5t-36 15.5t-15 37.5t15 37.5t36 15.5t35.5 -15.5t14.5 -37.5z" />
    <glyph glyph-name="eth" unicode="&#xf0;" horiz-adv-x="497" 
d="M274 627l-145 -84l-2 4l145 84q-55 64 -153 105l2 3q89 -36 166 -100l121 70l2 -4q-120 -68 -120 -69q167 -150 167 -389q0 -115 -55 -185.5t-155 -70.5q-88 0 -147.5 67t-59.5 153q0 88 61.5 156t148.5 68q72 0 110 -55q-19 167 -86 247zM352 213q0 155 -39 195
q-23 23 -65 23q-41 0 -64 -23q-39 -40 -39 -195q0 -88 9 -130.5t30 -64.5q23 -23 64 -23q42 0 65 23q21 22 30 64.5t9 130.5z" />
    <glyph glyph-name="ntilde" unicode="&#xf1;" horiz-adv-x="528" 
d="M519 0h-223v4h62v325q0 50 -18.5 76t-46.5 26q-87 0 -113 -84v-343h61v-4h-222v4h61v418h-61v4h161v-69q13 39 44.5 58.5t68.5 19.5q77 0 120.5 -44t43.5 -123v-264h62v-4zM410 650h3q-2 -15 -8 -34t-29 -43.5t-57 -24.5q-27 0 -75 21t-65 21q-24 0 -40.5 -14.5
t-20.5 -27.5h-3q8 45 33.5 72t55.5 27q26 0 75 -19t69 -19q23 0 40.5 15t21.5 26z" />
    <glyph glyph-name="ograve" unicode="&#xf2;" horiz-adv-x="497" 
d="M457 213q0 -92 -61 -157t-148 -65q-86 0 -147 65t-61 157t61 157t147 65q87 0 148 -65t61 -157zM352 213q0 155 -39 195q-23 23 -65 23q-41 0 -64 -23q-39 -40 -39 -195q0 -88 9 -130.5t30 -64.5q23 -23 64 -23q42 0 65 23q21 22 30 64.5t9 130.5zM318 508l-1 -2
l-204 107q-21 11 -21 32q0 16 11.5 28t28.5 12q22 0 42 -23z" />
    <glyph glyph-name="oacute" unicode="&#xf3;" horiz-adv-x="497" 
d="M457 213q0 -92 -61 -157t-148 -65q-86 0 -147 65t-61 157t61 157t147 65q87 0 148 -65t61 -157zM352 213q0 155 -39 195q-23 23 -65 23q-41 0 -64 -23q-39 -40 -39 -195q0 -88 9 -130.5t30 -64.5q23 -23 64 -23q42 0 65 23q21 22 30 64.5t9 130.5zM176 508l144 154
q20 23 42 23q17 0 28.5 -12t11.5 -28q0 -21 -21 -32l-204 -107z" />
    <glyph glyph-name="ocircumflex" unicode="&#xf4;" horiz-adv-x="497" 
d="M457 213q0 -92 -61 -157t-148 -65q-86 0 -147 65t-61 157t61 157t147 65q87 0 148 -65t61 -157zM352 213q0 155 -39 195q-23 23 -65 23q-41 0 -64 -23q-39 -40 -39 -195q0 -88 9 -130.5t30 -64.5q23 -23 64 -23q42 0 65 23q21 22 30 64.5t9 130.5zM121 507l-1 2
q81 95 127 183h2q44 -86 128 -183l-2 -2l-127 79z" />
    <glyph glyph-name="otilde" unicode="&#xf5;" horiz-adv-x="497" 
d="M457 213q0 -92 -61 -157t-148 -65q-86 0 -147 65t-61 157t61 157t147 65q87 0 148 -65t61 -157zM352 213q0 155 -39 195q-23 23 -65 23q-41 0 -64 -23q-39 -40 -39 -195q0 -88 9 -130.5t30 -64.5q23 -23 64 -23q42 0 65 23q21 22 30 64.5t9 130.5zM394 650h3
q-2 -15 -8 -34t-29 -43.5t-57 -24.5q-27 0 -75 21t-65 21q-24 0 -40.5 -14.5t-20.5 -27.5h-3q8 45 33.5 72t55.5 27q26 0 75 -19t69 -19q23 0 40.5 15t21.5 26z" />
    <glyph glyph-name="odieresis" unicode="&#xf6;" horiz-adv-x="497" 
d="M457 213q0 -92 -61 -157t-148 -65q-86 0 -147 65t-61 157t61 157t147 65q87 0 148 -65t61 -157zM352 213q0 155 -39 195q-23 23 -65 23q-41 0 -64 -23q-39 -40 -39 -195q0 -88 9 -130.5t30 -64.5q23 -23 64 -23q42 0 65 23q21 22 30 64.5t9 130.5zM212 594
q0 -22 -14.5 -37.5t-35.5 -15.5t-36 15.5t-15 37.5t15 37.5t36 15.5t35.5 -15.5t14.5 -37.5zM385 594q0 -22 -14.5 -37.5t-35.5 -15.5t-36 15.5t-15 37.5t15 37.5t36 15.5t35.5 -15.5t14.5 -37.5z" />
    <glyph glyph-name="divide" unicode="&#xf7;" horiz-adv-x="600" 
d="M349 421q0 -20 -15 -35t-35 -15t-34.5 15t-14.5 35q0 21 14 35.5t35 14.5t35.5 -14.5t14.5 -35.5zM549 216h-499v54h499v-54zM349 64q0 -20 -15 -35t-35 -15t-34.5 15t-14.5 35q0 21 14 35.5t35 14.5t35.5 -14.5t14.5 -35.5z" />
    <glyph glyph-name="oslash" unicode="&#xf8;" horiz-adv-x="497" 
d="M457 213q0 -92 -61 -157t-148 -65q-68 0 -121 42l-39 -57l-4 3l39 57q-83 67 -83 177q0 92 61 157t147 65q67 0 122 -42l39 57l4 -2l-40 -58q39 -30 61.5 -77t22.5 -100zM341 350q-11 39 -28 58q-23 23 -65 23q-41 0 -64 -23q-39 -40 -39 -195q0 -87 9 -132q5 8 14 21
t33.5 48.5t46.5 66.5t44 63t36 51zM352 213q0 85 -10 131l-46 -67q-47 -67 -94 -135l-47 -68q10 -37 29 -56q23 -23 64 -23q42 0 65 23q21 22 30 64.5t9 130.5z" />
    <glyph glyph-name="ugrave" unicode="&#xf9;" horiz-adv-x="518" 
d="M509 0h-161v70q-13 -40 -44.5 -59t-69.5 -19q-77 0 -120.5 40.5t-43.5 118.5v271h-61v4h161v-329q0 -50 18.5 -75.5t45.5 -25.5q87 0 114 83v343h-62v4h161v-422h62v-4zM348 508l-1 -2l-204 107q-21 11 -21 32q0 16 11.5 28t28.5 12q22 0 42 -23z" />
    <glyph glyph-name="uacute" unicode="&#xfa;" horiz-adv-x="518" 
d="M509 0h-161v70q-13 -40 -44.5 -59t-69.5 -19q-77 0 -120.5 40.5t-43.5 118.5v271h-61v4h161v-329q0 -50 18.5 -75.5t45.5 -25.5q87 0 114 83v343h-62v4h161v-422h62v-4zM166 508l144 154q20 23 42 23q17 0 28.5 -12t11.5 -28q0 -21 -21 -32l-204 -107z" />
    <glyph glyph-name="ucircumflex" unicode="&#xfb;" horiz-adv-x="518" 
d="M509 0h-161v70q-13 -40 -44.5 -59t-69.5 -19q-77 0 -120.5 40.5t-43.5 118.5v271h-61v4h161v-329q0 -50 18.5 -75.5t45.5 -25.5q87 0 114 83v343h-62v4h161v-422h62v-4zM131 507l-1 2q81 95 127 183h2q44 -86 128 -183l-2 -2l-127 79z" />
    <glyph glyph-name="udieresis" unicode="&#xfc;" horiz-adv-x="518" 
d="M509 0h-161v70q-13 -40 -44.5 -59t-69.5 -19q-77 0 -120.5 40.5t-43.5 118.5v271h-61v4h161v-329q0 -50 18.5 -75.5t45.5 -25.5q87 0 114 83v343h-62v4h161v-422h62v-4zM222 594q0 -22 -14.5 -37.5t-35.5 -15.5t-36 15.5t-15 37.5t15 37.5t36 15.5t35.5 -15.5t14.5 -37.5
zM395 594q0 -22 -14.5 -37.5t-35.5 -15.5t-36 15.5t-15 37.5t15 37.5t36 15.5t35.5 -15.5t14.5 -37.5z" />
    <glyph glyph-name="yacute" unicode="&#xfd;" horiz-adv-x="415" 
d="M443 422h-41q-13 0 -19.5 -7.5t-16.5 -33.5l-227 -617q-17 -46 -34 -63.5t-47 -17.5q-31 0 -51 16t-20 45q0 25 15 42.5t36 17.5t32.5 -11t11.5 -28q0 -13 -10 -28t-10 -26q0 -15 17 -15q31 0 55 66l84 229l-196 431h-54v4h220v-4h-58l137 -299l94 257q7 18 6.5 28
t-4.5 12t-11 2h-37v4h128v-4zM135 508l144 154q20 23 42 23q17 0 28.5 -12t11.5 -28q0 -21 -21 -32l-204 -107z" />
    <glyph glyph-name="thorn" unicode="&#xfe;" horiz-adv-x="521" 
d="M481 210q0 -84 -62 -151.5t-147 -67.5q-56 0 -92 41v-337h61v-4h-222v4h61v1036h-61v4h161v-341q36 41 92 41q84 0 146.5 -70t62.5 -155zM376 210q0 159 -39 198q-23 23 -65 23q-57 0 -92 -44v-337q10 -26 36 -40.5t56 -14.5q43 0 65 23q39 39 39 192z" />
    <glyph glyph-name="ydieresis" unicode="&#xff;" horiz-adv-x="415" 
d="M443 422h-41q-13 0 -19.5 -7.5t-16.5 -33.5l-227 -617q-17 -46 -34 -63.5t-47 -17.5q-31 0 -51 16t-20 45q0 25 15 42.5t36 17.5t32.5 -11t11.5 -28q0 -13 -10 -28t-10 -26q0 -15 17 -15q31 0 55 66l84 229l-196 431h-54v4h220v-4h-58l137 -299l94 257q7 18 6.5 28
t-4.5 12t-11 2h-37v4h128v-4zM201 594q0 -22 -14.5 -37.5t-35.5 -15.5t-36 15.5t-15 37.5t15 37.5t36 15.5t35.5 -15.5t14.5 -37.5zM374 594q0 -22 -14.5 -37.5t-35.5 -15.5t-36 15.5t-15 37.5t15 37.5t36 15.5t35.5 -15.5t14.5 -37.5z" />
    <glyph glyph-name="Amacron" unicode="&#x100;" horiz-adv-x="632" 
d="M660 0h-320v4h95l-81 227h-207l-70 -188q-8 -25 -5.5 -32t13.5 -7h71v-4h-178v4h57q13 0 21 7t17 32l234 637h4l263 -676h86v-4zM352 235l-100 284l-104 -284h204zM169 783v41h280v-41h-280z" />
    <glyph glyph-name="amacron" unicode="&#x101;" horiz-adv-x="436" 
d="M437 31q-5 -15 -26 -27t-48 -12q-32 0 -56.5 18.5t-29.5 46.5q-20 -65 -104 -65q-55 0 -97 27t-42 78q0 34 15 60t38 39t43 19.5t38 8.5q83 8 97 18q7 5 7 12v76q0 102 -64 102q-62 0 -62 -46q0 -8 6 -22t6 -23q0 -16 -12 -26.5t-35 -10.5q-22 0 -33 14t-11 33
q0 31 39.5 58t101.5 27q78 0 121 -45t43 -136v-215q0 -34 26 -34q12 0 22 8.5t13 17.5zM272 70v171q-10 -7 -23.5 -10.5t-34 -6t-28.5 -4.5q-27 -5 -40.5 -31.5t-13.5 -91.5q0 -59 15.5 -78t43.5 -19q36 0 58.5 20.5t22.5 49.5zM78 562v41h280v-41h-280z" />
    <glyph glyph-name="Abreve" unicode="&#x102;" horiz-adv-x="632" 
d="M660 0h-320v4h95l-81 227h-207l-70 -188q-8 -25 -5.5 -32t13.5 -7h71v-4h-178v4h57q13 0 21 7t17 32l234 637h4l263 -676h86v-4zM352 235l-100 284l-104 -284h204zM450 895q0 -59 -33.5 -107t-106.5 -48t-106.5 48t-33.5 107q0 1 2 1t2 -1q0 -34 33 -63.5t103 -29.5
t103 29.5t33 63.5q0 1 2 1t2 -1z" />
    <glyph glyph-name="abreve" unicode="&#x103;" horiz-adv-x="436" 
d="M437 31q-5 -15 -26 -27t-48 -12q-32 0 -56.5 18.5t-29.5 46.5q-20 -65 -104 -65q-55 0 -97 27t-42 78q0 34 15 60t38 39t43 19.5t38 8.5q83 8 97 18q7 5 7 12v76q0 102 -64 102q-62 0 -62 -46q0 -8 6 -22t6 -23q0 -16 -12 -26.5t-35 -10.5q-22 0 -33 14t-11 33
q0 31 39.5 58t101.5 27q78 0 121 -45t43 -136v-215q0 -34 26 -34q12 0 22 8.5t13 17.5zM272 70v171q-10 -7 -23.5 -10.5t-34 -6t-28.5 -4.5q-27 -5 -40.5 -31.5t-13.5 -91.5q0 -59 15.5 -78t43.5 -19q36 0 58.5 20.5t22.5 49.5zM358 674q0 -59 -33.5 -107t-106.5 -48
t-106.5 48t-33.5 107q0 2 2 2t2 -2q0 -34 33 -63.5t103 -29.5t103 29.5t33 63.5q0 2 2 2t2 -2z" />
    <glyph glyph-name="Aogonek" unicode="&#x104;" horiz-adv-x="632" 
d="M660 0h-320v4h95l-81 227h-207l-70 -188q-8 -25 -5.5 -32t13.5 -7h71v-4h-178v4h57q13 0 21 7t17 32l234 637h4l263 -676h86v-4zM352 235l-100 284l-104 -284h204zM608 -161l2 -2q-46 -37 -91 -37q-36 0 -60.5 16.5t-24.5 49.5q0 40 35 71.5t101 62.5h8q-74 -53 -74 -127
q0 -12 3 -23.5t15 -23t32 -11.5t54 24z" />
    <glyph glyph-name="aogonek" unicode="&#x105;" horiz-adv-x="436" 
d="M437 31q-5 -15 -26 -27t-48 -12q-32 0 -56.5 18.5t-29.5 46.5q-20 -65 -104 -65q-55 0 -97 27t-42 78q0 34 15 60t38 39t43 19.5t38 8.5q83 8 97 18q7 5 7 12v76q0 102 -64 102q-62 0 -62 -46q0 -8 6 -22t6 -23q0 -16 -12 -26.5t-35 -10.5q-22 0 -33 14t-11 33
q0 31 39.5 58t101.5 27q78 0 121 -45t43 -136v-215q0 -34 26 -34q12 0 22 8.5t13 17.5zM272 70v171q-10 -7 -23.5 -10.5t-34 -6t-28.5 -4.5q-27 -5 -40.5 -31.5t-13.5 -91.5q0 -59 15.5 -78t43.5 -19q36 0 58.5 20.5t22.5 49.5zM432 -161l2 -2q-46 -37 -91 -37
q-36 0 -60.5 16.5t-24.5 49.5q0 40 35 71.5t101 62.5h8q-74 -53 -74 -127q0 -12 3 -23.5t15 -23t32 -11.5t54 24z" />
    <glyph glyph-name="Cacute" unicode="&#x106;" horiz-adv-x="627" 
d="M581 -14h-3q-2 10 -14 19t-30 9q-21 0 -81 -15t-88 -15q-134 0 -226 103.5t-92 245.5q0 143 89.5 246.5t223.5 103.5q24 0 76.5 -12.5t74.5 -12.5q19 0 32.5 7t15.5 15h4v-219h-4q0 72 -64.5 145t-134.5 73q-71 0 -106 -36q-65 -65 -65 -310q0 -244 65 -309
q36 -37 111 -37q86 0 149 75.5t63 170.5h4v-247zM281 729l144 154q20 23 42 23q17 0 28.5 -12t11.5 -28q0 -21 -21 -32l-204 -107z" />
    <glyph glyph-name="cacute" unicode="&#x107;" horiz-adv-x="441" 
d="M419 86q-29 -43 -74.5 -69t-96.5 -26q-87 0 -148 65t-61 157t61 157t148 65q66 0 108.5 -31t42.5 -70q0 -46 -45 -46q-20 0 -31.5 11t-11.5 27q0 12 6 25t6 29q0 51 -75 51q-42 0 -65 -23q-21 -22 -30 -64.5t-9 -130.5t9 -130.5t30 -64.5q23 -23 65 -23q51 0 95.5 25.5
t71.5 67.5zM168 508l144 154q20 23 42 23q17 0 28.5 -12t11.5 -28q0 -21 -21 -32l-204 -107z" />
    <glyph glyph-name="Ccircumflex" unicode="&#x108;" horiz-adv-x="627" 
d="M581 -14h-3q-2 10 -14 19t-30 9q-21 0 -81 -15t-88 -15q-134 0 -226 103.5t-92 245.5q0 143 89.5 246.5t223.5 103.5q24 0 76.5 -12.5t74.5 -12.5q19 0 32.5 7t15.5 15h4v-219h-4q0 72 -64.5 145t-134.5 73q-71 0 -106 -36q-65 -65 -65 -310q0 -244 65 -309
q36 -37 111 -37q86 0 149 75.5t63 170.5h4v-247zM226 728l-1 2q81 95 127 183h2q44 -86 128 -183l-2 -2l-127 79z" />
    <glyph glyph-name="ccircumflex" unicode="&#x109;" horiz-adv-x="441" 
d="M419 86q-29 -43 -74.5 -69t-96.5 -26q-87 0 -148 65t-61 157t61 157t148 65q66 0 108.5 -31t42.5 -70q0 -46 -45 -46q-20 0 -31.5 11t-11.5 27q0 12 6 25t6 29q0 51 -75 51q-42 0 -65 -23q-21 -22 -30 -64.5t-9 -130.5t9 -130.5t30 -64.5q23 -23 65 -23q51 0 95.5 25.5
t71.5 67.5zM123 507l-1 2q81 95 127 183h2q44 -86 128 -183l-2 -2l-127 79z" />
    <glyph glyph-name="Cdotaccent" unicode="&#x10a;" horiz-adv-x="627" 
d="M581 -14h-3q-2 10 -14 19t-30 9q-21 0 -81 -15t-88 -15q-134 0 -226 103.5t-92 245.5q0 143 89.5 246.5t223.5 103.5q24 0 76.5 -12.5t74.5 -12.5q19 0 32.5 7t15.5 15h4v-219h-4q0 72 -64.5 145t-134.5 73q-71 0 -106 -36q-65 -65 -65 -310q0 -244 65 -309
q36 -37 111 -37q86 0 149 75.5t63 170.5h4v-247zM410 806q0 -25 -17 -42.5t-42 -17.5q-23 0 -39 17.5t-16 42.5q0 23 16 39.5t39 16.5q25 0 42 -16.5t17 -39.5q0 -25 -17 -42.5t-42 -17.5q-23 0 -39 17.5t-16 42.5q0 23 16 39.5t39 16.5q25 0 42 -16.5t17 -39.5z" />
    <glyph glyph-name="cdotaccent" unicode="&#x10b;" horiz-adv-x="441" 
d="M419 86q-29 -43 -74.5 -69t-96.5 -26q-87 0 -148 65t-61 157t61 157t148 65q66 0 108.5 -31t42.5 -70q0 -46 -45 -46q-20 0 -31.5 11t-11.5 27q0 12 6 25t6 29q0 51 -75 51q-42 0 -65 -23q-21 -22 -30 -64.5t-9 -130.5t9 -130.5t30 -64.5q23 -23 65 -23q51 0 95.5 25.5
t71.5 67.5zM301 594q0 -22 -14.5 -37.5t-35.5 -15.5t-36 15.5t-15 37.5t15 37.5t36 15.5t35.5 -15.5t14.5 -37.5z" />
    <glyph glyph-name="Ccaron" unicode="&#x10c;" horiz-adv-x="627" 
d="M581 -14h-3q-2 10 -14 19t-30 9q-21 0 -81 -15t-88 -15q-134 0 -226 103.5t-92 245.5q0 143 89.5 246.5t223.5 103.5q24 0 76.5 -12.5t74.5 -12.5q19 0 32.5 7t15.5 15h4v-219h-4q0 72 -64.5 145t-134.5 73q-71 0 -106 -36q-65 -65 -65 -310q0 -244 65 -309
q36 -37 111 -37q86 0 149 75.5t63 170.5h4v-247zM225 911l1 2l127 -79l127 79l2 -2q-84 -97 -128 -183h-2q-46 88 -127 183z" />
    <glyph glyph-name="ccaron" unicode="&#x10d;" horiz-adv-x="441" 
d="M419 86q-29 -43 -74.5 -69t-96.5 -26q-87 0 -148 65t-61 157t61 157t148 65q66 0 108.5 -31t42.5 -70q0 -46 -45 -46q-20 0 -31.5 11t-11.5 27q0 12 6 25t6 29q0 51 -75 51q-42 0 -65 -23q-21 -22 -30 -64.5t-9 -130.5t9 -130.5t30 -64.5q23 -23 65 -23q51 0 95.5 25.5
t71.5 67.5zM122 690l1 2l127 -79l127 79l2 -2q-84 -97 -128 -183h-2q-46 88 -127 183z" />
    <glyph glyph-name="Dcaron" unicode="&#x10e;" horiz-adv-x="704" 
d="M657 333q0 -137 -91.5 -235t-221.5 -98h-307v4h90v659h-90v4h307q130 0 221.5 -97.5t91.5 -236.5zM516 333q0 232 -65 296q-37 34 -107 34h-88v-659h88q71 0 107 35q35 34 50 98t15 196zM223 911l1 2l127 -79l127 79l2 -2q-84 -97 -128 -183h-2q-46 88 -127 183z" />
    <glyph glyph-name="dcaron" unicode="&#x10f;" horiz-adv-x="623" 
d="M503 0h-162v47q-7 -22 -30.5 -39t-61.5 -17q-84 0 -146 67.5t-62 151.5q0 86 62 155.5t146 69.5q57 0 92 -41v337h-61v4h161v-731h62v-4zM341 72v315q-33 44 -92 44q-42 0 -64 -23q-40 -40 -40 -198q0 -152 40 -192q23 -23 64 -23q43 0 67.5 22.5t24.5 54.5zM623 665
q0 -45 -39 -107.5t-85 -77.5l-1 4q19 6 33 18q39 33 39 68t-37 62q-25 17 -25 48q0 24 16.5 41.5t39.5 17.5q59 0 59 -74z" />
    <glyph glyph-name="Dcroat" unicode="&#x110;" horiz-adv-x="704" 
d="M50 342h77v321h-90v4h307q130 0 221.5 -97.5t91.5 -236.5q0 -137 -91.5 -235t-221.5 -98h-307v4h90v334h-77v4zM516 333q0 232 -65 296q-37 34 -107 34h-88v-321h91v-4h-91v-334h88q71 0 107 35q35 34 50 98t15 196z" />
    <glyph glyph-name="dcroat" unicode="&#x111;" horiz-adv-x="511" 
d="M182 566h159v165h-61v4h161v-169h91v-4h-91v-558h62v-4h-162v47q-7 -22 -30.5 -39t-61.5 -17q-84 0 -146 67.5t-62 151.5q0 86 62 155.5t146 69.5q57 0 92 -41v168h-159v4zM341 72v315q-33 44 -92 44q-42 0 -64 -23q-40 -40 -40 -198q0 -152 40 -192q23 -23 64 -23
q43 0 67.5 22.5t24.5 54.5z" />
    <glyph glyph-name="Emacron" unicode="&#x112;" horiz-adv-x="619" 
d="M597 0h-561v4h91v659h-91v4h510v-196h-4q0 72 -50 132t-134 60h-102v-319h24q57 0 95.5 38.5t38.5 88.5h4v-257h-4q0 50 -38.5 88.5t-95.5 38.5h-24v-337h104q110 0 171.5 65t61.5 146h4v-215zM169 783v41h280v-41h-280z" />
    <glyph glyph-name="emacron" unicode="&#x113;" horiz-adv-x="464" 
d="M430 238h-286v-25q0 -88 9 -130.5t31 -64.5q23 -23 64 -23q52 0 96.5 25.5t71.5 67.5l3 -2q-29 -44 -74 -69.5t-97 -25.5q-86 0 -147 65t-61 157t61 157t147 65q85 0 133.5 -63.5t48.5 -130.5v-3zM336 242q-3 129 -33 166q-20 23 -55 23q-41 0 -64 -23q-36 -36 -39 -166
h191zM112 562v41h280v-41h-280z" />
    <glyph glyph-name="Ebreve" unicode="&#x114;" horiz-adv-x="619" 
d="M597 0h-561v4h91v659h-91v4h510v-196h-4q0 72 -50 132t-134 60h-102v-319h24q57 0 95.5 38.5t38.5 88.5h4v-257h-4q0 50 -38.5 88.5t-95.5 38.5h-24v-337h104q110 0 171.5 65t61.5 146h4v-215zM449 895q0 -59 -33.5 -107t-106.5 -48t-106.5 48t-33.5 107q0 1 2 1t2 -1
q0 -34 33 -63.5t103 -29.5t103 29.5t33 63.5q0 1 2 1t2 -1z" />
    <glyph glyph-name="ebreve" unicode="&#x115;" horiz-adv-x="464" 
d="M430 238h-286v-25q0 -88 9 -130.5t31 -64.5q23 -23 64 -23q52 0 96.5 25.5t71.5 67.5l3 -2q-29 -44 -74 -69.5t-97 -25.5q-86 0 -147 65t-61 157t61 157t147 65q85 0 133.5 -63.5t48.5 -130.5v-3zM336 242q-3 129 -33 166q-20 23 -55 23q-41 0 -64 -23q-36 -36 -39 -166
h191zM392 674q0 -59 -33.5 -107t-106.5 -48t-106.5 48t-33.5 107q0 2 2 2t2 -2q0 -34 33 -63.5t103 -29.5t103 29.5t33 63.5q0 2 2 2t2 -2z" />
    <glyph glyph-name="Edotaccent" unicode="&#x116;" horiz-adv-x="619" 
d="M597 0h-561v4h91v659h-91v4h510v-196h-4q0 72 -50 132t-134 60h-102v-319h24q57 0 95.5 38.5t38.5 88.5h4v-257h-4q0 50 -38.5 88.5t-95.5 38.5h-24v-337h104q110 0 171.5 65t61.5 146h4v-215zM366 806q0 -25 -17 -42.5t-42 -17.5q-23 0 -39 17.5t-16 42.5q0 23 16 39.5
t39 16.5q25 0 42 -16.5t17 -39.5q0 -25 -17 -42.5t-42 -17.5q-23 0 -39 17.5t-16 42.5q0 23 16 39.5t39 16.5q25 0 42 -16.5t17 -39.5z" />
    <glyph glyph-name="edotaccent" unicode="&#x117;" horiz-adv-x="464" 
d="M430 238h-286v-25q0 -88 9 -130.5t31 -64.5q23 -23 64 -23q52 0 96.5 25.5t71.5 67.5l3 -2q-29 -44 -74 -69.5t-97 -25.5q-86 0 -147 65t-61 157t61 157t147 65q85 0 133.5 -63.5t48.5 -130.5v-3zM336 242q-3 129 -33 166q-20 23 -55 23q-41 0 -64 -23q-36 -36 -39 -166
h191zM302 594q0 -22 -14.5 -37.5t-35.5 -15.5t-36 15.5t-15 37.5t15 37.5t36 15.5t35.5 -15.5t14.5 -37.5z" />
    <glyph glyph-name="Eogonek" unicode="&#x118;" horiz-adv-x="619" 
d="M597 0h-561v4h91v659h-91v4h510v-196h-4q0 72 -50 132t-134 60h-102v-319h24q57 0 95.5 38.5t38.5 88.5h4v-257h-4q0 50 -38.5 88.5t-95.5 38.5h-24v-337h104q110 0 171.5 65t61.5 146h4v-215zM595 -161l2 -2q-46 -37 -91 -37q-36 0 -60.5 16.5t-24.5 49.5q0 40 35 71.5
t101 62.5h8q-74 -53 -74 -127q0 -12 3 -23.5t15 -23t32 -11.5t54 24z" />
    <glyph glyph-name="eogonek" unicode="&#x119;" horiz-adv-x="464" 
d="M430 238h-286v-25q0 -88 9 -130.5t31 -64.5q23 -23 64 -23q52 0 96.5 25.5t71.5 67.5l3 -2q-29 -44 -74 -69.5t-97 -25.5q-86 0 -147 65t-61 157t61 157t147 65q85 0 133.5 -63.5t48.5 -130.5v-3zM336 242q-3 129 -33 166q-20 23 -55 23q-41 0 -64 -23q-36 -36 -39 -166
h191zM336 -161l2 -2q-46 -37 -91 -37q-36 0 -60.5 16.5t-24.5 49.5q0 40 35 71.5t101 62.5h8q-74 -53 -74 -127q0 -12 3 -23.5t15 -23t32 -11.5t54 24z" />
    <glyph glyph-name="Ecaron" unicode="&#x11a;" horiz-adv-x="619" 
d="M597 0h-561v4h91v659h-91v4h510v-196h-4q0 72 -50 132t-134 60h-102v-319h24q57 0 95.5 38.5t38.5 88.5h4v-257h-4q0 50 -38.5 88.5t-95.5 38.5h-24v-337h104q110 0 171.5 65t61.5 146h4v-215zM181 911l1 2l127 -79l127 79l2 -2q-84 -97 -128 -183h-2q-46 88 -127 183z
" />
    <glyph glyph-name="ecaron" unicode="&#x11b;" horiz-adv-x="464" 
d="M430 238h-286v-25q0 -88 9 -130.5t31 -64.5q23 -23 64 -23q52 0 96.5 25.5t71.5 67.5l3 -2q-29 -44 -74 -69.5t-97 -25.5q-86 0 -147 65t-61 157t61 157t147 65q85 0 133.5 -63.5t48.5 -130.5v-3zM336 242q-3 129 -33 166q-20 23 -55 23q-41 0 -64 -23q-36 -36 -39 -166
h191zM123 690l1 2l127 -79l127 79l2 -2q-84 -97 -128 -183h-2q-46 88 -127 183z" />
    <glyph glyph-name="Gcircumflex" unicode="&#x11c;" horiz-adv-x="656" 
d="M687 252h-90v-256h-6q-3 11 -17 23t-32 12q-16 0 -43 -11.5t-66.5 -23.5t-86.5 -12q-89 0 -158.5 50t-105 128.5t-35.5 170.5q0 143 89.5 246.5t222.5 103.5q23 0 69.5 -12.5t68.5 -12.5q19 0 32.5 7t15.5 15h4v-219h-4q0 74 -57.5 146t-128.5 72q-70 0 -106 -36
q-65 -65 -65 -310q0 -145 9.5 -210.5t42.5 -98.5q37 -37 106 -37q121 0 121 87v178h-91v4h311v-4zM230 728l-1 2q81 95 127 183h2q44 -86 128 -183l-2 -2l-127 79z" />
    <glyph glyph-name="gcircumflex" unicode="&#x11d;" horiz-adv-x="485" 
d="M506 391q0 -13 -9.5 -24t-21.5 -11q-13 0 -21.5 7.5t-8.5 16.5q0 8 4 14t4 11q0 16 -18 16q-35 0 -57 -49q33 -45 33 -97q0 -67 -48.5 -114t-116.5 -47q-76 0 -126 58q-33 -23 -33 -67q0 -41 20 -54.5t72 -13.5h115q199 0 199 -163q0 -86 -75.5 -137.5t-164.5 -51.5
q-100 0 -163.5 39.5t-63.5 97.5q0 42 29.5 79t72.5 48q-39 11 -60.5 38t-21.5 65q0 76 72 123q-36 44 -36 100q0 67 48 113.5t116 46.5q81 0 128 -60q29 60 83 60q20 0 34.5 -11.5t14.5 -32.5zM320 275q0 112 -28 141q-15 16 -46 16q-30 0 -45 -16q-28 -29 -28 -141
q0 -111 28 -140q16 -17 45 -17q30 0 46 17q28 29 28 140zM435 -168q0 46 -34 79t-87 33h-144q-19 0 -34 4q-40 -26 -40 -113q0 -78 39 -112.5t118 -34.5q76 0 129 38t53 106zM115 507l-1 2q81 95 127 183h2q44 -86 128 -183l-2 -2l-127 79z" />
    <glyph glyph-name="Gbreve" unicode="&#x11e;" horiz-adv-x="656" 
d="M687 252h-90v-256h-6q-3 11 -17 23t-32 12q-16 0 -43 -11.5t-66.5 -23.5t-86.5 -12q-89 0 -158.5 50t-105 128.5t-35.5 170.5q0 143 89.5 246.5t222.5 103.5q23 0 69.5 -12.5t68.5 -12.5q19 0 32.5 7t15.5 15h4v-219h-4q0 74 -57.5 146t-128.5 72q-70 0 -106 -36
q-65 -65 -65 -310q0 -145 9.5 -210.5t42.5 -98.5q37 -37 106 -37q121 0 121 87v178h-91v4h311v-4zM498 895q0 -59 -33.5 -107t-106.5 -48t-106.5 48t-33.5 107q0 1 2 1t2 -1q0 -34 33 -63.5t103 -29.5t103 29.5t33 63.5q0 1 2 1t2 -1z" />
    <glyph glyph-name="gbreve" unicode="&#x11f;" horiz-adv-x="485" 
d="M506 391q0 -13 -9.5 -24t-21.5 -11q-13 0 -21.5 7.5t-8.5 16.5q0 8 4 14t4 11q0 16 -18 16q-35 0 -57 -49q33 -45 33 -97q0 -67 -48.5 -114t-116.5 -47q-76 0 -126 58q-33 -23 -33 -67q0 -41 20 -54.5t72 -13.5h115q199 0 199 -163q0 -86 -75.5 -137.5t-164.5 -51.5
q-100 0 -163.5 39.5t-63.5 97.5q0 42 29.5 79t72.5 48q-39 11 -60.5 38t-21.5 65q0 76 72 123q-36 44 -36 100q0 67 48 113.5t116 46.5q81 0 128 -60q29 60 83 60q20 0 34.5 -11.5t14.5 -32.5zM320 275q0 112 -28 141q-15 16 -46 16q-30 0 -45 -16q-28 -29 -28 -141
q0 -111 28 -140q16 -17 45 -17q30 0 46 17q28 29 28 140zM435 -168q0 46 -34 79t-87 33h-144q-19 0 -34 4q-40 -26 -40 -113q0 -78 39 -112.5t118 -34.5q76 0 129 38t53 106zM382 674q0 -59 -33.5 -107t-106.5 -48t-106.5 48t-33.5 107q0 2 2 2t2 -2q0 -34 33 -63.5
t103 -29.5t103 29.5t33 63.5q0 2 2 2t2 -2z" />
    <glyph glyph-name="Gdotaccent" unicode="&#x120;" horiz-adv-x="656" 
d="M687 252h-90v-256h-6q-3 11 -17 23t-32 12q-16 0 -43 -11.5t-66.5 -23.5t-86.5 -12q-89 0 -158.5 50t-105 128.5t-35.5 170.5q0 143 89.5 246.5t222.5 103.5q23 0 69.5 -12.5t68.5 -12.5q19 0 32.5 7t15.5 15h4v-219h-4q0 74 -57.5 146t-128.5 72q-70 0 -106 -36
q-65 -65 -65 -310q0 -145 9.5 -210.5t42.5 -98.5q37 -37 106 -37q121 0 121 87v178h-91v4h311v-4zM414 806q0 -25 -17 -42.5t-42 -17.5q-23 0 -39 17.5t-16 42.5q0 23 16 39.5t39 16.5q25 0 42 -16.5t17 -39.5q0 -25 -17 -42.5t-42 -17.5q-23 0 -39 17.5t-16 42.5
q0 23 16 39.5t39 16.5q25 0 42 -16.5t17 -39.5z" />
    <glyph glyph-name="gdotaccent" unicode="&#x121;" horiz-adv-x="485" 
d="M506 391q0 -13 -9.5 -24t-21.5 -11q-13 0 -21.5 7.5t-8.5 16.5q0 8 4 14t4 11q0 16 -18 16q-35 0 -57 -49q33 -45 33 -97q0 -67 -48.5 -114t-116.5 -47q-76 0 -126 58q-33 -23 -33 -67q0 -41 20 -54.5t72 -13.5h115q199 0 199 -163q0 -86 -75.5 -137.5t-164.5 -51.5
q-100 0 -163.5 39.5t-63.5 97.5q0 42 29.5 79t72.5 48q-39 11 -60.5 38t-21.5 65q0 76 72 123q-36 44 -36 100q0 67 48 113.5t116 46.5q81 0 128 -60q29 60 83 60q20 0 34.5 -11.5t14.5 -32.5zM320 275q0 112 -28 141q-15 16 -46 16q-30 0 -45 -16q-28 -29 -28 -141
q0 -111 28 -140q16 -17 45 -17q30 0 46 17q28 29 28 140zM435 -168q0 46 -34 79t-87 33h-144q-19 0 -34 4q-40 -26 -40 -113q0 -78 39 -112.5t118 -34.5q76 0 129 38t53 106zM293 594q0 -22 -14.5 -37.5t-35.5 -15.5t-36 15.5t-15 37.5t15 37.5t36 15.5t35.5 -15.5
t14.5 -37.5z" />
    <glyph glyph-name="Gcommaaccent" unicode="&#x122;" horiz-adv-x="656" 
d="M687 252h-90v-256h-6q-3 11 -17 23t-32 12q-16 0 -43 -11.5t-66.5 -23.5t-86.5 -12q-89 0 -158.5 50t-105 128.5t-35.5 170.5q0 143 89.5 246.5t222.5 103.5q23 0 69.5 -12.5t68.5 -12.5q19 0 32.5 7t15.5 15h4v-219h-4q0 74 -57.5 146t-128.5 72q-70 0 -106 -36
q-65 -65 -65 -310q0 -145 9.5 -210.5t42.5 -98.5q37 -37 106 -37q121 0 121 87v178h-91v4h311v-4zM410 -119q0 -45 -39 -107.5t-85 -77.5l-1 4q19 6 33 18q39 33 39 68t-37 62q-25 17 -25 48q0 24 16.5 41.5t39.5 17.5q59 0 59 -74z" />
    <glyph glyph-name="gcommaaccent" unicode="&#x123;" horiz-adv-x="485" 
d="M506 391q0 -13 -9.5 -24t-21.5 -11q-13 0 -21.5 7.5t-8.5 16.5q0 8 4 14t4 11q0 16 -18 16q-35 0 -57 -49q33 -45 33 -97q0 -67 -48.5 -114t-116.5 -47q-76 0 -126 58q-33 -23 -33 -67q0 -41 20 -54.5t72 -13.5h115q199 0 199 -163q0 -86 -75.5 -137.5t-164.5 -51.5
q-100 0 -163.5 39.5t-63.5 97.5q0 42 29.5 79t72.5 48q-39 11 -60.5 38t-21.5 65q0 76 72 123q-36 44 -36 100q0 67 48 113.5t116 46.5q81 0 128 -60q29 60 83 60q20 0 34.5 -11.5t14.5 -32.5zM320 275q0 112 -28 141q-15 16 -46 16q-30 0 -45 -16q-28 -29 -28 -141
q0 -111 28 -140q16 -17 45 -17q30 0 46 17q28 29 28 140zM435 -168q0 46 -34 79t-87 33h-144q-19 0 -34 4q-40 -26 -40 -113q0 -78 39 -112.5t118 -34.5q76 0 129 38t53 106zM193 580q0 45 39 107.5t85 77.5l1 -4q-19 -6 -33 -18q-39 -33 -39 -68t37 -62q25 -17 25 -48
q0 -24 -16.5 -41.5t-39.5 -17.5q-59 0 -59 74z" />
    <glyph glyph-name="Hcircumflex" unicode="&#x124;" horiz-adv-x="749" 
d="M712 0h-301v4h81v341h-236v-341h82v-4h-301v4h90v659h-90v4h301v-4h-82v-314h236v314h-81v4h301v-4h-90v-659h90v-4zM247 728l-1 2q81 95 127 183h2q44 -86 128 -183l-2 -2l-127 79z" />
    <glyph glyph-name="hcircumflex" unicode="&#x125;" horiz-adv-x="528" 
d="M519 0h-223v4h62v325q0 50 -18.5 76t-46.5 26q-87 0 -113 -84v-343h61v-4h-222v4h61v727h-61v4h161v-378q13 39 44.5 58.5t68.5 19.5q77 0 120.5 -44t43.5 -123v-264h62v-4zM3 777l-1 2q81 95 127 183h2q44 -86 128 -183l-2 -2l-127 79z" />
    <glyph glyph-name="Hbar" unicode="&#x126;" horiz-adv-x="749" 
d="M44 484h83v179h-90v4h301v-4h-82v-179h236v179h-81v4h301v-4h-90v-179h82v-4h-82v-476h90v-4h-301v4h81v341h-236v-341h82v-4h-301v4h90v476h-83v4zM256 349h236v131h-236v-131z" />
    <glyph glyph-name="hbar" unicode="&#x127;" horiz-adv-x="528" 
d="M519 0h-223v4h62v325q0 50 -18.5 76t-46.5 26q-87 0 -113 -84v-343h61v-4h-222v4h61v558h-91v4h91v165h-61v4h161v-169h159v-4h-159v-205q13 39 44.5 58.5t68.5 19.5q77 0 120.5 -44t43.5 -123v-264h62v-4z" />
    <glyph glyph-name="Itilde" unicode="&#x128;" horiz-adv-x="383" 
d="M347 0h-310v4h90v659h-90v4h310v-4h-90v-659h90v-4zM337 871h3q-2 -15 -8 -34t-29 -43.5t-57 -24.5q-27 0 -75 21t-65 21q-24 0 -40.5 -14.5t-20.5 -27.5h-3q8 45 33.5 72t55.5 27q27 0 75 -19t69 -19q23 0 40.5 15t21.5 26z" />
    <glyph glyph-name="itilde" unicode="&#x129;" horiz-adv-x="270" 
d="M252 0h-223v4h61v418h-61v4h161v-422h62v-4zM281 650h3q-2 -15 -8 -34t-29 -43.5t-57 -24.5q-27 0 -75 21t-65 21q-24 0 -40.5 -14.5t-20.5 -27.5h-3q8 45 33.5 72t55.5 27q27 0 75 -19t69 -19q23 0 40.5 15t21.5 26z" />
    <glyph glyph-name="Imacron" unicode="&#x12a;" horiz-adv-x="383" 
d="M347 0h-310v4h90v659h-90v4h310v-4h-90v-659h90v-4zM51 763v41h280v-41h-280z" />
    <glyph glyph-name="imacron" unicode="&#x12b;" horiz-adv-x="270" 
d="M252 0h-223v4h61v418h-61v4h161v-422h62v-4zM-5 562v41h280v-41h-280z" />
    <glyph glyph-name="Ibreve" unicode="&#x12c;" horiz-adv-x="383" 
d="M347 0h-310v4h90v659h-90v4h310v-4h-90v-659h90v-4zM331 895q0 -59 -33.5 -107t-106.5 -48t-106.5 48t-33.5 107q0 1 2 1t2 -1q0 -34 33 -63.5t103 -29.5t103 29.5t33 63.5q0 1 2 1t2 -1z" />
    <glyph glyph-name="ibreve" unicode="&#x12d;" horiz-adv-x="270" 
d="M252 0h-223v4h61v418h-61v4h161v-422h62v-4zM275 674q0 -59 -33.5 -107t-106.5 -48t-106.5 48t-33.5 107q0 2 2 2t2 -2q0 -34 33 -63.5t103 -29.5t103 29.5t33 63.5q0 2 2 2t2 -2z" />
    <glyph glyph-name="Iogonek" unicode="&#x12e;" horiz-adv-x="383" 
d="M347 0h-310v4h90v659h-90v4h310v-4h-90v-659h90v-4zM325 -161l2 -2q-46 -37 -91 -37q-36 0 -60.5 16.5t-24.5 49.5q0 40 35 71.5t101 62.5h8q-74 -53 -74 -127q0 -12 3 -23.5t15 -23t32 -11.5t54 24z" />
    <glyph glyph-name="iogonek" unicode="&#x12f;" horiz-adv-x="270" 
d="M252 0h-223v4h61v418h-61v4h161v-422h62v-4zM197 606q0 -25 -17 -42.5t-42 -17.5q-23 0 -39 17.5t-16 42.5q0 23 16 39.5t39 16.5q25 0 42 -16.5t17 -39.5zM221 -161l2 -2q-46 -37 -91 -37q-36 0 -60.5 16.5t-24.5 49.5q0 40 35 71.5t101 62.5h8q-74 -53 -74 -127
q0 -12 3 -23.5t15 -23t32 -11.5t54 24z" />
    <glyph glyph-name="Idotaccent" unicode="&#x130;" horiz-adv-x="383" 
d="M347 0h-310v4h90v659h-90v4h310v-4h-90v-659h90v-4zM248 806q0 -25 -17 -42.5t-42 -17.5q-23 0 -39 17.5t-16 42.5q0 23 16 39.5t39 16.5q25 0 42 -16.5t17 -39.5q0 -25 -17 -42.5t-42 -17.5q-23 0 -39 17.5t-16 42.5q0 23 16 39.5t39 16.5q25 0 42 -16.5t17 -39.5z" />
    <glyph glyph-name="dotlessi" unicode="&#x131;" horiz-adv-x="270" 
d="M252 0h-223v4h61v418h-61v4h161v-422h62v-4z" />
    <glyph glyph-name="Jcircumflex" unicode="&#x134;" horiz-adv-x="485" 
d="M472 663h-91v-506q0 -80 -55 -126.5t-141 -46.5q-60 0 -110.5 40.5t-50.5 88.5q0 37 23.5 60t51.5 23q29 0 49 -20.5t20 -49.5q0 -30 -22 -48t-22 -37q0 -22 18.5 -38t42.5 -16q67 0 67 77v599h-90v4h310v-4zM189 728l-1 2q81 95 127 183h2q44 -86 128 -183l-2 -2
l-127 79z" />
    <glyph glyph-name="jcircumflex" unicode="&#x135;" horiz-adv-x="265" 
d="M190 -23q0 -294 -171 -294q-37 0 -63.5 19.5t-26.5 53.5q0 21 13.5 36t34.5 15q47 0 47 -37q0 -12 -7 -24.5t-7 -27.5q0 -16 6.5 -23t22.5 -7q51 0 51 118v616h-61v4h161v-449zM5 507l-1 2q81 95 127 183h2q44 -86 128 -183l-2 -2l-127 79z" />
    <glyph glyph-name="Kcommaaccent" unicode="&#x136;" horiz-adv-x="656" 
d="M742 0h-350v4h104l-239 326v-326h90v-4h-310v4h90v659h-90v4h310v-4h-90v-327l252 288q34 39 10 39h-71v4h189v-4h-59q-29 0 -63 -39l-177 -202l312 -418h92v-4zM390 -119q0 -45 -39 -107.5t-85 -77.5l-1 4q19 6 33 18q39 33 39 68t-37 62q-25 17 -25 48q0 24 16.5 41.5
t39.5 17.5q59 0 59 -74z" />
    <glyph glyph-name="kcommaaccent" unicode="&#x137;" horiz-adv-x="489" 
d="M534 0h-243v4h61l-172 225v-225h61v-4h-222v4h61v727h-61v4h161v-500l159 145q37 34 32 39q-3 3 -20 3h-45v4h148v-4h-31q-19 0 -34.5 -7.5t-44.5 -34.5l-98 -90l220 -286h68v-4zM307 -119q0 -45 -39 -107.5t-85 -77.5l-1 4q19 6 33 18q39 33 39 68t-37 62q-25 17 -25 48
q0 24 16.5 41.5t39.5 17.5q59 0 59 -74z" />
    <glyph glyph-name="kgreenlandic" unicode="&#x138;" horiz-adv-x="489" 
d="M534 0h-243v4h61l-172 208v-208h61v-4h-222v4h61v418h-61v4h161v-208l157 162q37 34 28 39q-4 3 -21 3h-38v4h148v-4h-31q-38 0 -79 -42l-100 -105l222 -271h68v-4z" />
    <glyph glyph-name="Lacute" unicode="&#x139;" horiz-adv-x="590" 
d="M572 0h-535v4h90v659h-90v4h310v-4h-84h-6v-659h102q100 0 154.5 68.5t54.5 151.5h4v-224zM152 729l144 154q20 23 42 23q17 0 28.5 -12t11.5 -28q0 -21 -21 -32l-204 -107z" />
    <glyph glyph-name="lacute" unicode="&#x13a;" horiz-adv-x="250" 
d="M242 0h-223v4h61v727h-61v4h161v-731h62v-4zM33 778l144 154q20 23 42 23q17 0 28.5 -12t11.5 -28q0 -21 -21 -32l-204 -107z" />
    <glyph glyph-name="Lcommaaccent" unicode="&#x13b;" horiz-adv-x="590" 
d="M572 0h-535v4h90v659h-90v4h310v-4h-84h-6v-659h102q100 0 154.5 68.5t54.5 151.5h4v-224zM377 -119q0 -45 -39 -107.5t-85 -77.5l-1 4q19 6 33 18q39 33 39 68t-37 62q-25 17 -25 48q0 24 16.5 41.5t39.5 17.5q59 0 59 -74z" />
    <glyph glyph-name="lcommaaccent" unicode="&#x13c;" horiz-adv-x="250" 
d="M242 0h-223v4h61v727h-61v4h161v-731h62v-4zM188 -119q0 -45 -39 -107.5t-85 -77.5l-1 4q19 6 33 18q39 33 39 68t-37 62q-25 17 -25 48q0 24 16.5 41.5t39.5 17.5q59 0 59 -74z" />
    <glyph glyph-name="Lcaron" unicode="&#x13d;" horiz-adv-x="590" 
d="M572 0h-535v4h90v659h-90v4h310v-4h-84h-6v-659h102q100 0 154.5 68.5t54.5 151.5h4v-224zM515 665q0 -45 -39 -107.5t-85 -77.5l-1 4q19 6 33 18q39 33 39 68t-37 62q-25 17 -25 48q0 24 16.5 41.5t39.5 17.5q59 0 59 -74z" />
    <glyph glyph-name="lcaron" unicode="&#x13e;" horiz-adv-x="363" 
d="M242 0h-223v4h61v727h-61v4h161v-731h62v-4zM363 665q0 -45 -39 -107.5t-85 -77.5l-1 4q19 6 33 18q39 33 39 68t-37 62q-25 17 -25 48q0 24 16.5 41.5t39.5 17.5q59 0 59 -74z" />
    <glyph glyph-name="Ldot" unicode="&#x13f;" horiz-adv-x="590" 
d="M572 0h-535v4h90v659h-90v4h310v-4h-84h-6v-659h102q100 0 154.5 68.5t54.5 151.5h4v-224zM527 375q0 -22 -14.5 -37.5t-35.5 -15.5t-36 15.5t-15 37.5t15 37.5t36 15.5t35.5 -15.5t14.5 -37.5z" />
    <glyph glyph-name="ldot" unicode="&#x140;" horiz-adv-x="334" 
d="M242 0h-223v4h61v727h-61v4h161v-731h62v-4zM337 375q0 -22 -14.5 -37.5t-35.5 -15.5t-36 15.5t-15 37.5t15 37.5t36 15.5t35.5 -15.5t14.5 -37.5z" />
    <glyph glyph-name="Lslash" unicode="&#x141;" horiz-adv-x="590" 
d="M35 246l92 53v364h-90v4h310v-4h-90v-289l114 66l2 -4l-116 -67v-365h102q100 0 154.5 68.5t54.5 151.5h4v-224h-535v4h90v289l-89 -51z" />
    <glyph glyph-name="lslash" unicode="&#x142;" horiz-adv-x="250" 
d="M4 213l76 76v442h-61v4h161v-346l62 62l4 -2l-66 -66v-379h62v-4h-223v4h61v279l-72 -72z" />
    <glyph glyph-name="Nacute" unicode="&#x143;" horiz-adv-x="700" 
d="M123 50v613h-91v4h240l306 -462v412q0 28 -6.5 37t-18.5 9h-66v4h186v-4h-68q-12 0 -17.5 -9t-5.5 -37v-629h-5l-450 670v-608q0 -28 5.5 -37t17.5 -9h68v-4h-186v4h66q12 0 18.5 9t6.5 37zM277 729l144 154q20 23 42 23q17 0 28.5 -12t11.5 -28q0 -21 -21 -32l-204 -107
z" />
    <glyph glyph-name="nacute" unicode="&#x144;" horiz-adv-x="528" 
d="M519 0h-223v4h62v325q0 50 -18.5 76t-46.5 26q-87 0 -113 -84v-343h61v-4h-222v4h61v418h-61v4h161v-69q13 39 44.5 58.5t68.5 19.5q77 0 120.5 -44t43.5 -123v-264h62v-4zM171 508l144 154q20 23 42 23q17 0 28.5 -12t11.5 -28q0 -21 -21 -32l-204 -107z" />
    <glyph glyph-name="Ncommaaccent" unicode="&#x145;" horiz-adv-x="700" 
d="M123 50v613h-91v4h240l306 -462v412q0 28 -6.5 37t-18.5 9h-66v4h186v-4h-68q-12 0 -17.5 -9t-5.5 -37v-629h-5l-450 670v-608q0 -28 5.5 -37t17.5 -9h68v-4h-186v4h66q12 0 18.5 9t6.5 37zM412 -119q0 -45 -39 -107.5t-85 -77.5l-1 4q19 6 33 18q39 33 39 68t-37 62
q-25 17 -25 48q0 24 16.5 41.5t39.5 17.5q59 0 59 -74z" />
    <glyph glyph-name="ncommaaccent" unicode="&#x146;" horiz-adv-x="528" 
d="M519 0h-223v4h62v325q0 50 -18.5 76t-46.5 26q-87 0 -113 -84v-343h61v-4h-222v4h61v418h-61v4h161v-69q13 39 44.5 58.5t68.5 19.5q77 0 120.5 -44t43.5 -123v-264h62v-4zM326 -119q0 -45 -39 -107.5t-85 -77.5l-1 4q19 6 33 18q39 33 39 68t-37 62q-25 17 -25 48
q0 24 16.5 41.5t39.5 17.5q59 0 59 -74z" />
    <glyph glyph-name="Ncaron" unicode="&#x147;" horiz-adv-x="700" 
d="M123 50v613h-91v4h240l306 -462v412q0 28 -6.5 37t-18.5 9h-66v4h186v-4h-68q-12 0 -17.5 -9t-5.5 -37v-629h-5l-450 670v-608q0 -28 5.5 -37t17.5 -9h68v-4h-186v4h66q12 0 18.5 9t6.5 37zM221 911l1 2l127 -79l127 79l2 -2q-84 -97 -128 -183h-2q-46 88 -127 183z" />
    <glyph glyph-name="ncaron" unicode="&#x148;" horiz-adv-x="528" 
d="M519 0h-223v4h62v325q0 50 -18.5 76t-46.5 26q-87 0 -113 -84v-343h61v-4h-222v4h61v418h-61v4h161v-69q13 39 44.5 58.5t68.5 19.5q77 0 120.5 -44t43.5 -123v-264h62v-4zM135 690l1 2l127 -79l127 79l2 -2q-84 -97 -128 -183h-2q-46 88 -127 183z" />
    <glyph glyph-name="napostrophe" unicode="&#x149;" horiz-adv-x="580" 
d="M571 0h-223v4h62v325q0 50 -18.5 76t-46.5 26q-87 0 -113 -84v-343h61v-4h-222v4h61v418h-61v4h161v-69q13 39 44.5 58.5t68.5 19.5q77 0 120.5 -44t43.5 -123v-264h62v-4zM115 600q0 -45 -39 -107.5t-85 -77.5l-1 4q19 6 33 18q39 33 39 68t-37 62q-25 17 -25 48
q0 24 16.5 41.5t39.5 17.5q59 0 59 -74z" />
    <glyph glyph-name="Omacron" unicode="&#x14c;" horiz-adv-x="720" 
d="M673 333q0 -145 -92 -247t-222 -102q-129 0 -220.5 102t-91.5 247q0 143 89.5 246.5t222.5 103.5q131 0 222.5 -102.5t91.5 -247.5zM532 333q0 244 -66 310q-35 36 -107 36q-70 0 -105 -36q-66 -66 -66 -310q0 -139 15 -206t51 -103q35 -36 105 -36q72 0 107 36
q36 36 51 103t15 206zM220 783v41h280v-41h-280z" />
    <glyph glyph-name="omacron" unicode="&#x14d;" horiz-adv-x="497" 
d="M457 213q0 -92 -61 -157t-148 -65q-86 0 -147 65t-61 157t61 157t147 65q87 0 148 -65t61 -157zM352 213q0 155 -39 195q-23 23 -65 23q-41 0 -64 -23q-39 -40 -39 -195q0 -88 9 -130.5t30 -64.5q23 -23 64 -23q42 0 65 23q21 22 30 64.5t9 130.5zM108 562v41h280v-41
h-280z" />
    <glyph glyph-name="Obreve" unicode="&#x14e;" horiz-adv-x="720" 
d="M673 333q0 -145 -92 -247t-222 -102q-129 0 -220.5 102t-91.5 247q0 143 89.5 246.5t222.5 103.5q131 0 222.5 -102.5t91.5 -247.5zM532 333q0 244 -66 310q-35 36 -107 36q-70 0 -105 -36q-66 -66 -66 -310q0 -139 15 -206t51 -103q35 -36 105 -36q72 0 107 36
q36 36 51 103t15 206zM500 895q0 -59 -33.5 -107t-106.5 -48t-106.5 48t-33.5 107q0 1 2 1t2 -1q0 -34 33 -63.5t103 -29.5t103 29.5t33 63.5q0 1 2 1t2 -1z" />
    <glyph glyph-name="obreve" unicode="&#x14f;" horiz-adv-x="497" 
d="M457 213q0 -92 -61 -157t-148 -65q-86 0 -147 65t-61 157t61 157t147 65q87 0 148 -65t61 -157zM352 213q0 155 -39 195q-23 23 -65 23q-41 0 -64 -23q-39 -40 -39 -195q0 -88 9 -130.5t30 -64.5q23 -23 64 -23q42 0 65 23q21 22 30 64.5t9 130.5zM388 674
q0 -59 -33.5 -107t-106.5 -48t-106.5 48t-33.5 107q0 2 2 2t2 -2q0 -34 33 -63.5t103 -29.5t103 29.5t33 63.5q0 2 2 2t2 -2z" />
    <glyph glyph-name="Ohungarumlaut" unicode="&#x150;" horiz-adv-x="720" 
d="M673 333q0 -145 -92 -247t-222 -102q-129 0 -220.5 102t-91.5 247q0 143 89.5 246.5t222.5 103.5q131 0 222.5 -102.5t91.5 -247.5zM532 333q0 244 -66 310q-35 36 -107 36q-70 0 -105 -36q-66 -66 -66 -310q0 -139 15 -206t51 -103q35 -36 105 -36q72 0 107 36
q36 36 51 103t15 206zM220 729l144 154q20 23 42 23q17 0 28.5 -12t11.5 -28q0 -21 -21 -32l-204 -107zM350 729l144 154q20 23 42 23q17 0 28.5 -12t11.5 -28q0 -21 -21 -32l-204 -107z" />
    <glyph glyph-name="ohungarumlaut" unicode="&#x151;" horiz-adv-x="497" 
d="M457 213q0 -92 -61 -157t-148 -65q-86 0 -147 65t-61 157t61 157t147 65q87 0 148 -65t61 -157zM352 213q0 155 -39 195q-23 23 -65 23q-41 0 -64 -23q-39 -40 -39 -195q0 -88 9 -130.5t30 -64.5q23 -23 64 -23q42 0 65 23q21 22 30 64.5t9 130.5zM109 508l144 154
q20 23 42 23q17 0 28.5 -12t11.5 -28q0 -21 -21 -32l-204 -107zM239 508l144 154q20 23 42 23q17 0 28.5 -12t11.5 -28q0 -21 -21 -32l-204 -107z" />
    <glyph glyph-name="OE" unicode="&#x152;" horiz-adv-x="949" 
d="M927 0h-568q-129 0 -220.5 97.5t-91.5 235.5q0 137 89.5 235.5t222.5 98.5h517v-197h-4q0 73 -50.5 133t-134.5 60h-101v-319h25q56 0 94 38.5t38 88.5h4v-257h-4q0 50 -38 88.5t-94 38.5h-25v-337h104q110 0 171.5 65t61.5 146h4v-215zM456 4v659h-97q-69 0 -106 -34
q-65 -64 -65 -296q0 -132 15 -196t50 -98q36 -35 106 -35h97z" />
    <glyph glyph-name="oe" unicode="&#x153;" horiz-adv-x="770" 
d="M736 241v-3h-286v-25q0 -88 9 -130.5t30 -64.5q23 -23 65 -23q52 0 96 25.5t71 67.5l4 -2q-29 -44 -74 -69.5t-97 -25.5q-97 0 -153 81q-56 -81 -153 -81q-86 0 -147 65t-61 157t61 157t147 65q97 0 153 -81q56 81 153 81q44 0 80.5 -19.5t57.5 -49.5t32.5 -62.5
t11.5 -62.5zM642 242q-3 129 -34 166q-19 23 -54 23q-42 0 -65 -23q-36 -37 -39 -166h192zM352 213q0 155 -39 195q-23 23 -65 23q-41 0 -64 -23q-39 -40 -39 -195q0 -88 9 -130.5t30 -64.5q23 -23 64 -23q42 0 65 23q21 22 30 64.5t9 130.5z" />
    <glyph glyph-name="Racute" unicode="&#x154;" horiz-adv-x="661" 
d="M715 27q-33 -33 -89 -33q-68 0 -116 44.5t-48 138.5v51q0 117 -141 117h-65v-341h91v-4h-310v4h90v659h-90v4h298q105 0 168 -46.5t63 -117.5q0 -66 -55.5 -111t-143.5 -45q118 0 173 -51t55 -131v-75q0 -37 16 -62.5t42 -25.5q31 0 59 28zM436 500q0 88 -29 125.5
t-96 37.5h-55v-314h65q69 0 92 30.5t23 120.5zM238 729l144 154q20 23 42 23q17 0 28.5 -12t11.5 -28q0 -21 -21 -32l-204 -107z" />
    <glyph glyph-name="racute" unicode="&#x155;" horiz-adv-x="386" 
d="M362 361q0 -20 -15.5 -35.5t-36.5 -15.5q-23 0 -36.5 11t-13.5 27q0 13 7 24.5t7 19.5q0 14 -8.5 22t-20.5 8q-42 0 -65 -77v-341h61v-4h-222v4h61v418h-61v4h161v-69q25 78 92 78q37 0 63.5 -20t26.5 -54zM100 508l144 154q20 23 42 23q17 0 28.5 -12t11.5 -28
q0 -21 -21 -32l-204 -107z" />
    <glyph glyph-name="Rcommaaccent" unicode="&#x156;" horiz-adv-x="661" 
d="M715 27q-33 -33 -89 -33q-68 0 -116 44.5t-48 138.5v51q0 117 -141 117h-65v-341h91v-4h-310v4h90v659h-90v4h298q105 0 168 -46.5t63 -117.5q0 -66 -55.5 -111t-143.5 -45q118 0 173 -51t55 -131v-75q0 -37 16 -62.5t42 -25.5q31 0 59 28zM436 500q0 88 -29 125.5
t-96 37.5h-55v-314h65q69 0 92 30.5t23 120.5zM403 -119q0 -45 -39 -107.5t-85 -77.5l-1 4q19 6 33 18q39 33 39 68t-37 62q-25 17 -25 48q0 24 16.5 41.5t39.5 17.5q59 0 59 -74z" />
    <glyph glyph-name="rcommaaccent" unicode="&#x157;" horiz-adv-x="386" 
d="M362 361q0 -20 -15.5 -35.5t-36.5 -15.5q-23 0 -36.5 11t-13.5 27q0 13 7 24.5t7 19.5q0 14 -8.5 22t-20.5 8q-42 0 -65 -77v-341h61v-4h-222v4h61v418h-61v4h161v-69q25 78 92 78q37 0 63.5 -20t26.5 -54zM191 -119q0 -45 -39 -107.5t-85 -77.5l-1 4q19 6 33 18
q39 33 39 68t-37 62q-25 17 -25 48q0 24 16.5 41.5t39.5 17.5q59 0 59 -74z" />
    <glyph glyph-name="Rcaron" unicode="&#x158;" horiz-adv-x="661" 
d="M715 27q-33 -33 -89 -33q-68 0 -116 44.5t-48 138.5v51q0 117 -141 117h-65v-341h91v-4h-310v4h90v659h-90v4h298q105 0 168 -46.5t63 -117.5q0 -66 -55.5 -111t-143.5 -45q118 0 173 -51t55 -131v-75q0 -37 16 -62.5t42 -25.5q31 0 59 28zM436 500q0 88 -29 125.5
t-96 37.5h-55v-314h65q69 0 92 30.5t23 120.5zM202 911l1 2l127 -79l127 79l2 -2q-84 -97 -128 -183h-2q-46 88 -127 183z" />
    <glyph glyph-name="rcaron" unicode="&#x159;" horiz-adv-x="386" 
d="M362 361q0 -20 -15.5 -35.5t-36.5 -15.5q-23 0 -36.5 11t-13.5 27q0 13 7 24.5t7 19.5q0 14 -8.5 22t-20.5 8q-42 0 -65 -77v-341h61v-4h-222v4h61v418h-61v4h161v-69q25 78 92 78q37 0 63.5 -20t26.5 -54zM64 690l1 2l127 -79l127 79l2 -2q-84 -97 -128 -183h-2
q-46 88 -127 183z" />
    <glyph glyph-name="Sacute" unicode="&#x15a;" horiz-adv-x="533" 
d="M507 206q0 -83 -64 -152.5t-169 -69.5q-38 0 -92 19.5t-73 19.5q-20 0 -35.5 -11t-17.5 -25h-3v225h4q0 -40 27 -91.5t79 -92.5t110 -41q79 0 123 36.5t44 86.5q0 65 -43 98t-163 76q-50 18 -83 39t-56 60t-23 92q0 88 55.5 148t129.5 60q24 0 66.5 -12.5t65.5 -12.5
q35 0 39 22h4v-174h-4q0 67 -53 120t-117 53q-56 0 -91 -32.5t-35 -81.5q0 -50 41 -87.5t132 -69.5q105 -37 153.5 -79.5t48.5 -122.5zM194 729l144 154q20 23 42 23q17 0 28.5 -12t11.5 -28q0 -21 -21 -32l-204 -107z" />
    <glyph glyph-name="sacute" unicode="&#x15b;" horiz-adv-x="367" 
d="M344 137q0 -63 -39 -104.5t-108 -41.5q-30 0 -61.5 13.5t-48.5 13.5q-12 0 -22.5 -6.5t-12.5 -12.5h-4v154h4q-2 -57 41 -107.5t104 -50.5q91 0 91 85q0 37 -28 60t-88 40q-51 14 -83.5 46t-32.5 73q0 63 36.5 99.5t85.5 36.5q15 0 37 -5t45 -5q21 0 21 14h4v-127h-4
q0 50 -32.5 84.5t-70.5 34.5q-73 0 -73 -69q0 -36 28 -59t87 -39q124 -36 124 -127zM101 508l144 154q20 23 42 23q17 0 28.5 -12t11.5 -28q0 -21 -21 -32l-204 -107z" />
    <glyph glyph-name="Scircumflex" unicode="&#x15c;" horiz-adv-x="533" 
d="M507 206q0 -83 -64 -152.5t-169 -69.5q-38 0 -92 19.5t-73 19.5q-20 0 -35.5 -11t-17.5 -25h-3v225h4q0 -40 27 -91.5t79 -92.5t110 -41q79 0 123 36.5t44 86.5q0 65 -43 98t-163 76q-50 18 -83 39t-56 60t-23 92q0 88 55.5 148t129.5 60q24 0 66.5 -12.5t65.5 -12.5
q35 0 39 22h4v-174h-4q0 67 -53 120t-117 53q-56 0 -91 -32.5t-35 -81.5q0 -50 41 -87.5t132 -69.5q105 -37 153.5 -79.5t48.5 -122.5zM139 728l-1 2q81 95 127 183h2q44 -86 128 -183l-2 -2l-127 79z" />
    <glyph glyph-name="scircumflex" unicode="&#x15d;" horiz-adv-x="367" 
d="M344 137q0 -63 -39 -104.5t-108 -41.5q-30 0 -61.5 13.5t-48.5 13.5q-12 0 -22.5 -6.5t-12.5 -12.5h-4v154h4q-2 -57 41 -107.5t104 -50.5q91 0 91 85q0 37 -28 60t-88 40q-51 14 -83.5 46t-32.5 73q0 63 36.5 99.5t85.5 36.5q15 0 37 -5t45 -5q21 0 21 14h4v-127h-4
q0 50 -32.5 84.5t-70.5 34.5q-73 0 -73 -69q0 -36 28 -59t87 -39q124 -36 124 -127zM56 507l-1 2q81 95 127 183h2q44 -86 128 -183l-2 -2l-127 79z" />
    <glyph glyph-name="Scedilla" unicode="&#x15e;" horiz-adv-x="533" 
d="M507 206q0 -83 -64 -152.5t-169 -69.5h-10q-11 -17 -11 -31q0 -12 15 -22t32.5 -17t32.5 -24t15 -41q0 -34 -23.5 -52t-63.5 -18q-35 0 -56 15t-21 36q0 12 7.5 20.5t19.5 8.5q10 0 17 -6t7 -17q0 -10 -8 -17t-8 -12q0 -10 12.5 -17t29.5 -7q35 0 54 14t19 36
q0 9 -24.5 17.5t-49 26t-24.5 46.5t22 61q-32 3 -80.5 21t-68.5 18t-35.5 -11t-17.5 -25h-3v225h3q0 -66 65.5 -145.5t151.5 -79.5q79 0 123 36.5t44 86.5q0 65 -43 98t-163 76q-50 18 -83 39t-56 60t-23 92q0 88 55.5 148t129.5 60q24 0 66.5 -12.5t65.5 -12.5q35 0 39 22
h4v-174h-4q0 67 -53 120t-117 53q-56 0 -91 -32.5t-35 -81.5q0 -50 41 -87.5t132 -69.5q105 -37 153.5 -79.5t48.5 -122.5z" />
    <glyph glyph-name="scedilla" unicode="&#x15f;" horiz-adv-x="367" 
d="M344 137q0 -63 -39 -104.5t-108 -41.5h-11q-15 -23 -15 -38q0 -12 15 -22t32.5 -17t32.5 -24t15 -41q0 -34 -23.5 -52t-63.5 -18q-35 0 -56 15t-21 36q0 12 7.5 20.5t19.5 8.5q10 0 17 -6t7 -17q0 -10 -8 -17t-8 -12q0 -10 12.5 -17t29.5 -7q35 0 54 14t19 36
q0 9 -24.5 17.5t-49 26t-24.5 46.5q0 37 28 69q-22 2 -52.5 14t-47.5 12q-12 0 -22.5 -6.5t-12.5 -12.5h-4l5 154h4q-2 -57 41 -107.5t104 -50.5q91 0 91 85q0 37 -28 60t-88 40q-51 14 -83.5 46t-32.5 73q0 63 36.5 99.5t85.5 36.5q15 0 37 -5t45 -5q21 0 21 14h4v-127h-4
q0 50 -32.5 84.5t-70.5 34.5q-73 0 -73 -69q0 -36 28 -59t87 -39q124 -36 124 -127z" />
    <glyph glyph-name="Scaron" unicode="&#x160;" horiz-adv-x="533" 
d="M507 206q0 -83 -64 -152.5t-169 -69.5q-38 0 -92 19.5t-73 19.5q-20 0 -35.5 -11t-17.5 -25h-3v225h4q0 -40 27 -91.5t79 -92.5t110 -41q79 0 123 36.5t44 86.5q0 65 -43 98t-163 76q-50 18 -83 39t-56 60t-23 92q0 88 55.5 148t129.5 60q24 0 66.5 -12.5t65.5 -12.5
q35 0 39 22h4v-174h-4q0 67 -53 120t-117 53q-56 0 -91 -32.5t-35 -81.5q0 -50 41 -87.5t132 -69.5q105 -37 153.5 -79.5t48.5 -122.5zM138 911l1 2l127 -79l127 79l2 -2q-84 -97 -128 -183h-2q-46 88 -127 183z" />
    <glyph glyph-name="scaron" unicode="&#x161;" horiz-adv-x="367" 
d="M344 137q0 -63 -39 -104.5t-108 -41.5q-30 0 -61.5 13.5t-48.5 13.5q-12 0 -22.5 -6.5t-12.5 -12.5h-4v154h4q-2 -57 41 -107.5t104 -50.5q91 0 91 85q0 37 -28 60t-88 40q-51 14 -83.5 46t-32.5 73q0 63 36.5 99.5t85.5 36.5q15 0 37 -5t45 -5q21 0 21 14h4v-127h-4
q0 50 -32.5 84.5t-70.5 34.5q-73 0 -73 -69q0 -36 28 -59t87 -39q124 -36 124 -127zM55 690l1 2l127 -79l127 79l2 -2q-84 -97 -128 -183h-2q-46 88 -127 183z" />
    <glyph glyph-name="Tcommaaccent" unicode="&#x162;" horiz-adv-x="629" 
d="M610 442h-4q0 89 -57 155t-156 66h-16v-659h91v-4h-311v4h90v659h-16q-98 0 -153 -66t-55 -155h-4v225h591v-225zM377 -119q0 -45 -39 -107.5t-85 -77.5l-1 4q19 6 33 18q39 33 39 68t-37 62q-25 17 -25 48q0 24 16.5 41.5t39.5 17.5q59 0 59 -74z" />
    <glyph glyph-name="tcommaaccent" unicode="&#x163;" horiz-adv-x="304" 
d="M288 79q-22 -88 -106 -88q-48 0 -70 24t-22 73v334h-76v4h76v106q32 3 60 20.5t35 39.5h4v-166h90v-4h-90v-387q0 -29 29 -29q21 0 39.5 19.5t27.5 54.5zM215 -119q0 -45 -39 -107.5t-85 -77.5l-1 4q19 6 33 18q39 33 39 68t-37 62q-25 17 -25 48q0 24 16.5 41.5
t39.5 17.5q59 0 59 -74z" />
    <glyph glyph-name="Tcaron" unicode="&#x164;" horiz-adv-x="629" 
d="M610 442h-4q0 89 -57 155t-156 66h-16v-659h91v-4h-311v4h90v659h-16q-98 0 -153 -66t-55 -155h-4v225h591v-225zM186 911l1 2l127 -79l127 79l2 -2q-84 -97 -128 -183h-2q-46 88 -127 183z" />
    <glyph glyph-name="tcaron" unicode="&#x165;" horiz-adv-x="373" 
d="M288 79q-22 -88 -106 -88q-48 0 -70 24t-22 73v334h-76v4h76v106q32 3 60 20.5t35 39.5h4v-166h90v-4h-90v-387q0 -29 29 -29q21 0 39.5 19.5t27.5 54.5zM373 665q0 -45 -39 -107.5t-85 -77.5l-1 4q19 6 33 18q39 33 39 68t-37 62q-25 17 -25 48q0 24 16.5 41.5
t39.5 17.5q59 0 59 -74z" />
    <glyph glyph-name="Tbar" unicode="&#x166;" horiz-adv-x="629" 
d="M112 361h135v302h-16q-98 0 -153 -66t-55 -155h-4v225h591v-225h-4q0 89 -57 155t-156 66h-16v-302h137v-4h-137v-353h91v-4h-311v4h90v353h-135v4z" />
    <glyph glyph-name="tbar" unicode="&#x167;" horiz-adv-x="304" 
d="M14 286h76v136h-76v4h76v106q32 3 60 20.5t35 39.5h4v-166h90v-4h-90v-136h90v-4h-90v-247q0 -29 29 -29q21 0 39.5 19.5t27.5 54.5l3 -1q-22 -88 -106 -88q-48 0 -70 24t-22 73v194h-76v4z" />
    <glyph glyph-name="Utilde" unicode="&#x168;" horiz-adv-x="686" 
d="M582 198v419q0 28 -6.5 37t-18.5 9h-66v4h186v-4h-67q-12 0 -17.5 -9t-5.5 -37v-419q0 -101 -57 -157.5t-174 -56.5q-114 0 -181 51.5t-67 152.5v475h-90v4h310v-4h-91v-475q0 -95 32 -144t111 -49q102 0 152 54.5t50 148.5zM539 871h3q-2 -15 -8 -34t-29 -43.5
t-57 -24.5q-27 0 -75 21t-65 21q-24 0 -40.5 -14.5t-20.5 -27.5h-3q8 45 33.5 72t55.5 27q27 0 75 -19t69 -19q23 0 40.5 15t21.5 26z" />
    <glyph glyph-name="utilde" unicode="&#x169;" horiz-adv-x="518" 
d="M509 0h-161v70q-13 -40 -44.5 -59t-69.5 -19q-77 0 -120.5 40.5t-43.5 118.5v271h-61v4h161v-329q0 -50 18.5 -75.5t45.5 -25.5q87 0 114 83v343h-62v4h161v-422h62v-4zM405 650h3q-2 -15 -8 -34t-29 -43.5t-57 -24.5q-27 0 -75 21t-65 21q-24 0 -40.5 -14.5t-20.5 -27.5
h-3q8 45 33.5 72t55.5 27q27 0 75 -19t69 -19q23 0 40.5 15t21.5 26z" />
    <glyph glyph-name="Umacron" unicode="&#x16a;" horiz-adv-x="686" 
d="M582 198v419q0 28 -6.5 37t-18.5 9h-66v4h186v-4h-67q-12 0 -17.5 -9t-5.5 -37v-419q0 -101 -57 -157.5t-174 -56.5q-114 0 -181 51.5t-67 152.5v475h-90v4h310v-4h-91v-475q0 -95 32 -144t111 -49q102 0 152 54.5t50 148.5zM253 783v41h280v-41h-280z" />
    <glyph glyph-name="umacron" unicode="&#x16b;" horiz-adv-x="518" 
d="M509 0h-161v70q-13 -40 -44.5 -59t-69.5 -19q-77 0 -120.5 40.5t-43.5 118.5v271h-61v4h161v-329q0 -50 18.5 -75.5t45.5 -25.5q87 0 114 83v343h-62v4h161v-422h62v-4zM119 562v41h280v-41h-280z" />
    <glyph glyph-name="Ubreve" unicode="&#x16c;" horiz-adv-x="686" 
d="M582 198v419q0 28 -6.5 37t-18.5 9h-66v4h186v-4h-67q-12 0 -17.5 -9t-5.5 -37v-419q0 -101 -57 -157.5t-174 -56.5q-114 0 -181 51.5t-67 152.5v475h-90v4h310v-4h-91v-475q0 -95 32 -144t111 -49q102 0 152 54.5t50 148.5zM533 895q0 -59 -33.5 -107t-106.5 -48
t-106.5 48t-33.5 107q0 1 2 1t2 -1q0 -34 33 -63.5t103 -29.5t103 29.5t33 63.5q0 1 2 1t2 -1z" />
    <glyph glyph-name="ubreve" unicode="&#x16d;" horiz-adv-x="518" 
d="M509 0h-161v70q-13 -40 -44.5 -59t-69.5 -19q-77 0 -120.5 40.5t-43.5 118.5v271h-61v4h161v-329q0 -50 18.5 -75.5t45.5 -25.5q87 0 114 83v343h-62v4h161v-422h62v-4zM399 674q0 -59 -33.5 -107t-106.5 -48t-106.5 48t-33.5 107q0 2 2 2t2 -2q0 -34 33 -63.5t103 -29.5
t103 29.5t33 63.5q0 2 2 2t2 -2z" />
    <glyph glyph-name="Uring" unicode="&#x16e;" horiz-adv-x="686" 
d="M582 198v419q0 28 -6.5 37t-18.5 9h-66v4h186v-4h-67q-12 0 -17.5 -9t-5.5 -37v-419q0 -101 -57 -157.5t-174 -56.5q-114 0 -181 51.5t-67 152.5v475h-90v4h310v-4h-91v-475q0 -95 32 -144t111 -49q102 0 152 54.5t50 148.5zM393 922q29 0 62 -23.5t33 -67.5
q0 -36 -29.5 -63t-65.5 -27t-65.5 27t-29.5 63q0 44 33 67.5t62 23.5zM393 919q-15 0 -24.5 -6t-13 -21t-4.5 -26.5t-1 -35.5q0 -50 9.5 -68t33.5 -18t33.5 18t9.5 68q0 24 -1 35.5t-4.5 26.5t-13 21t-24.5 6z" />
    <glyph glyph-name="uring" unicode="&#x16f;" horiz-adv-x="518" 
d="M509 0h-161v70q-13 -40 -44.5 -59t-69.5 -19q-77 0 -120.5 40.5t-43.5 118.5v271h-61v4h161v-329q0 -50 18.5 -75.5t45.5 -25.5q87 0 114 83v343h-62v4h161v-422h62v-4zM259 701q29 0 62 -23.5t33 -67.5q0 -36 -29.5 -63t-65.5 -27t-65.5 27t-29.5 63q0 44 33 67.5
t62 23.5zM259 698q-15 0 -24.5 -6t-13 -21t-4.5 -26.5t-1 -35.5q0 -50 9.5 -68t33.5 -18t33.5 18t9.5 68q0 24 -1 35.5t-4.5 26.5t-13 21t-24.5 6z" />
    <glyph glyph-name="Uhungarumlaut" unicode="&#x170;" horiz-adv-x="686" 
d="M582 198v419q0 28 -6.5 37t-18.5 9h-66v4h186v-4h-67q-12 0 -17.5 -9t-5.5 -37v-419q0 -101 -57 -157.5t-174 -56.5q-114 0 -181 51.5t-67 152.5v475h-90v4h310v-4h-91v-475q0 -95 32 -144t111 -49q102 0 152 54.5t50 148.5zM273 729l144 154q20 23 42 23q17 0 28.5 -12
t11.5 -28q0 -21 -21 -32l-204 -107zM403 729l144 154q20 23 42 23q17 0 28.5 -12t11.5 -28q0 -21 -21 -32l-204 -107z" />
    <glyph glyph-name="uhungarumlaut" unicode="&#x171;" horiz-adv-x="518" 
d="M509 0h-161v70q-13 -40 -44.5 -59t-69.5 -19q-77 0 -120.5 40.5t-43.5 118.5v271h-61v4h161v-329q0 -50 18.5 -75.5t45.5 -25.5q87 0 114 83v343h-62v4h161v-422h62v-4zM119 508l144 154q20 23 42 23q17 0 28.5 -12t11.5 -28q0 -21 -21 -32l-204 -107zM249 508l144 154
q20 23 42 23q17 0 28.5 -12t11.5 -28q0 -21 -21 -32l-204 -107z" />
    <glyph glyph-name="Uogonek" unicode="&#x172;" horiz-adv-x="686" 
d="M582 198v419q0 28 -6.5 37t-18.5 9h-66v4h186v-4h-67q-12 0 -17.5 -9t-5.5 -37v-419q0 -101 -57 -157.5t-174 -56.5q-114 0 -181 51.5t-67 152.5v475h-90v4h310v-4h-91v-475q0 -95 32 -144t111 -49q102 0 152 54.5t50 148.5zM492 -161l2 -2q-46 -37 -91 -37
q-36 0 -60.5 16.5t-24.5 49.5q0 40 35 71.5t101 62.5h8q-74 -53 -74 -127q0 -12 3 -23.5t15 -23t32 -11.5t54 24z" />
    <glyph glyph-name="uogonek" unicode="&#x173;" horiz-adv-x="518" 
d="M509 0h-161v70q-13 -40 -44.5 -59t-69.5 -19q-77 0 -120.5 40.5t-43.5 118.5v271h-61v4h161v-329q0 -50 18.5 -75.5t45.5 -25.5q87 0 114 83v343h-62v4h161v-422h62v-4zM507 -161l2 -2q-46 -37 -91 -37q-36 0 -60.5 16.5t-24.5 49.5q0 40 35 71.5t101 62.5h8
q-74 -53 -74 -127q0 -12 3 -23.5t15 -23t32 -11.5t54 24z" />
    <glyph glyph-name="Wcircumflex" unicode="&#x174;" horiz-adv-x="958" 
d="M1006 663h-69q-10 0 -17 -7t-16 -32l-221 -638h-5l-183 491l-171 -491h-5l-271 677h-91v4h323v-4h-94l197 -497l109 317l-67 180h-78v4h319v-4h-106l182 -499l159 465q12 34 -9 34h-76v4h190v-4zM371 728l-1 2q81 95 127 183h2q44 -86 128 -183l-2 -2l-127 79z" />
    <glyph glyph-name="wcircumflex" unicode="&#x175;" horiz-adv-x="667" 
d="M698 422h-37q-14 0 -22 -7t-17 -34l-136 -388h-6l-146 333l-117 -333h-6l-188 429h-55v4h217v-4h-55l130 -296l72 206l-40 90h-48v4h216v-4h-61l129 -296l90 254q15 42 -8 42h-40v4h128v-4zM226 507l-1 2q81 95 127 183h2q44 -86 128 -183l-2 -2l-127 79z" />
    <glyph glyph-name="Ycircumflex" unicode="&#x176;" horiz-adv-x="630" 
d="M654 663h-60q-24 0 -42 -39l-150 -317v-303h91v-4h-310v4h90v287l-195 372h-93v4h342v-4h-108l181 -349l148 310q8 17 9 26t-2.5 11t-10.5 2h-80v4h190v-4zM237 728l-1 2q81 95 127 183h2q44 -86 128 -183l-2 -2l-127 79z" />
    <glyph glyph-name="ycircumflex" unicode="&#x177;" horiz-adv-x="415" 
d="M443 422h-41q-13 0 -19.5 -7.5t-16.5 -33.5l-227 -617q-17 -46 -34 -63.5t-47 -17.5q-31 0 -51 16t-20 45q0 25 15 42.5t36 17.5t32.5 -11t11.5 -28q0 -13 -10 -28t-10 -26q0 -15 17 -15q31 0 55 66l84 229l-196 431h-54v4h220v-4h-58l137 -299l94 257q7 18 6.5 28
t-4.5 12t-11 2h-37v4h128v-4zM110 507l-1 2q81 95 127 183h2q44 -86 128 -183l-2 -2l-127 79z" />
    <glyph glyph-name="Ydieresis" unicode="&#x178;" horiz-adv-x="630" 
d="M654 663h-60q-24 0 -42 -39l-150 -317v-303h91v-4h-310v4h90v287l-195 372h-93v4h342v-4h-108l181 -349l148 310q8 17 9 26t-2.5 11t-10.5 2h-80v4h190v-4zM324 806q0 -25 -17 -42.5t-42 -17.5q-23 0 -39 17.5t-16 42.5q0 23 16 39.5t39 16.5q25 0 42 -16.5t17 -39.5z
M324 806q0 -25 -17 -42.5t-42 -17.5q-23 0 -39 17.5t-16 42.5q0 23 16 39.5t39 16.5q25 0 42 -16.5t17 -39.5zM517 806q0 -25 -17 -42.5t-42 -17.5q-23 0 -39 17.5t-16 42.5q0 23 16 39.5t39 16.5q25 0 42 -16.5t17 -39.5q0 -25 -17 -42.5t-42 -17.5q-23 0 -39 17.5
t-16 42.5q0 23 16 39.5t39 16.5q25 0 42 -16.5t17 -39.5z" />
    <glyph glyph-name="Zacute" unicode="&#x179;" horiz-adv-x="606" 
d="M556 0h-508l370 663h-120q-92 0 -150 -67t-58 -154h-4v225h470l-369 -663h153q91 0 151.5 69.5t60.5 155.5h4v-229zM240 729l144 154q20 23 42 23q17 0 28.5 -12t11.5 -28q0 -21 -21 -32l-204 -107z" />
    <glyph glyph-name="zacute" unicode="&#x17a;" horiz-adv-x="421" 
d="M379 0h-359l250 422h-65q-70 0 -108 -37t-38 -96h-4v137h320l-248 -422h88q76 0 118 41.5t42 105.5h4v-151zM118 508l144 154q20 23 42 23q17 0 28.5 -12t11.5 -28q0 -21 -21 -32l-204 -107z" />
    <glyph glyph-name="Zdotaccent" unicode="&#x17b;" horiz-adv-x="606" 
d="M556 0h-508l370 663h-120q-92 0 -150 -67t-58 -154h-4v225h470l-369 -663h153q91 0 151.5 69.5t60.5 155.5h4v-229zM359 806q0 -25 -17 -42.5t-42 -17.5q-23 0 -39 17.5t-16 42.5q0 23 16 39.5t39 16.5q25 0 42 -16.5t17 -39.5q0 -25 -17 -42.5t-42 -17.5q-23 0 -39 17.5
t-16 42.5q0 23 16 39.5t39 16.5q25 0 42 -16.5t17 -39.5z" />
    <glyph glyph-name="zdotaccent" unicode="&#x17c;" horiz-adv-x="421" 
d="M379 0h-359l250 422h-65q-70 0 -108 -37t-38 -96h-4v137h320l-248 -422h88q76 0 118 41.5t42 105.5h4v-151zM261 594q0 -22 -14.5 -37.5t-35.5 -15.5t-36 15.5t-15 37.5t15 37.5t36 15.5t35.5 -15.5t14.5 -37.5z" />
    <glyph glyph-name="Zcaron" unicode="&#x17d;" horiz-adv-x="606" 
d="M556 0h-508l370 663h-120q-92 0 -150 -67t-58 -154h-4v225h470l-369 -663h153q91 0 151.5 69.5t60.5 155.5h4v-229zM174 891l1 2l127 -79l127 79l2 -2q-84 -97 -128 -183h-2q-46 88 -127 183z" />
    <glyph glyph-name="zcaron" unicode="&#x17e;" horiz-adv-x="421" 
d="M379 0h-359l250 422h-65q-70 0 -108 -37t-38 -96h-4v137h320l-248 -422h88q76 0 118 41.5t42 105.5h4v-151zM82 690l1 2l127 -79l127 79l2 -2q-84 -97 -128 -183h-2q-46 88 -127 183z" />
    <glyph glyph-name="florin" unicode="&#x192;" horiz-adv-x="415" 
d="M508 670q0 -21 -15 -36t-36 -15q-44 0 -44 38q0 11 8.5 23.5t8.5 27.5q0 17 -5.5 23.5t-21.5 6.5q-30 0 -54 -40t-38 -106.5t-22.5 -129.5t-12.5 -131h97v-4h-97l-1 -24q-5 -101 -22 -200.5t-49 -198.5t-88 -160t-129 -61q-42 0 -67 18.5t-25 55.5q0 20 15 35.5t36 15.5
q45 0 45 -38q0 -12 -8.5 -25t-8.5 -26q0 -17 5.5 -23.5t21.5 -6.5q78 0 113 149q24 103 43 406q4 65 5 79v4h-96v4h96q1 5 2 23q9 172 88 281t169 109q36 0 61.5 -20t25.5 -54z" />
    <glyph glyph-name="Aringacute" unicode="&#x1fa;" horiz-adv-x="632" 
d="M308 859q29 0 62 -23.5t33 -67.5q0 -35 -28 -61.5t-63 -28.5l262 -674h86v-4h-320v4h95l-81 227h-207l-70 -188q-8 -25 -5.5 -32t13.5 -7h71v-4h-178v4h57q13 0 21 7t17 32l233 635q-36 1 -64.5 28t-28.5 62q0 44 33 67.5t62 23.5zM352 235l-100 284l-104 -284h204z
M308 856q-15 0 -24.5 -6t-13 -21t-4.5 -26.5t-1 -35.5q0 -50 9.5 -68t33.5 -18t33.5 18t9.5 68q0 24 -1 35.5t-4.5 26.5t-13 21t-24.5 6zM243 859l144 154q20 23 42 23q17 0 28.5 -12t11.5 -28q0 -21 -21 -32l-204 -107z" />
    <glyph glyph-name="aringacute" unicode="&#x1fb;" horiz-adv-x="436" 
d="M437 31q-5 -15 -26 -27t-48 -12q-32 0 -56.5 18.5t-29.5 46.5q-20 -65 -104 -65q-55 0 -97 27t-42 78q0 34 15 60t38 39t43 19.5t38 8.5q83 8 97 18q7 5 7 12v76q0 102 -64 102q-62 0 -62 -46q0 -8 6 -22t6 -23q0 -16 -12 -26.5t-35 -10.5q-22 0 -33 14t-11 33
q0 31 39.5 58t101.5 27q78 0 121 -45t43 -136v-215q0 -34 26 -34q12 0 22 8.5t13 17.5zM272 70v171q-10 -7 -23.5 -10.5t-34 -6t-28.5 -4.5q-27 -5 -40.5 -31.5t-13.5 -91.5q0 -59 15.5 -78t43.5 -19q36 0 58.5 20.5t22.5 49.5zM218 671q29 0 62 -23.5t33 -67.5
q0 -36 -29.5 -63t-65.5 -27t-65.5 27t-29.5 63q0 44 33 67.5t62 23.5zM218 668q-15 0 -24.5 -6t-13 -21t-4.5 -26.5t-1 -35.5q0 -50 9.5 -68t33.5 -18t33.5 18t9.5 68q0 24 -1 35.5t-4.5 26.5t-13 21t-24.5 6zM105 668l144 154q20 23 42 23q17 0 28.5 -12t11.5 -28
q0 -21 -21 -32l-204 -107z" />
    <glyph glyph-name="AEacute" unicode="&#x1fc;" horiz-adv-x="900" 
d="M878 0h-561v4h91v275h-218l-133 -236q-19 -34 -14 -38q3 -1 9 -1h76v-4h-178v4h62q11 0 18.5 7t22.5 32l351 620h-87v4h510v-197h-4q0 73 -50 133t-134 60h-102v-319h25q56 0 94.5 38.5t38.5 88.5h4v-257h-4q0 50 -38.5 88.5t-94.5 38.5h-25v-337h105q110 0 171 65
t61 146h4v-215zM408 283v379l-216 -379h216zM447 729l144 154q20 23 42 23q17 0 28.5 -12t11.5 -28q0 -21 -21 -32l-204 -107z" />
    <glyph glyph-name="aeacute" unicode="&#x1fd;" horiz-adv-x="705" 
d="M671 241v-3h-285q-1 -8 -1 -25q0 -92 13.5 -141t34 -63t56.5 -14q52 0 96.5 25.5t71.5 67.5l3 -2q-28 -43 -73.5 -69t-97.5 -26q-62 0 -103 28.5t-51 73.5q-8 -39 -55.5 -70.5t-101.5 -31.5q-56 0 -100 27.5t-44 77.5q0 35 14.5 60.5t38 39t42.5 19.5t38 8q98 9 113 20
q5 5 6 10v76q0 102 -72 102q-68 0 -68 -45q0 -8 5.5 -23t5.5 -23q0 -16 -11.5 -26.5t-34.5 -10.5q-22 0 -33 14t-11 33q0 31 40.5 58t106.5 27q93 0 129 -67q40 67 146 67q85 0 133.5 -63.5t48.5 -130.5zM577 242q-2 106 -22 147.5t-66 41.5q-54 0 -77.5 -42t-25.5 -151
l-3 4h194zM286 108v132q-18 -11 -53 -16t-49 -11q-18 -8 -26.5 -15t-17 -32.5t-8.5 -69.5q0 -59 15 -80t42 -21q39 0 68 26.5t29 86.5zM295 508l144 154q20 23 42 23q17 0 28.5 -12t11.5 -28q0 -21 -21 -32l-204 -107z" />
    <glyph glyph-name="Oslashacute" unicode="&#x1fe;" horiz-adv-x="720" 
d="M149 -23l-4 3l39 64q-63 47 -100 123.5t-37 165.5q0 143 89.5 246.5t222.5 103.5q95 0 175 -59l37 61l4 -2l-38 -62q63 -48 99.5 -124t36.5 -164q0 -145 -92 -247t-222 -102q-94 0 -172 57zM188 333q0 -169 25 -241l292 483q-15 44 -39 68q-35 36 -107 36q-70 0 -105 -36
q-66 -66 -66 -310zM532 333q0 158 -26 237l-291 -484q14 -37 39 -62q36 -37 105 -37q71 0 107 37q36 36 51 103t15 206zM287 729l144 154q20 23 42 23q17 0 28.5 -12t11.5 -28q0 -21 -21 -32l-204 -107z" />
    <glyph glyph-name="oslashacute" unicode="&#x1ff;" horiz-adv-x="497" 
d="M457 213q0 -92 -61 -157t-148 -65q-68 0 -121 42l-39 -57l-4 3l39 57q-83 67 -83 177q0 92 61 157t147 65q67 0 122 -42l39 57l4 -2l-40 -58q39 -30 61.5 -77t22.5 -100zM341 350q-11 39 -28 58q-23 23 -65 23q-41 0 -64 -23q-39 -40 -39 -195q0 -87 9 -132q5 8 14 21
t33.5 48.5t46.5 66.5t44 63t36 51zM352 213q0 85 -10 131l-46 -67q-47 -67 -94 -135l-47 -68q10 -37 29 -56q23 -23 64 -23q42 0 65 23q21 22 30 64.5t9 130.5zM176 508l144 154q20 23 42 23q17 0 28.5 -12t11.5 -28q0 -21 -21 -32l-204 -107z" />
    <glyph glyph-name="Scommaaccent" unicode="&#x218;" horiz-adv-x="533" 
d="M507 206q0 -83 -64 -152.5t-169 -69.5q-38 0 -92 19.5t-73 19.5q-20 0 -35.5 -11t-17.5 -25h-3v225h4q0 -40 27 -91.5t79 -92.5t110 -41q79 0 123 36.5t44 86.5q0 65 -43 98t-163 76q-50 18 -83 39t-56 60t-23 92q0 88 55.5 148t129.5 60q24 0 66.5 -12.5t65.5 -12.5
q35 0 39 22h4v-174h-4q0 67 -53 120t-117 53q-56 0 -91 -32.5t-35 -81.5q0 -50 41 -87.5t132 -69.5q105 -37 153.5 -79.5t48.5 -122.5zM343 -119q0 -45 -39 -107.5t-85 -77.5l-1 4q19 6 33 18q39 33 39 68t-37 62q-25 17 -25 48q0 24 16.5 41.5t39.5 17.5q59 0 59 -74z" />
    <glyph glyph-name="scommaaccent" unicode="&#x219;" horiz-adv-x="367" 
d="M344 137q0 -63 -39 -104.5t-108 -41.5q-30 0 -61.5 13.5t-48.5 13.5q-12 0 -22.5 -6.5t-12.5 -12.5h-4v154h4q-2 -57 41 -107.5t104 -50.5q91 0 91 85q0 37 -28 60t-88 40q-51 14 -83.5 46t-32.5 73q0 63 36.5 99.5t85.5 36.5q15 0 37 -5t45 -5q21 0 21 14h4v-127h-4
q0 50 -32.5 84.5t-70.5 34.5q-73 0 -73 -69q0 -36 28 -59t87 -39q124 -36 124 -127zM246 -119q0 -45 -39 -107.5t-85 -77.5l-1 4q19 6 33 18q39 33 39 68t-37 62q-25 17 -25 48q0 24 16.5 41.5t39.5 17.5q59 0 59 -74z" />
    <glyph glyph-name="dotlessj" unicode="&#x237;" horiz-adv-x="265" 
d="M190 -23q0 -294 -171 -294q-37 0 -63.5 19.5t-26.5 53.5q0 21 13.5 36t34.5 15q47 0 47 -37q0 -12 -7 -24.5t-7 -27.5q0 -16 6.5 -23t22.5 -7q51 0 51 118v616h-61v4h161v-449z" />
    <glyph glyph-name="circumflex" unicode="&#x2c6;" 
d="M49 507l-1 2q81 95 127 183h2q44 -86 128 -183l-2 -2l-127 79z" />
    <glyph glyph-name="caron" unicode="&#x2c7;" 
d="M46 690l1 2l127 -79l127 79l2 -2q-84 -97 -128 -183h-2q-46 88 -127 183z" />
    <glyph glyph-name="breve" unicode="&#x2d8;" 
d="M317 674q0 -59 -33.5 -107t-106.5 -48t-106.5 48t-33.5 107q0 2 2 2t2 -2q0 -34 33 -63.5t103 -29.5t103 29.5t33 63.5q0 2 2 2t2 -2z" />
    <glyph glyph-name="dotaccent" unicode="&#x2d9;" 
d="M228 594q0 -22 -14.5 -37.5t-35.5 -15.5t-36 15.5t-15 37.5t15 37.5t36 15.5t35.5 -15.5t14.5 -37.5z" />
    <glyph glyph-name="ring" unicode="&#x2da;" 
d="M174 701q29 0 62 -23.5t33 -67.5q0 -36 -29.5 -63t-65.5 -27t-65.5 27t-29.5 63q0 44 33 67.5t62 23.5zM174 698q-15 0 -24.5 -6t-13 -21t-4.5 -26.5t-1 -35.5q0 -50 9.5 -68t33.5 -18t33.5 18t9.5 68q0 24 -1 35.5t-4.5 26.5t-13 21t-24.5 6z" />
    <glyph glyph-name="ogonek" unicode="&#x2db;" 
d="M257 -161l2 -2q-46 -37 -91 -37q-36 0 -60.5 16.5t-24.5 49.5q0 40 35 71.5t101 62.5h8q-74 -53 -74 -127q0 -12 3 -23.5t15 -23t32 -11.5t54 24z" />
    <glyph glyph-name="tilde" unicode="&#x2dc;" 
d="M323 650h3q-2 -15 -8 -34t-29 -43.5t-57 -24.5q-27 0 -75 21t-65 21q-24 0 -40.5 -14.5t-20.5 -27.5h-3q8 45 33.5 72t55.5 27q27 0 75 -19t69 -19q23 0 40.5 15t21.5 26z" />
    <glyph glyph-name="hungarumlaut" unicode="&#x2dd;" 
d="M-4 508l144 154q20 23 42 23q17 0 28.5 -12t11.5 -28q0 -21 -21 -32l-204 -107zM126 508l144 154q20 23 42 23q17 0 28.5 -12t11.5 -28q0 -21 -21 -32l-204 -107z" />
    <glyph glyph-name="Alpha" unicode="&#x391;" horiz-adv-x="632" 
d="M660 0h-320v4h95l-81 227h-207l-70 -188q-8 -25 -5.5 -32t13.5 -7h71v-4h-178v4h57q13 0 21 7t17 32l234 637h4l263 -676h86v-4zM352 235l-100 284l-104 -284h204z" />
    <glyph glyph-name="Beta" unicode="&#x392;" horiz-adv-x="621" 
d="M580 177q0 -72 -59.5 -124.5t-165.5 -52.5h-318v4h90v659h-90v4h271q94 0 158 -40t64 -114q0 -66 -55 -111.5t-126 -45.5q103 0 167 -48t64 -131zM417 509q0 85 -26.5 119.5t-97.5 34.5h-37v-305h69q53 0 72.5 32t19.5 119zM453 171q0 109 -31 146.5t-107 37.5h-59v-351
h72q68 0 96.5 37.5t28.5 129.5z" />
    <glyph glyph-name="Gamma" unicode="&#x393;" horiz-adv-x="575" 
d="M556 442h-4q0 88 -56.5 154.5t-155.5 66.5h-84v-659h110v-4h-329v4h90v659h-90v4h519v-225z" />
    <glyph glyph-name="Epsilon" unicode="&#x395;" horiz-adv-x="619" 
d="M597 0h-561v4h91v659h-91v4h510v-196h-4q0 72 -50 132t-134 60h-102v-319h24q57 0 95.5 38.5t38.5 88.5h3v-257h-3q0 50 -38.5 88.5t-95.5 38.5h-24v-337h104q110 0 171.5 65t61.5 146h4v-215z" />
    <glyph glyph-name="Zeta" unicode="&#x396;" horiz-adv-x="606" 
d="M556 0h-508l370 663h-120q-92 0 -150.5 -67.5t-58.5 -153.5h-3v225h470l-369 -663h153q91 0 151.5 69.5t60.5 155.5h4v-229z" />
    <glyph glyph-name="Eta" unicode="&#x397;" horiz-adv-x="749" 
d="M712 0h-301v4h81v341h-236v-341h82v-4h-301v4h90v659h-90v4h301v-4h-82v-314h236v314h-81v4h301v-4h-90v-659h90v-4z" />
    <glyph glyph-name="Iota" unicode="&#x399;" horiz-adv-x="383" 
d="M347 0h-310v4h90v659h-90v4h310v-4h-90v-659h90v-4z" />
    <glyph glyph-name="Kappa" unicode="&#x39a;" horiz-adv-x="656" 
d="M742 0h-350v4h104l-239 326v-326h90v-4h-310v4h90v659h-90v4h310v-4h-90v-327l252 288q34 39 10 39h-71v4h189v-4h-59q-29 0 -63 -39l-177 -202l312 -418h92v-4z" />
    <glyph glyph-name="Lambda" unicode="&#x39b;" horiz-adv-x="663" 
d="M-34 4h66q12 0 20 7t16 32l227 638h4l300 -677h91v-4h-338v4h107l-219 511l-167 -472q-14 -39 13 -39h70v-4h-190v4z" />
    <glyph glyph-name="Mu" unicode="&#x39c;" horiz-adv-x="843" 
d="M127 658v-608q0 -28 5.5 -37t17.5 -9h68v-4h-186v4h66q12 0 18.5 9t6.5 37v613h-91v4h225l179 -480l147 480h223v-4h-91v-659h91v-4h-310v4h90v654l-206 -670h-5z" />
    <glyph glyph-name="Nu" unicode="&#x39d;" horiz-adv-x="700" 
d="M123 50v613h-91v4h240l306 -462v412q0 28 -6.5 37t-18.5 9h-66v4h186v-4h-68q-12 0 -17.5 -9t-5.5 -37v-629h-5l-450 670v-608q0 -28 5.5 -37t17.5 -9h68v-4h-186v4h66q12 0 18.5 9t6.5 37z" />
    <glyph glyph-name="Omicron" unicode="&#x39f;" horiz-adv-x="720" 
d="M673 333q0 -145 -92 -247t-222 -102q-129 0 -220.5 102t-91.5 247q0 143 89.5 246.5t222.5 103.5q131 0 222.5 -102.5t91.5 -247.5zM532 333q0 244 -66 310q-35 36 -107 36q-70 0 -105 -36q-66 -66 -66 -310q0 -139 15 -206t51 -103q36 -37 105 -37q71 0 107 37
q36 36 51 103t15 206z" />
    <glyph glyph-name="Pi" unicode="&#x3a0;" horiz-adv-x="749" 
d="M712 0h-301v4h81v659h-236v-659h82v-4h-301v4h90v659h-90v4h675v-4h-90v-659h90v-4z" />
    <glyph glyph-name="Rho" unicode="&#x3a1;" horiz-adv-x="616" 
d="M587 463q0 -86 -64.5 -137.5t-176.5 -51.5q-41 0 -89 11v-281h90v-4h-310v4h90v659h-90v4h284q125 0 195.5 -57.5t70.5 -146.5zM459 463q0 200 -138 200h-64v-370q32 -15 89 -15q66 0 89.5 40.5t23.5 144.5z" />
    <glyph glyph-name="Tau" unicode="&#x3a4;" horiz-adv-x="629" 
d="M610 442h-4q0 89 -57 155t-156 66h-16v-659h91v-4h-311v4h90v659h-16q-98 0 -153 -66t-55 -155h-4v225h591v-225z" />
    <glyph glyph-name="Upsilon" unicode="&#x3a5;" horiz-adv-x="630" 
d="M654 663h-60q-24 0 -42 -39l-150 -317v-303h91v-4h-310v4h90v287l-195 372h-93v4h342v-4h-108l181 -349l148 310q8 17 9 26t-2.5 11t-10.5 2h-80v4h190v-4z" />
    <glyph glyph-name="Phi" unicode="&#x3a6;" horiz-adv-x="826" 
d="M789 333q0 -105 -71 -158.5t-176 -53.5h-60v-117h82v-4h-301v4h81v117h-60q-105 0 -175.5 53.5t-70.5 158.5q0 107 71.5 165.5t174.5 58.5h60v106h-81v4h301v-4h-82v-106h60q104 0 175.5 -58.5t71.5 -165.5zM647 333q0 220 -124 220h-41v-429h41q39 0 64.5 16t38 47.5
t17 65t4.5 80.5zM344 124v429h-41q-38 0 -63.5 -18t-38 -51.5t-17.5 -69t-5 -81.5q0 -45 4.5 -78.5t17 -65t38.5 -48.5t64 -17h41z" />
    <glyph glyph-name="Chi" unicode="&#x3a7;" horiz-adv-x="674" 
d="M707 0h-337v4h102l-161 285l-152 -246q-25 -39 1 -39h70v-4h-190v4h70q20 0 43 39l155 251l-214 369h-93v4h337v-4h-103l143 -253l132 214q11 17 12.5 26t-2 11t-11.5 2h-70v4h190v-4h-67q-24 0 -47 -39l-134 -218l233 -402h93v-4z" />
    <glyph glyph-name="pi" unicode="&#x3c0;" horiz-adv-x="519" 
d="M445 422h-9v-418h61v-4h-212v4h51v418h-150v-418h51v-4h-212v4h61v418h-24q-30 0 -43 -11.5t-15 -42.5h-4q2 34 16 46t53 12h381q36 0 49 6t16 31h4q0 -28 -17.5 -34.5t-56.5 -6.5z" />
    <glyph glyph-name="afii10023" unicode="&#x401;" horiz-adv-x="619" 
d="M597 0h-561v4h91v659h-91v4h510v-196h-4q0 72 -50 132t-134 60h-102v-319h24q57 0 95.5 38.5t38.5 88.5h4v-257h-4q0 50 -38.5 88.5t-95.5 38.5h-24v-337h104q110 0 171.5 65t61.5 146h4v-215zM284 806q0 -25 -17 -42.5t-42 -17.5q-23 0 -39 17.5t-16 42.5q0 23 16 39.5
t39 16.5q25 0 42 -16.5t17 -39.5zM284 806q0 -25 -17 -42.5t-42 -17.5q-23 0 -39 17.5t-16 42.5q0 23 16 39.5t39 16.5q25 0 42 -16.5t17 -39.5zM477 806q0 -25 -17 -42.5t-42 -17.5q-23 0 -39 17.5t-16 42.5q0 23 16 39.5t39 16.5q25 0 42 -16.5t17 -39.5q0 -25 -17 -42.5
t-42 -17.5q-23 0 -39 17.5t-16 42.5q0 23 16 39.5t39 16.5q25 0 42 -16.5t17 -39.5z" />
    <glyph glyph-name="afii10051" unicode="&#x402;" horiz-adv-x="756" 
d="M727 197q0 -91 -57.5 -148.5t-147.5 -57.5q-60 0 -92.5 29t-32.5 72q0 32 20 51t45 19t42.5 -17t17.5 -41q0 -21 -19 -47.5t-19 -36.5q0 -27 38 -27q23 0 38 12.5t26.5 59t11.5 129.5q0 102 -26 138.5t-96 36.5q-52 0 -99 -15v-354h-220v4h90v659h-16q-98 0 -153 -66
t-55 -155h-4v225h591v-225h-4q0 89 -57 155t-156 66h-16v-304q51 14 99 14q112 0 181.5 -46t69.5 -130z" />
    <glyph glyph-name="afii10052" unicode="&#x403;" horiz-adv-x="575" 
d="M556 442h-4q0 88 -56.5 154.5t-155.5 66.5h-84v-659h110v-4h-329v4h90v659h-90v4h519v-225zM465 878q0 -43 -51.5 -86t-182.5 -75l-1 4q49 12 83.5 44.5t49 64.5t31.5 57.5t35 25.5q16 0 26 -10t10 -25z" />
    <glyph glyph-name="afii10053" unicode="&#x404;" horiz-adv-x="627" 
d="M581 -14h-3q-2 10 -14 19t-30 9q-21 0 -81 -15t-88 -15q-134 0 -226 103.5t-92 245.5q0 143 89.5 246.5t223.5 103.5q24 0 76.5 -12.5t74.5 -12.5q19 0 32.5 7t15.5 15h4v-219h-4q0 72 -64.5 145t-134.5 73q-71 0 -106 -36q-65 -65 -66 -294h249v-4h-249v-12
q0 -243 66 -309q36 -37 111 -37q86 0 149 75.5t63 170.5h4v-247z" />
    <glyph glyph-name="afii10054" unicode="&#x405;" horiz-adv-x="566" 
d="M539 219q0 -88 -68 -162t-180 -74q-40 0 -97 20.5t-78 20.5t-37.5 -12t-18.5 -26h-4v239h4q0 -70 69.5 -154.5t160.5 -84.5q84 0 131 39t47 92q0 69 -46 104.5t-173 80.5q-82 29 -127 75t-45 128q0 93 58.5 157t137.5 64q25 0 70.5 -13.5t69.5 -13.5q38 0 42 24h4v-185
h-4q0 71 -56 127.5t-125 56.5q-60 0 -97 -34.5t-37 -87.5t44 -92.5t140 -73.5q112 -40 163.5 -85t51.5 -130z" />
    <glyph glyph-name="afii10055" unicode="&#x406;" horiz-adv-x="407" 
d="M369 0h-330v4h96v701h-96v4h330v-4h-96v-701h96v-4z" />
    <glyph glyph-name="afii10056" unicode="&#x407;" horiz-adv-x="383" 
d="M369 0h-330v4h96v701h-96v4h330v-4h-96v-701h96v-4zM165 806q0 -25 -17 -42.5t-42 -17.5q-23 0 -39 17.5t-16 42.5q0 23 16 39.5t39 16.5q25 0 42 -16.5t17 -39.5zM165 806q0 -25 -17 -42.5t-42 -17.5q-23 0 -39 17.5t-16 42.5q0 23 16 39.5t39 16.5q25 0 42 -16.5
t17 -39.5zM358 806q0 -25 -17 -42.5t-42 -17.5q-23 0 -39 17.5t-16 42.5q0 23 16 39.5t39 16.5q25 0 42 -16.5t17 -39.5q0 -25 -17 -42.5t-42 -17.5q-23 0 -39 17.5t-16 42.5q0 23 16 39.5t39 16.5q25 0 42 -16.5t17 -39.5z" />
    <glyph glyph-name="afii10057" unicode="&#x408;" horiz-adv-x="485" 
d="M472 663h-91v-506q0 -80 -55 -126.5t-141 -46.5q-60 0 -110.5 40.5t-50.5 88.5q0 37 23.5 60t51.5 23q29 0 49 -20.5t20 -49.5q0 -30 -22 -48t-22 -37q0 -22 18.5 -38t42.5 -16q67 0 67 77v599h-90v4h310v-4z" />
    <glyph glyph-name="afii10058" unicode="&#x409;" horiz-adv-x="948" 
d="M451 663h-170q-14 0 -19.5 -8t-5.5 -33v-237q0 -282 -57 -361q-27 -37 -77 -37q-47 0 -83 31.5t-36 77.5q0 31 20 54t50 23q29 0 50 -20t21 -48q0 -18 -15 -45t-15 -38q0 -25 24 -25q12 0 29.5 7.5t28.5 22.5q56 81 56 358v237q0 41 -20 41h-74v4h513v-4h-82v-288h71
q127 0 193 -47t66 -133q0 -90 -64 -142.5t-189 -52.5h-306v4h91v659zM791 195q0 98 -31 137t-100 39h-71v-367h77q68 0 96.5 44t28.5 147z" />
    <glyph glyph-name="afii10059" unicode="&#x40a;" horiz-adv-x="980" 
d="M951 195q0 -90 -64 -142.5t-189 -52.5h-296v4h90v367h-236v-367h82v-4h-301v4h90v659h-90v4h301v-4h-82v-288h236v288h-90v4h301v-4h-82v-288h71q127 0 193 -47t66 -133zM823 195q0 98 -31 137t-100 39h-71v-367h77q68 0 96.5 44t28.5 147z" />
    <glyph glyph-name="afii10060" unicode="&#x40b;" horiz-adv-x="824" 
d="M377 663v-307q60 17 100 17q120 0 185 -39t65 -137v-193h91v-4h-311v4h91v210q0 89 -25 122t-96 33q-45 0 -100 -17v-348h91v-4h-311v4h90v659h-16q-98 0 -153 -66t-55 -155h-4v225h591v-225h-4q0 89 -57 155t-156 66h-16z" />
    <glyph glyph-name="afii10061" unicode="&#x40c;" horiz-adv-x="683" 
d="M686 27q-33 -33 -89 -33q-68 0 -116 44.5t-48 138.5v51q0 62 -30.5 89.5t-95.5 27.5h-51v-341h91v-4h-310v4h90v659h-90v4h301v-4h-82v-314h56q22 0 44 13.5t33 34.5q9 17 14 53q1 10 4 48t6 56.5t12.5 45t25.5 42.5q30 31 82 31q34 0 63 -24t29 -72q0 -30 -20 -53.5
t-50 -23.5q-28 0 -48.5 21t-20.5 49q0 18 18 41.5t18 33.5q0 18 -18 18q-26 0 -50 -24q-16 -15 -25.5 -41t-12 -45.5t-5.5 -55.5t-4 -47q-6 -41 -14 -55q-18 -34 -54 -46q227 0 227 -184v-75q0 -37 16 -62.5t42 -25.5q31 0 59 28zM504 878q0 -43 -51.5 -86t-182.5 -75l-1 4
q49 12 83.5 44.5t49 64.5t31.5 57.5t35 25.5q16 0 26 -10t10 -25z" />
    <glyph glyph-name="afii10062" unicode="&#x40e;" horiz-adv-x="654" 
d="M668 663h-60q-24 0 -42 -39l-250 -561q-14 -31 -42 -53.5t-63 -22.5q-60 0 -99.5 40.5t-39.5 92.5q0 37 24.5 60.5t53.5 23.5t50 -21t21 -50q0 -20 -10 -35.5t-22.5 -24t-22.5 -19.5t-10 -23q0 -41 55 -41q30 0 58.5 21t42.5 54l25 55l-260 543h-91v4h338v-4h-108
l181 -407l165 368q17 39 -11 39h-73v4h190v-4zM539 806q0 -47 -48 -74t-100 -27q-51 0 -98.5 27t-47.5 74q0 24 17 42t41 18q20 0 35.5 -13t15.5 -32t-20.5 -34.5t-21.5 -17.5q-6 -9 -6 -18q0 -20 25 -31t60 -11q36 0 61.5 10.5t25.5 31.5q0 9 -6 18q-1 1 -22 17t-21 35
t16 32t36 13q24 0 41 -18t17 -42z" />
    <glyph glyph-name="afii10145" unicode="&#x40f;" horiz-adv-x="749" 
d="M712 0h-337v-11q0 -30 32 -65t32 -67q0 -28 -19 -48t-46 -20q-28 0 -47 19.5t-19 48.5q0 30 31.5 65.5t31.5 66.5v11h-334v4h90v659h-90v4h301v-4h-82v-659h236v659h-81v4h301v-4h-90v-659h90v-4z" />
    <glyph glyph-name="afii10017" unicode="&#x410;" horiz-adv-x="632" 
d="M660 0h-320v4h95l-81 227h-207l-70 -188q-8 -25 -5.5 -32t13.5 -7h71v-4h-178v4h57q13 0 21 7t17 32l234 637h4l263 -676h86v-4zM352 235l-100 284l-104 -284h204z" />
    <glyph glyph-name="afii10018" unicode="&#x411;" horiz-adv-x="621" 
d="M587 199q0 -90 -55.5 -144.5t-169.5 -54.5h-325v4h90v659h-90v4h510v-196h-4q0 72 -50 132t-134 60h-102v-279h95q114 0 174.5 -49.5t60.5 -135.5zM459 199q0 100 -29 140.5t-103 40.5h-70v-376h77q72 0 98.5 45t26.5 150z" />
    <glyph glyph-name="afii10019" unicode="&#x412;" horiz-adv-x="621" 
d="M580 177q0 -72 -59.5 -124.5t-165.5 -52.5h-318v4h90v659h-90v4h271q94 0 158 -40t64 -114q0 -65 -54.5 -110t-126.5 -47q103 -2 167 -49.5t64 -129.5zM417 509q0 85 -26.5 119.5t-97.5 34.5h-37v-305h69q53 0 72.5 32t19.5 119zM453 171q0 109 -31 146t-107 37h-59v-350
h72q68 0 96.5 37.5t28.5 129.5z" />
    <glyph glyph-name="afii10020" unicode="&#x413;" horiz-adv-x="575" 
d="M556 442h-4q0 88 -56.5 154.5t-155.5 66.5h-84v-659h110v-4h-329v4h90v659h-90v4h519v-225z" />
    <glyph glyph-name="afii10021" unicode="&#x414;" horiz-adv-x="686" 
d="M661 -188h-4q0 73 -48 130.5t-133 57.5h-279q-85 0 -133 -57.5t-48 -130.5h-4v192h89q36 34 58.5 89.5t32 132t12 134t2.5 143.5v119q0 41 -19 41h-71v4h534v-4h-90v-659h101v-192zM430 4v659h-198q-14 0 -18 -9t-4 -32v-119q0 -86 -2.5 -142t-11.5 -133t-31.5 -133
t-58.5 -91h324z" />
    <glyph glyph-name="afii10022" unicode="&#x415;" horiz-adv-x="619" 
d="M597 0h-561v4h91v659h-91v4h510v-196h-4q0 72 -50 132t-134 60h-102v-319h24q57 0 95.5 38.5t38.5 88.5h4v-257h-4q0 50 -38.5 88.5t-95.5 38.5h-24v-337h104q110 0 171.5 65t61.5 146h4v-215z" />
    <glyph glyph-name="afii10024" unicode="&#x416;" horiz-adv-x="949" 
d="M328 0v4h82v341h-37q-65 0 -95.5 -27.5t-30.5 -89.5v-51q0 -94 -48 -138.5t-116 -44.5q-56 0 -89 33l3 3q30 -28 59 -28q26 0 42 25.5t16 62.5v75q0 184 227 184q-36 12 -54 46q-8 14 -14 55q-1 11 -4 47t-5.5 55.5t-12 45.5t-25.5 41q-24 24 -51 24q-16 0 -16 -17
q0 -12 16 -29.5t16 -34.5q0 -27 -19 -47t-46 -20q-28 0 -47.5 22t-19.5 51q0 43 28 64t60 21q51 0 82 -31q16 -16 25.5 -42.5t12.5 -45t6 -56.5t4 -48q5 -36 14 -53q11 -21 33 -34.5t43 -13.5h43v314h-82v4h293v-4h-82v-314h43q21 0 43 13.5t33 34.5q9 17 14 53q1 10 4 48
t6 56.5t12.5 45t25.5 42.5q31 31 82 31q32 0 60 -21t28 -64q0 -29 -19.5 -51t-47.5 -22q-27 0 -46 20t-19 47q0 17 16 34.5t16 29.5q0 17 -16 17q-27 0 -51 -24q-16 -15 -25.5 -41t-12 -45.5t-5.5 -55.5t-4 -47q-6 -41 -14 -55q-18 -34 -54 -46q227 0 227 -184v-75
q0 -37 16 -62.5t42 -25.5q29 0 59 28l3 -3q-33 -33 -89 -33q-68 0 -116 44.5t-48 138.5v51q0 62 -30.5 89.5t-95.5 27.5h-37v-341h82v-4h-293z" />
    <glyph glyph-name="afii10025" unicode="&#x417;" horiz-adv-x="552" 
d="M511 183q0 -75 -70 -137t-193 -62q-76 0 -135.5 44.5t-59.5 110.5q0 36 22.5 62t58.5 26q27 0 46 -19.5t19 -47.5q0 -13 -3.5 -23t-7 -16t-13.5 -12.5t-14.5 -8.5t-19 -8t-18.5 -8q-15 -7 -15 -28t43.5 -45t96.5 -24q136 0 136 193q0 106 -24 140t-97 34h-57v4h67
q54 0 75.5 32.5t21.5 118.5q0 92 -20.5 131t-88.5 39q-64 0 -111.5 -52.5t-47.5 -120.5h-4v174h4q4 -22 39 -22q23 0 60 12.5t61 12.5q99 0 161.5 -46.5t62.5 -123.5q0 -64 -57 -107t-132 -50q101 -7 157.5 -51t56.5 -122z" />
    <glyph glyph-name="afii10026" unicode="&#x418;" horiz-adv-x="749" 
d="M712 0h-301v4h81v566l-236 -479v-87h82v-4h-301v4h90v659h-90v4h301v-4h-82v-563l236 479v84h-81v4h301v-4h-90v-659h90v-4z" />
    <glyph glyph-name="afii10027" unicode="&#x419;" horiz-adv-x="749" 
d="M712 0h-301v4h81v566l-236 -479v-87h82v-4h-301v4h90v659h-90v4h301v-4h-82v-563l236 479v84h-81v4h301v-4h-90v-659h90v-4zM526 806q0 -47 -48 -74t-100 -27q-51 0 -98.5 27t-47.5 74q0 24 17 42t41 18q20 0 35.5 -13t15.5 -32t-20.5 -34.5t-21.5 -17.5q-6 -9 -6 -18
q0 -20 25 -31t60 -11q36 0 61.5 10.5t25.5 31.5q0 9 -6 18q-1 1 -22 17t-21 35t16 32t36 13q24 0 41 -18t17 -42z" />
    <glyph glyph-name="afii10028" unicode="&#x41a;" horiz-adv-x="683" 
d="M686 27q-33 -33 -89 -33q-68 0 -116 44.5t-48 138.5v51q0 62 -30.5 89.5t-95.5 27.5h-51v-341h91v-4h-310v4h90v659h-90v4h301v-4h-82v-314h56q22 0 44 13.5t33 34.5q9 17 14 53q1 10 4 48t6 56.5t12.5 45t25.5 42.5q30 31 82 31q34 0 63 -24t29 -72q0 -30 -20 -53.5
t-50 -23.5q-28 0 -48.5 21t-20.5 49q0 18 18 41.5t18 33.5q0 18 -18 18q-26 0 -50 -24q-16 -15 -25.5 -41t-12 -45.5t-5.5 -55.5t-4 -47q-6 -41 -14 -55q-18 -34 -54 -46q227 0 227 -184v-75q0 -37 16 -62.5t42 -25.5q31 0 59 28z" />
    <glyph glyph-name="afii10029" unicode="&#x41b;" horiz-adv-x="708" 
d="M671 0h-311v4h91v659h-170q-14 0 -19.5 -8t-5.5 -33v-237q0 -282 -57 -361q-27 -37 -77 -37q-47 0 -83 31.5t-36 77.5q0 31 20 54t50 23q29 0 50 -20t21 -48q0 -18 -15 -45t-15 -38q0 -25 24 -25q12 0 29.5 7.5t28.5 22.5q56 81 56 358v237q0 41 -20 41h-74v4h513v-4h-90
v-659h90v-4z" />
    <glyph glyph-name="afii10030" unicode="&#x41c;" horiz-adv-x="843" 
d="M127 658v-608q0 -28 5.5 -37t17.5 -9h68v-4h-186v4h66q12 0 18.5 9t6.5 37v613h-91v4h225l179 -480l147 480h223v-4h-91v-659h91v-4h-310v4h90v654l-206 -670h-5z" />
    <glyph glyph-name="afii10031" unicode="&#x41d;" horiz-adv-x="749" 
d="M712 0h-301v4h81v341h-236v-341h82v-4h-301v4h90v659h-90v4h301v-4h-82v-314h236v314h-81v4h301v-4h-90v-659h90v-4z" />
    <glyph glyph-name="afii10032" unicode="&#x41e;" horiz-adv-x="720" 
d="M673 333q0 -145 -92 -247t-222 -102q-129 0 -220.5 102t-91.5 247q0 143 89.5 246.5t222.5 103.5q131 0 222.5 -102.5t91.5 -247.5zM532 333q0 244 -66 310q-35 36 -107 36q-70 0 -105 -36q-66 -66 -66 -310q0 -139 15 -206t51 -103q35 -36 105 -36q72 0 107 36
q36 36 51 103t15 206z" />
    <glyph glyph-name="afii10033" unicode="&#x41f;" horiz-adv-x="749" 
d="M712 0h-301v4h81v659h-236v-659h82v-4h-301v4h90v659h-90v4h675v-4h-90v-659h90v-4z" />
    <glyph glyph-name="afii10034" unicode="&#x420;" horiz-adv-x="616" 
d="M587 463q0 -86 -64.5 -137.5t-176.5 -51.5q-41 0 -89 11v-281h90v-4h-310v4h90v659h-90v4h284q125 0 195.5 -57.5t70.5 -146.5zM459 463q0 200 -138 200h-64v-370q32 -15 89 -15q66 0 89.5 40.5t23.5 144.5z" />
    <glyph glyph-name="afii10035" unicode="&#x421;" horiz-adv-x="627" 
d="M581 -14h-3q-2 10 -14 19t-30 9q-21 0 -81 -15t-88 -15q-134 0 -226 103.5t-92 245.5q0 143 89.5 246.5t223.5 103.5q24 0 76.5 -12.5t74.5 -12.5q19 0 32.5 7t15.5 15h4v-219h-4q0 72 -64.5 145t-134.5 73q-71 0 -106 -36q-65 -65 -65 -310q0 -244 65 -309
q36 -37 111 -37q87 0 150 75.5t63 170.5h4z" />
    <glyph glyph-name="afii10036" unicode="&#x422;" horiz-adv-x="629" 
d="M610 442h-4q0 89 -57 155t-156 66h-16v-659h91v-4h-311v4h90v659h-16q-98 0 -153 -66t-55 -155h-4v225h591v-225z" />
    <glyph glyph-name="afii10037" unicode="&#x423;" horiz-adv-x="654" 
d="M668 663h-60q-24 0 -42 -39l-250 -561q-14 -31 -42 -53.5t-63 -22.5q-60 0 -99.5 40.5t-39.5 92.5q0 37 24.5 60.5t53.5 23.5t50 -21t21 -50q0 -20 -10 -35.5t-22.5 -24t-22.5 -19.5t-10 -23q0 -41 55 -41q30 0 58.5 21t42.5 54l25 55l-260 543h-91v4h338v-4h-108
l181 -407l165 368q17 39 -11 39h-73v4h190v-4z" />
    <glyph glyph-name="afii10038" unicode="&#x424;" horiz-adv-x="828" 
d="M180 333q0 -259 149 -259h16v519h-16q-45 0 -76 -25.5t-46 -67.5t-21 -82.5t-6 -84.5zM565 0h-302v4h82v67h-20q-107 0 -197 72t-90 190q0 115 84 189.5t193 74.5h30v66h-82v4h302v-4h-82v-66h30q109 0 193 -74.5t84 -189.5q0 -118 -90 -190t-197 -72h-20v-67h82v-4z
M648 333q0 44 -6 84.5t-21 82.5t-46 67.5t-76 25.5h-16v-519h16q149 0 149 259z" />
    <glyph glyph-name="afii10039" unicode="&#x425;" horiz-adv-x="674" 
d="M707 0h-337v4h102l-161 285l-152 -246q-25 -39 1 -39h70v-4h-190v4h70q20 0 43 39l155 251l-214 369h-93v4h337v-4h-103l143 -253l132 214q11 17 12.5 26t-2 11t-11.5 2h-70v4h190v-4h-67q-24 0 -47 -39l-134 -218l233 -402h93v-4z" />
    <glyph glyph-name="afii10040" unicode="&#x426;" horiz-adv-x="749" 
d="M723 -188h-4q0 73 -48 130.5t-133 57.5h-501v4h90v659h-90v4h301v-4h-82v-659h236v659h-81v4h301v-4h-90v-659h101v-192z" />
    <glyph glyph-name="afii10041" unicode="&#x427;" horiz-adv-x="715" 
d="M678 0h-329v4h109v312q-63 -22 -122 -22q-116 0 -172 38t-56 139v192h-90v4h310v-4h-91v-239q0 -79 15.5 -102.5t83.5 -23.5q62 0 122 23v342h-81v4h301v-4h-90v-659h90v-4z" />
    <glyph glyph-name="afii10042" unicode="&#x428;" horiz-adv-x="1039" 
d="M1002 0h-965v4h85v659h-85v4h287v-4h-73v-659h199v659h-81v4h301v-4h-82v-659h199v659h-72v4h287v-4h-85v-659h85v-4z" />
    <glyph glyph-name="afii10043" unicode="&#x429;" horiz-adv-x="1039" 
d="M1017 -188h-4q0 72 -48 130t-132 58h-796v4h85v659h-85v4h287v-4h-73v-659h199v659h-81v4h301v-4h-82v-659h199v659h-72v4h287v-4h-85v-659h100v-192z" />
    <glyph glyph-name="afii10044" unicode="&#x42a;" horiz-adv-x="723" 
d="M695 204q0 -91 -64.5 -147.5t-189.5 -56.5h-297v4h90v659h-3q-98 0 -153 -66t-55 -155h-4v225h436v-4h-91v-270h71q126 0 193 -51t67 -138zM567 204q0 100 -32 143t-100 43h-71v-386h77q67 0 96.5 48t29.5 152z" />
    <glyph glyph-name="afii10045" unicode="&#x42b;" horiz-adv-x="904" 
d="M868 0h-302v4h81v659h-81v4h302v-4h-91v-659h91v-4zM568 204q0 -91 -64.5 -147.5t-188.5 -56.5h-278v4h90v659h-90v4h310v-4h-90v-270h52q126 0 192.5 -50.5t66.5 -138.5zM440 204q0 100 -31.5 143t-99.5 43h-52v-386h58q67 0 96 48t29 152z" />
    <glyph glyph-name="afii10046" unicode="&#x42c;" horiz-adv-x="616" 
d="M587 204q0 -91 -64.5 -147.5t-188.5 -56.5h-297v4h90v659h-90v4h310v-4h-90v-270h70q126 0 193 -50.5t67 -138.5zM459 204q0 100 -31.5 143t-100.5 43h-70v-386h77q67 0 96 48t29 152z" />
    <glyph glyph-name="afii10047" unicode="&#x42d;" horiz-adv-x="627" 
d="M581 333q0 -142 -92 -245.5t-226 -103.5q-73 0 -140.5 50t-67.5 119q0 36 22.5 61.5t58.5 25.5q28 0 46.5 -19t18.5 -47q0 -11 -1.5 -19.5t-7 -15.5t-8.5 -11.5t-13 -9.5t-13.5 -7t-16.5 -7t-16 -6q-18 -9 -18 -29q0 -23 51.5 -52.5t104.5 -29.5q74 0 111 37
q65 65 65 309v12h-239v4h239q-1 229 -65 294q-36 36 -107 36q-69 0 -128.5 -72.5t-59.5 -145.5h-4v219h4q2 -8 15 -15t33 -7q22 0 69 12.5t71 12.5q135 0 224.5 -103.5t89.5 -246.5z" />
    <glyph glyph-name="afii10048" unicode="&#x42e;" horiz-adv-x="1040" 
d="M993 333q0 -145 -92 -247t-222 -102q-129 0 -220.5 102t-91.5 247v12h-111v-341h82v-4h-301v4h90v659h-90v4h301v-4h-82v-314h111q6 139 94.5 236.5t217.5 97.5q131 0 222.5 -102.5t91.5 -247.5zM852 333q0 244 -66 310q-36 36 -107 36q-70 0 -105 -36q-66 -66 -66 -310
q0 -139 15 -206t51 -103q35 -36 105 -36q71 0 107 36t51 103t15 206z" />
    <glyph glyph-name="afii10049" unicode="&#x42f;" horiz-adv-x="679" 
d="M644 0h-311v4h91v323h-63q-65 0 -95.5 -28t-30.5 -90v-32q0 -94 -48 -138.5t-115 -44.5q-57 0 -90 33l3 3q28 -28 59 -28q26 0 42.5 25.5t16.5 62.5v56q0 84 44 133t159 49q-88 0 -143.5 47.5t-55.5 118.5q0 74 63 123.5t168 49.5h306v-4h-91v-659h91v-4zM424 330v333
h-63q-66 0 -95 -41.5t-29 -131.5q0 -91 23.5 -125.5t91.5 -34.5h72z" />
    <glyph glyph-name="afii10065" unicode="&#x430;" horiz-adv-x="436" 
d="M437 31q-5 -15 -26 -27t-48 -12q-32 0 -56.5 18.5t-29.5 46.5q-20 -65 -104 -65q-55 0 -97 27t-42 78q0 34 15 60t38 39t43 19.5t38 8.5q83 8 97 18q7 5 7 12v76q0 102 -64 102q-62 0 -62 -46q0 -8 6 -22t6 -23q0 -16 -12 -26.5t-35 -10.5q-22 0 -33 14t-11 33
q0 31 39.5 58t101.5 27q78 0 121 -45t43 -136v-215q0 -34 26 -34q12 0 22 8.5t13 17.5zM272 70v171q-10 -7 -23.5 -10.5t-34 -6t-28.5 -4.5q-27 -5 -40.5 -31.5t-13.5 -91.5q0 -59 15.5 -78t43.5 -19q36 0 58.5 20.5t22.5 49.5z" />
    <glyph glyph-name="afii10066" unicode="&#x431;" horiz-adv-x="497" 
d="M456 209q0 -90 -60 -154t-145 -64q-88 0 -146 66t-58 186q0 147 27 228t81 137q34 36 81 55.5t135 25.5q68 5 71 46h4q-11 -82 -42 -110q-20 -18 -57.5 -29t-74 -16.5t-80.5 -23.5t-75 -48q-61 -59 -65 -233h2q25 74 76 113t121 39q85 0 145 -64t60 -154zM351 209
q0 154 -38 192q-21 22 -62 22q-39 0 -61 -22q-38 -38 -38 -192q0 -88 8.5 -129.5t29.5 -62.5q22 -22 61 -22q41 0 62 22q21 21 29.5 62.5t8.5 129.5z" />
    <glyph glyph-name="afii10067" unicode="&#x432;" horiz-adv-x="460" 
d="M426 113q0 -47 -39 -80t-113 -33h-255v4h61v418h-61v4h241q61 0 101.5 -25.5t40.5 -73.5q0 -40 -37 -68t-78 -32q61 -2 100 -32t39 -82zM312 325q0 54 -16.5 75.5t-62.5 21.5h-54v-193h74q34 0 46.5 20t12.5 76zM327 109q0 71 -16 93.5t-64 22.5h-68v-221h69
q43 0 61 23.5t18 81.5z" />
    <glyph glyph-name="afii10068" unicode="&#x433;" horiz-adv-x="395" 
d="M383 276h-4q0 56 -40.5 101t-103.5 45h-55v-418h81v-4h-242v4h61v418h-61v4h364v-150z" />
    <glyph glyph-name="afii10069" unicode="&#x434;" horiz-adv-x="474" 
d="M461 -143h-4q0 56 -36.5 99.5t-101.5 43.5h-173q-65 0 -101.5 -43.5t-36.5 -99.5h-4v147h57q36 38 60 122t24 179v81q0 22 -5 29t-20 7h-37v4h373v-4h-61v-418h66v-147zM295 4v418h-124q-13 0 -17.5 -7t-4.5 -29v-81q0 -95 -23.5 -178t-59.5 -123h229z" />
    <glyph glyph-name="afii10070" unicode="&#x435;" horiz-adv-x="464" 
d="M430 238h-286v-25q0 -88 9 -130.5t31 -64.5q23 -23 64 -23q52 0 96.5 25.5t71.5 67.5l3 -2q-29 -44 -74 -69.5t-97 -25.5q-86 0 -147 65t-61 157t61 157t147 65q85 0 133.5 -63.5t48.5 -130.5v-3zM336 242q-3 129 -33 166q-20 23 -55 23q-41 0 -64 -23q-36 -36 -39 -166
h191z" />
    <glyph glyph-name="afii10072" unicode="&#x436;" horiz-adv-x="688" 
d="M691 33q-5 -16 -25.5 -27.5t-48.5 -11.5q-45 0 -78.5 28t-33.5 87v36q0 41 -15 58t-55 17h-41v-216h61v-4h-222v4h61v216h-41q-40 0 -55 -17t-15 -58v-36q0 -59 -34 -87t-78 -28q-28 0 -48.5 11.5t-25.5 27.5l4 1q3 -10 14.5 -19.5t27.5 -9.5q17 0 27.5 15t10.5 38v47
q0 59 36 88.5t119 29.5q-39 11 -44 64q0 3 -3 29.5t-5 37t-8.5 28t-16.5 27.5q-12 12 -28 12q-4 0 -7.5 -3.5t-3.5 -6.5q0 -9 13 -20t13 -24q0 -19 -13.5 -33t-33.5 -14t-33.5 15.5t-13.5 36.5q0 25 17 42t43 17q32 0 50 -19q7 -7 12.5 -17.5t8.5 -19t5.5 -23t3.5 -22
t2.5 -23.5t1.5 -20q8 -63 58 -63h40v198h-61v4h222v-4h-61v-198h40q50 0 58 63q0 4 1.5 20t2.5 23.5t3.5 22t5.5 23t8.5 19t12.5 17.5q18 19 50 19q26 0 43 -17t17 -42q0 -21 -13.5 -36.5t-33.5 -15.5t-33.5 14t-13.5 33q0 13 13 24t13 20q0 3 -3.5 6.5t-7.5 3.5
q-16 0 -28 -12q-10 -10 -16.5 -27.5t-8.5 -28t-5 -37t-3 -29.5q-5 -53 -44 -64q83 0 119 -29.5t36 -88.5v-47q0 -23 10.5 -38t27.5 -15q16 0 27.5 9.5t14.5 19.5z" />
    <glyph glyph-name="afii10073" unicode="&#x437;" horiz-adv-x="400" 
d="M363 120q0 -51 -52 -90t-136 -39q-47 0 -91.5 28.5t-44.5 69.5q0 23 14 39.5t37 16.5q18 0 30.5 -12.5t12.5 -30.5q0 -7 -1 -12.5t-4.5 -9.5t-6 -7t-8.5 -6t-8.5 -4.5t-10.5 -4.5t-10 -4q-8 -4 -8 -18q0 -13 32.5 -27t66.5 -14q89 0 89 114q0 72 -15 93.5t-61 21.5h-56v4
h62q34 0 47.5 22t13.5 83q0 98 -72 98q-40 0 -79.5 -35t-39.5 -84h-4v124h4q0 -14 21 -14q23 0 53 6.5t45 6.5q75 0 119 -28t44 -73q0 -84 -121 -107q62 -4 100 -33.5t38 -73.5z" />
    <glyph glyph-name="afii10074" unicode="&#x438;" horiz-adv-x="537" 
d="M518 0h-222v4h61v375l-177 -332v-43h61v-4h-222v4h61v418h-61v4h222v-4h-61v-367l177 333v34h-61v4h222v-4h-61v-418h61v-4z" />
    <glyph glyph-name="afii10075" unicode="&#x439;" horiz-adv-x="537" 
d="M518 0h-222v4h61v375l-177 -332v-43h61v-4h-222v4h61v418h-61v4h222v-4h-61v-367l177 333v34h-61v4h222v-4h-61v-418h61v-4zM398 592q0 -45 -37.5 -69t-90.5 -24t-90.5 24t-37.5 69q0 22 14 38t35 16q18 0 31 -11t13 -27q0 -6 -1 -10.5t-4.5 -8.5t-5 -5.5t-8 -6
t-7.5 -5.5q-23 -16 -23 -37q0 -16 28.5 -24t55.5 -8t55.5 8t28.5 24q0 21 -23 37q-1 1 -7.5 5.5t-8 6t-5 5.5t-4.5 8.5t-1 10.5q0 16 13 27t31 11q21 0 35 -16t14 -38z" />
    <glyph glyph-name="afii10076" unicode="&#x43a;" horiz-adv-x="484" 
d="M413 -6q-44 0 -78 28t-34 87v36q0 41 -15 58t-55 17h-51v-216h61v-4h-222v4h61v418h-61v4h222v-4h-61v-198h50q50 0 58 63q0 4 1.5 20t2.5 23.5t3.5 22t5.5 23t8.5 19t12.5 17.5q18 19 50 19q24 0 43 -18t19 -42q0 -21 -13.5 -36.5t-33.5 -15.5t-33.5 14t-13.5 33
q0 13 12 24.5t12 20.5q0 3 -3.5 6.5t-7.5 3.5q-16 0 -28 -12q-10 -10 -16.5 -27.5t-8.5 -28t-5 -37t-3 -29.5q-5 -53 -44 -64q83 0 119 -29.5t36 -88.5v-47q0 -23 10.5 -38t27.5 -15q16 0 27.5 9.5t14.5 19.5l4 -1q-5 -16 -25.5 -27.5t-48.5 -11.5z" />
    <glyph glyph-name="afii10077" unicode="&#x43b;" horiz-adv-x="474" 
d="M455 0h-232v4h71v418h-104q-15 0 -19 -9t-4 -31v-136q0 -39 -1 -68t-6 -66.5t-13 -61.5t-24.5 -41t-38.5 -17q-31 0 -55.5 23t-24.5 54q0 22 13.5 37.5t34.5 15.5q19 0 33.5 -13.5t14.5 -32.5q0 -12 -14.5 -30t-14.5 -25q0 -10 5 -17t14 -7q73 0 73 249v136q0 22 -4.5 31
t-17.5 9h-45v4h359v-4h-61v-418h61v-4z" />
    <glyph glyph-name="afii10078" unicode="&#x43c;" horiz-adv-x="603" 
d="M79 420v-370q0 -46 16 -46h44v-4h-125v4h47q14 0 14 46v372h-61v4h168l127 -300l110 300h165v-4h-61v-418h61v-4h-222v4h61v418l-158 -430h-5z" />
    <glyph glyph-name="afii10079" unicode="&#x43d;" horiz-adv-x="537" 
d="M518 0h-222v4h61v216h-177v-216h61v-4h-222v4h61v418h-61v4h222v-4h-61v-198h177v198h-61v4h222v-4h-61v-418h61v-4z" />
    <glyph glyph-name="afii10080" unicode="&#x43e;" horiz-adv-x="497" 
d="M457 213q0 -92 -61 -157t-148 -65q-86 0 -147 65t-61 157t61 157t147 65q87 0 148 -65t61 -157zM352 213q0 155 -39 195q-23 23 -65 23q-41 0 -64 -23q-39 -40 -39 -195q0 -88 9 -130.5t30 -64.5q23 -23 64 -23q42 0 65 23q21 22 30 64.5t9 130.5z" />
    <glyph glyph-name="afii10081" unicode="&#x43f;" horiz-adv-x="537" 
d="M518 0h-222v4h61v418h-177v-418h61v-4h-222v4h61v418h-61v4h499v-4h-61v-418h61v-4z" />
    <glyph glyph-name="afii10082" unicode="&#x440;" horiz-adv-x="521" 
d="M481 210q0 -84 -62 -151.5t-147 -67.5q-56 0 -92 41v-337h61v-4h-222v4h61v727h-61v4h161v-32q36 41 92 41q84 0 146.5 -70t62.5 -155zM376 210q0 159 -39 198q-23 23 -65 23q-57 0 -92 -44v-337q10 -26 36 -40.5t56 -14.5q43 0 65 23q39 39 39 192z" />
    <glyph glyph-name="afii10083" unicode="&#x441;" horiz-adv-x="441" 
d="M419 86q-29 -43 -74.5 -69t-96.5 -26q-87 0 -148 65t-61 157t61 157t148 65q66 0 108.5 -31t42.5 -70q0 -46 -45 -46q-20 0 -31.5 11t-11.5 27q0 12 6 25t6 29q0 51 -75 51q-42 0 -65 -23q-21 -22 -30 -64.5t-9 -130.5t9 -130.5t30 -64.5q23 -23 65 -23q51 0 95.5 25.5
t71.5 67.5z" />
    <glyph glyph-name="afii10084" unicode="&#x442;" horiz-adv-x="421" 
d="M409 282h-4q0 57 -35.5 98.5t-98.5 41.5h-11v-418h71v-4h-242v4h71v418h-10q-63 0 -98.5 -41.5t-35.5 -98.5h-4v144h397v-144z" />
    <glyph glyph-name="afii10085" unicode="&#x443;" horiz-adv-x="415" 
d="M443 422h-41q-13 0 -19.5 -7.5t-16.5 -33.5l-227 -617q-17 -46 -34 -63.5t-47 -17.5q-31 0 -51 16t-20 45q0 25 15 42.5t36 17.5t32.5 -11t11.5 -28q0 -13 -10 -28t-10 -26q0 -15 17 -15q31 0 55 66l84 229l-196 431h-54v4h220v-4h-58l137 -299l94 257q7 18 6.5 28
t-4.5 12t-11 2h-37v4h128v-4z" />
    <glyph glyph-name="afii10086" unicode="&#x444;" horiz-adv-x="712" 
d="M672 213q0 -93 -56.5 -157.5t-142.5 -64.5q-40 0 -67 24v-320h62v-4h-223v4h61v320q-27 -24 -67 -24q-86 0 -142.5 64.5t-56.5 157.5t56.5 157.5t142.5 64.5q38 0 67 -26v322h-61v4h161v-326q29 26 67 26q86 0 142.5 -64.5t56.5 -157.5zM567 213q0 43 -0.5 64.5t-3 51.5
t-8.5 44.5t-16 30t-26.5 21.5t-39.5 6q-37 0 -67 -28v-381q28 -27 67 -27q20 0 35 6t25 14.5t16.5 26t10 30.5t5.5 39.5t2 41.5v47v3v3v3.5v3.5zM306 22v381q-30 28 -67 28q-23 0 -39.5 -6t-26.5 -21.5t-16 -30t-8.5 -44.5t-3 -51.5t-0.5 -64.5v-13q0 -37 0.5 -55t3 -47
t8.5 -43.5t16 -30.5t26.5 -22.5t39.5 -6.5q39 0 67 27z" />
    <glyph glyph-name="afii10087" unicode="&#x445;" horiz-adv-x="474" 
d="M494 0h-226v4h58l-120 182l-104 -140q-27 -41 -11 -42h61v-4h-149v4h42q13 0 22 7.5t30 34.5l107 144l-153 232h-55v4h226v-4h-57l97 -147l79 105q27 37 18 41q-4 1 -12 1h-56v4h148v-4h-42q-12 0 -21.5 -7t-29.5 -34l-82 -110l176 -267h54v-4z" />
    <glyph glyph-name="afii10088" unicode="&#x446;" horiz-adv-x="537" 
d="M518 -143h-4q0 56 -36.5 99.5t-101.5 43.5h-357v4h61v418h-61v4h222v-4h-61v-418h177v418h-61v4h222v-4h-61v-418h61v-147z" />
    <glyph glyph-name="afii10089" unicode="&#x447;" horiz-adv-x="507" 
d="M234 184q-33 0 -55 2.5t-50.5 11.5t-43.5 31.5t-15 57.5v135h-61v4h212v-4h-51v-159q0 -43 13 -59t51 -16t93 22v212h-51v4h212v-4h-61v-418h61v-4h-232v4h71v202q-60 -22 -93 -22z" />
    <glyph glyph-name="afii10090" unicode="&#x448;" horiz-adv-x="774" 
d="M755 0h-736v4h61v418h-61v4h217v-4h-56v-418h157v418h-61v4h222v-4h-61v-418h157v418h-56v4h217v-4h-61v-418h61v-4z" />
    <glyph glyph-name="afii10091" unicode="&#x449;" horiz-adv-x="774" 
d="M755 -143h-4q0 56 -36.5 99.5t-101.5 43.5h-594v4h61v418h-61v4h217v-4h-56v-418h157v418h-61v4h222v-4h-61v-418h157v418h-56v4h217v-4h-61v-418h61v-147z" />
    <glyph glyph-name="afii10092" unicode="&#x44a;" horiz-adv-x="515" 
d="M496 132q0 -57 -44 -94.5t-123 -37.5h-236v4h61v418h-4q-63 0 -98.5 -41.5t-35.5 -98.5h-4v144h303v-4h-61v-168h61q82 0 131.5 -33.5t49.5 -88.5zM398 132q0 64 -20 91t-64 27h-60v-246h64q43 0 61.5 31t18.5 97z" />
    <glyph glyph-name="afii10093" unicode="&#x44b;" horiz-adv-x="667" 
d="M648 0h-222v4h61v418h-61v4h222v-4h-61v-418h61v-4zM422 132q0 -57 -44 -94.5t-123 -37.5h-236v4h61v418h-61v4h222v-4h-61v-168h61q82 0 131.5 -33.5t49.5 -88.5zM324 132q0 64 -20 91t-64 27h-60v-246h64q43 0 61.5 31t18.5 97z" />
    <glyph glyph-name="afii10094" unicode="&#x44c;" horiz-adv-x="441" 
d="M422 132q0 -57 -44 -94.5t-123 -37.5h-236v4h61v418h-61v4h222v-4h-61v-168h61q82 0 131.5 -33.5t49.5 -88.5zM324 132q0 64 -20 91t-64 27h-60v-246h64q43 0 61.5 31t18.5 97z" />
    <glyph glyph-name="afii10095" unicode="&#x44d;" horiz-adv-x="441" 
d="M401 213q0 -92 -62 -157t-152 -65q-66 0 -109.5 31t-43.5 70q0 46 45 46q20 0 31.5 -11t11.5 -27q0 -12 -6 -25t-6 -29q0 -51 77 -51q26 0 45 8.5t30.5 26.5t18.5 36.5t10 48t4 50.5t1 54v1h-146v4h146q0 29 -0.5 46t-3.5 45t-10 45t-18 35.5t-30 27t-45 8.5
q-39 0 -83.5 -38.5t-44.5 -84.5h-4v127h4q0 -16 21 -16q23 0 57.5 8t49.5 8q90 0 151 -65t61 -157z" />
    <glyph glyph-name="afii10096" unicode="&#x44e;" horiz-adv-x="727" 
d="M687 213q0 -92 -61 -157t-148 -65q-86 0 -147 65t-61 157v7h-90v-216h61v-4h-222v4h61v418h-61v4h222v-4h-61v-198h90q5 88 64.5 149.5t143.5 61.5q87 0 148 -65t61 -157zM582 213q0 155 -39 195q-23 23 -65 23q-41 0 -64 -23q-39 -40 -39 -195q0 -88 9 -130.5t30 -64.5
q23 -23 64 -23q42 0 65 23q21 22 30 64.5t9 130.5z" />
    <glyph glyph-name="afii10097" unicode="&#x44f;" horiz-adv-x="484" 
d="M466 0h-222v4h61v203h-63q-40 0 -53 -16t-13 -58v-23q0 -59 -33 -88t-77 -29q-48 0 -70 22l4 3q5 -7 17 -13t19 -6q16 0 26.5 16t10.5 40v38q0 55 26.5 86t100.5 31q-56 0 -91.5 30t-35.5 75q0 48 41.5 79.5t114.5 31.5h237v-4h-61v-418h61v-4zM305 211v211h-55
q-42 0 -60.5 -26t-18.5 -83q0 -58 15 -80t58 -22h61z" />
    <glyph glyph-name="afii10071" unicode="&#x451;" horiz-adv-x="464" 
d="M430 238h-286v-25q0 -88 9 -130.5t31 -64.5q23 -23 64 -23q52 0 96.5 25.5t71.5 67.5l3 -2q-29 -44 -74 -69.5t-97 -25.5q-86 0 -147 65t-61 157t61 157t147 65q85 0 133.5 -63.5t48.5 -130.5v-3zM336 242q-3 129 -33 166q-20 23 -55 23q-41 0 -64 -23q-36 -36 -39 -166
h191zM207 594q0 -22 -14.5 -37.5t-35.5 -15.5t-36 15.5t-15 37.5t15 37.5t36 15.5t35.5 -15.5t14.5 -37.5zM380 594q0 -22 -14.5 -37.5t-35.5 -15.5t-36 15.5t-15 37.5t15 37.5t36 15.5t35.5 -15.5t14.5 -37.5z" />
    <glyph glyph-name="afii10099" unicode="&#x452;" horiz-adv-x="528" 
d="M457 94q0 -294 -171 -294q-37 0 -63.5 19.5t-26.5 53.5q0 21 13.5 36t34.5 15q47 0 47 -37q0 -12 -7 -24.5t-7 -27.5q0 -16 6.5 -23t22.5 -7q52 0 52 118v406q0 50 -18.5 76t-46.5 26q-87 0 -113 -84v-343h61v-4h-222v4h61v558h-91v4h91v165h-61v4h161v-169h159v-4h-159
v-205q13 39 44.5 58.5t68.5 19.5q77 0 120.5 -44t43.5 -123v-174z" />
    <glyph glyph-name="afii10100" unicode="&#x453;" horiz-adv-x="395" 
d="M383 276h-4q0 56 -40.5 101t-103.5 45h-55v-418h81v-4h-242v4h61v418h-61v4h364v-150zM118 508l144 154q20 23 42 23q17 0 28.5 -12t11.5 -28q0 -21 -21 -32l-204 -107z" />
    <glyph glyph-name="afii10101" unicode="&#x454;" horiz-adv-x="441" 
d="M254 -9q-90 0 -152 65t-62 157t61 157t151 65q15 0 49.5 -8t57.5 -8q21 0 21 16h4v-127h-4q0 46 -44.5 84.5t-83.5 38.5q-26 0 -45 -8.5t-30 -27t-18 -35.5t-10 -45t-3.5 -45t-0.5 -46h146v-4h-146v-1q0 -33 1 -54t4 -50.5t10 -48t18.5 -36.5t30.5 -26.5t45 -8.5
q102 0 161 93l4 -2q-63 -95 -165 -95z" />
    <glyph glyph-name="afii10102" unicode="&#x455;" horiz-adv-x="367" 
d="M344 137q0 -63 -39 -104.5t-108 -41.5q-30 0 -61.5 13.5t-48.5 13.5q-12 0 -22.5 -6.5t-12.5 -12.5h-4v154h4q-2 -57 41 -107.5t104 -50.5q91 0 91 85q0 37 -28 60t-88 40q-51 14 -83.5 46t-32.5 73q0 63 36.5 99.5t85.5 36.5q15 0 37 -5t45 -5q21 0 21 14h4v-127h-4
q0 50 -32.5 84.5t-70.5 34.5q-73 0 -73 -69q0 -36 28 -59t87 -39q124 -36 124 -127z" />
    <glyph glyph-name="afii10103" unicode="&#x456;" horiz-adv-x="270" 
d="M252 0h-223v4h61v418h-61v4h161v-422h62v-4zM197 606q0 -25 -17 -42.5t-42 -17.5q-23 0 -39 17.5t-16 42.5q0 23 16 39.5t39 16.5q25 0 42 -16.5t17 -39.5z" />
    <glyph glyph-name="afii10104" unicode="&#x457;" horiz-adv-x="270" 
d="M252 0h-223v4h61v418h-61v4h161v-422h62v-4zM98 594q0 -22 -14.5 -37.5t-35.5 -15.5t-36 15.5t-15 37.5t15 37.5t36 15.5t35.5 -15.5t14.5 -37.5zM271 594q0 -22 -14.5 -37.5t-35.5 -15.5t-36 15.5t-15 37.5t15 37.5t36 15.5t35.5 -15.5t14.5 -37.5z" />
    <glyph glyph-name="afii10105" unicode="&#x458;" horiz-adv-x="265" 
d="M190 -23q0 -294 -171 -294q-37 0 -63.5 19.5t-26.5 53.5q0 21 13.5 36t34.5 15q47 0 47 -37q0 -12 -7 -24.5t-7 -27.5q0 -16 6.5 -23t22.5 -7q51 0 51 118v616h-61v4h161v-449zM197 606q0 -25 -17 -42.5t-42 -17.5q-23 0 -39 17.5t-16 42.5q0 23 16 39.5t39 16.5
q25 0 42 -16.5t17 -39.5z" />
    <glyph glyph-name="afii10106" unicode="&#x459;" horiz-adv-x="657" 
d="M636 122q0 -56 -43 -89t-124 -33h-246v4h71v418h-102q-14 0 -19.5 -6.5t-5.5 -23.5v-146q0 -39 -1 -68t-6 -66.5t-13 -61.5t-24.5 -41t-38.5 -17q-31 0 -55.5 23t-24.5 54q0 22 13.5 37.5t34.5 15.5q19 0 33.5 -13.5t14.5 -32.5q0 -12 -14.5 -30t-14.5 -25q0 -10 5 -17
t14 -7q73 0 73 249v146q0 17 -6 23.5t-21 6.5h-40v4h359v-4h-61v-188h61q83 0 132 -29t49 -83zM538 122q0 63 -19.5 85.5t-64.5 22.5h-60v-226h64q44 0 62 26.5t18 91.5z" />
    <glyph glyph-name="afii10107" unicode="&#x45a;" horiz-adv-x="718" 
d="M699 122q0 -56 -43 -89t-124 -33h-236v4h61v226h-177v-226h61v-4h-222v4h61v418h-61v4h222v-4h-61v-188h177v188h-61v4h222v-4h-61v-188h61q83 0 132 -29t49 -83zM601 122q0 63 -19.5 85.5t-64.5 22.5h-60v-226h64q44 0 62 26.5t18 91.5z" />
    <glyph glyph-name="afii10108" unicode="&#x45b;" horiz-adv-x="528" 
d="M519 0h-223v4h62v325q0 50 -18.5 76t-46.5 26q-87 0 -113 -84v-343h61v-4h-222v4h61v558h-91v4h91v165h-61v4h161v-169h159v-4h-159v-205q13 39 44.5 58.5t68.5 19.5q77 0 120.5 -44t43.5 -123v-264h62v-4z" />
    <glyph glyph-name="afii10109" unicode="&#x45c;" horiz-adv-x="484" 
d="M413 -6q-44 0 -78 28t-34 87v36q0 41 -15 58t-55 17h-51v-216h61v-4h-222v4h61v418h-61v4h222v-4h-61v-198h50q50 0 58 63q0 4 1.5 20t2.5 23.5t3.5 22t5.5 23t8.5 19t12.5 17.5q18 19 50 19q24 0 43 -18t19 -42q0 -21 -13.5 -36.5t-33.5 -15.5t-33.5 14t-13.5 33
q0 13 12 24.5t12 20.5q0 3 -3.5 6.5t-7.5 3.5q-16 0 -28 -12q-10 -10 -16.5 -27.5t-8.5 -28t-5 -37t-3 -29.5q-5 -53 -44 -64q83 0 119 -29.5t36 -88.5v-47q0 -23 10.5 -38t27.5 -15q16 0 27.5 9.5t14.5 19.5l4 -1q-5 -16 -25.5 -27.5t-48.5 -11.5zM169 508l144 154
q20 23 42 23q17 0 28.5 -12t11.5 -28q0 -21 -21 -32l-204 -107z" />
    <glyph glyph-name="afii10110" unicode="&#x45e;" horiz-adv-x="415" 
d="M443 422h-41q-13 0 -19.5 -7.5t-16.5 -33.5l-227 -617q-17 -46 -34 -63.5t-47 -17.5q-31 0 -51 16t-20 45q0 25 15 42.5t36 17.5t32.5 -11t11.5 -28q0 -13 -10 -28t-10 -26q0 -15 17 -15q31 0 55 66l84 229l-196 431h-54v4h220v-4h-58l137 -299l94 257q7 18 6.5 28
t-4.5 12t-11 2h-37v4h128v-4zM370 592q0 -45 -37.5 -69t-90.5 -24t-90.5 24t-37.5 69q0 22 14 38t35 16q18 0 31 -11t13 -27q0 -6 -1 -10.5t-4.5 -8.5t-5 -5.5t-8 -6t-7.5 -5.5q-23 -16 -23 -37q0 -16 28.5 -24t55.5 -8t55.5 8t28.5 24q0 21 -23 37q-1 1 -7.5 5.5t-8 6
t-5 5.5t-4.5 8.5t-1 10.5q0 16 13 27t31 11q21 0 35 -16t14 -38z" />
    <glyph glyph-name="afii10193" unicode="&#x45f;" horiz-adv-x="537" 
d="M518 0h-247v-6q0 -30 27 -62t27 -58q0 -25 -16.5 -42t-39.5 -17t-39.5 17t-16.5 42q0 24 27 56t27 63v7h-248v4h61v418h-61v4h222v-4h-61v-418h177v418h-61v4h222v-4h-61v-418h61v-4z" />
    <glyph glyph-name="afii10050" unicode="&#x490;" horiz-adv-x="575" 
d="M556 663h-300v-659h110v-4h-329v4h90v659h-90v4h303q99 0 155.5 66.5t56.5 154.5h4v-225z" />
    <glyph glyph-name="afii10098" unicode="&#x491;" horiz-adv-x="395" 
d="M383 422h-203v-418h81v-4h-242v4h61v418h-61v4h216q63 0 103.5 45t40.5 101h4v-150z" />
    <glyph glyph-name="uni0492" unicode="&#x492;" horiz-adv-x="575" 
d="M-1 361h128v302h-90v4h519v-225h-4q0 88 -56.5 154.5t-155.5 66.5h-84v-302h150v-4h-150v-353h110v-4h-329v4h90v353h-128v4z" />
    <glyph glyph-name="uni0493" unicode="&#x493;" horiz-adv-x="395" 
d="M-17 228h97v194h-61v4h364v-150h-4q0 56 -40.5 101t-103.5 45h-55v-194h110v-4h-110v-220h81v-4h-242v4h61v220h-97v4z" />
    <glyph glyph-name="uni0496" unicode="&#x496;" horiz-adv-x="962" 
d="M835 165v-75q0 -50 7 -68t34 -18h86v-192h-4q0 44 -10.5 84t-40.5 72t-74 32q-31 0 -50.5 3.5t-40 15t-30.5 38.5t-10 70v101q0 62 -30.5 89.5t-95.5 27.5h-37v-341h82v-4h-293v4h82v341h-37q-65 0 -95.5 -27.5t-30.5 -89.5v-51q0 -94 -48 -138.5t-116 -44.5
q-56 0 -89 33l3 3q30 -28 59 -28q26 0 42 25.5t16 62.5v75q0 184 227 184q-36 12 -54 46q-8 14 -14 55q-1 11 -4 47t-5.5 55.5t-12 45.5t-25.5 41q-24 24 -51 24q-16 0 -16 -17q0 -12 16 -29.5t16 -34.5q0 -27 -19 -47t-46 -20q-28 0 -47.5 22t-19.5 51q0 43 28 64t60 21
q51 0 82 -31q16 -16 25.5 -42.5t12.5 -45t6 -56.5t4 -48q5 -36 14 -53q11 -21 33 -34.5t43 -13.5h43v314h-82v4h293v-4h-82v-314h43q21 0 43 13.5t33 34.5q9 17 14 53q1 10 4 48t6 56.5t12.5 45t25.5 42.5q31 31 82 31q32 0 60 -21t28 -64q0 -29 -19.5 -51t-47.5 -22
q-27 0 -46 20t-19 47q0 17 16 34.5t16 29.5q0 17 -16 17q-27 0 -51 -24q-16 -15 -25.5 -41t-12 -45.5t-5.5 -55.5t-4 -47q-6 -41 -14 -55q-18 -34 -54 -46q227 0 227 -184z" />
    <glyph glyph-name="uni0497" unicode="&#x497;" horiz-adv-x="688" 
d="M505 109v36q0 41 -15 58t-55 17h-41v-216h61v-4h-222v4h61v216h-41q-40 0 -55 -17t-15 -58v-36q0 -59 -34 -87t-78 -28q-28 0 -48.5 11.5t-25.5 27.5l4 1q3 -10 14.5 -19.5t27.5 -9.5q17 0 27.5 15t10.5 38v47q0 59 36 88.5t119 29.5q-39 11 -44 64q0 3 -3 29.5t-5 37
t-8.5 28t-16.5 27.5q-12 12 -28 12q-4 0 -7.5 -3.5t-3.5 -6.5q0 -9 13 -20t13 -24q0 -19 -13.5 -33t-33.5 -14t-33.5 15.5t-13.5 36.5q0 25 17 42t43 17q32 0 50 -19q7 -7 12.5 -17.5t8.5 -19t5.5 -23t3.5 -22t2.5 -23.5t1.5 -20q8 -63 58 -63h40v198h-61v4h222v-4h-61v-198
h40q50 0 58 63q0 4 1.5 20t2.5 23.5t3.5 22t5.5 23t8.5 19t12.5 17.5q18 19 50 19q26 0 43 -17t17 -42q0 -21 -13.5 -36.5t-33.5 -15.5t-33.5 14t-13.5 33q0 13 13 24t13 20q0 3 -3.5 6.5t-7.5 3.5q-16 0 -28 -12q-10 -10 -16.5 -27.5t-8.5 -28t-5 -37t-3 -29.5
q-5 -53 -44 -64q83 0 119 -29.5t36 -88.5v-47q0 -36 2.5 -45t14.5 -9h58v-147h-3q0 47 -24.5 92t-64.5 50q-85 11 -85 110z" />
    <glyph glyph-name="uni0498" unicode="&#x498;" horiz-adv-x="552" 
d="M511 183q0 -75 -70 -137t-193 -62q-76 0 -135.5 44.5t-59.5 110.5q0 36 22.5 62t58.5 26q27 0 46 -19.5t19 -47.5q0 -13 -3.5 -23t-7 -16t-13.5 -12.5t-14.5 -8.5t-19 -8t-18.5 -8q-15 -7 -15 -28t43.5 -45t96.5 -24q136 0 136 193q0 106 -24 140t-97 34h-57v4h67
q54 0 75.5 32.5t21.5 118.5q0 92 -20.5 131t-88.5 39q-64 0 -111.5 -52.5t-47.5 -120.5h-4v174h4q4 -22 39 -22q23 0 60 12.5t61 12.5q99 0 161.5 -46.5t62.5 -123.5q0 -64 -57 -107t-132 -50q101 -7 157.5 -51t56.5 -122zM386 -161l2 -2q-46 -37 -91 -37q-36 0 -60.5 16.5
t-24.5 49.5q0 40 35 71.5t101 62.5h8q-74 -53 -74 -127q0 -12 3 -23.5t15 -23t32 -11.5t54 24z" />
    <glyph glyph-name="uni0499" unicode="&#x499;" horiz-adv-x="400" 
d="M363 120q0 -51 -52 -90t-136 -39q-47 0 -91.5 28.5t-44.5 69.5q0 23 14 39.5t37 16.5q18 0 30.5 -12.5t12.5 -30.5q0 -7 -1 -12.5t-4.5 -9.5t-6 -7t-8.5 -6t-8.5 -4.5t-10.5 -4.5t-10 -4q-8 -4 -8 -18q0 -13 32.5 -27t66.5 -14q89 0 89 114q0 72 -15 93.5t-61 21.5h-56v4
h62q34 0 47.5 22t13.5 83q0 98 -72 98q-40 0 -79.5 -35t-39.5 -84h-4v124h4q0 -14 21 -14q23 0 53 6.5t45 6.5q75 0 119 -28t44 -73q0 -84 -121 -107q62 -4 100 -33.5t38 -73.5zM281 -161l2 -2q-46 -37 -91 -37q-36 0 -60.5 16.5t-24.5 49.5q0 40 35 71.5t101 62.5h8
q-74 -53 -74 -127q0 -12 3 -23.5t15 -23t32 -11.5t54 24z" />
    <glyph glyph-name="uni049A" unicode="&#x49a;" horiz-adv-x="693" 
d="M607 4h86v-192h-4q0 32 -6 62.5t-19 60t-39 47.5t-61 18q-32 0 -51 3.5t-40 15t-30.5 38.5t-9.5 70v101q0 62 -30.5 89.5t-95.5 27.5h-51v-341h91v-4h-310v4h90v659h-90v4h301v-4h-82v-314h56q22 0 44 13.5t33 34.5q9 17 14 53q1 10 4 48t6 56.5t12.5 45t25.5 42.5
q30 31 82 31q34 0 63 -24t29 -72q0 -30 -20 -53.5t-50 -23.5q-28 0 -48.5 21t-20.5 49q0 18 18 41.5t18 33.5q0 18 -18 18q-26 0 -50 -24q-16 -15 -25.5 -41t-12 -45.5t-5.5 -55.5t-4 -47q-6 -41 -14 -55q-18 -34 -54 -46q227 0 227 -184v-75q0 -50 7 -68t34 -18z" />
    <glyph glyph-name="uni049B" unicode="&#x49b;" horiz-adv-x="484" 
d="M386 -1q-85 11 -85 110v36q0 41 -15 58t-55 17h-51v-216h61v-4h-222v4h61v418h-61v4h222v-4h-61v-198h50q50 0 58 63q0 4 1.5 20t2.5 23.5t3.5 22t5.5 23t8.5 19t12.5 17.5q18 19 50 19q24 0 43 -18t19 -42q0 -21 -13.5 -36.5t-33.5 -15.5t-33.5 14t-13.5 33
q0 13 12 24.5t12 20.5q0 3 -3.5 6.5t-7.5 3.5q-16 0 -28 -12q-10 -10 -16.5 -27.5t-8.5 -28t-5 -37t-3 -29.5q-5 -53 -44 -64q83 0 119 -29.5t36 -88.5v-47q0 -36 2.5 -45t14.5 -9h58v-147h-3q0 47 -24.5 92t-64.5 50z" />
    <glyph glyph-name="uni04A0" unicode="&#x4a0;" horiz-adv-x="790" 
d="M19 667h426v-4h-82v-314h56q25 0 46 14.5t31 33.5t14 53q1 9 4 47.5t6 57t12.5 45t24.5 41.5q32 32 83 32q34 0 63 -24t29 -72q0 -30 -20 -53.5t-50 -23.5q-28 0 -48.5 21t-20.5 49q0 18 18 41.5t18 33.5q0 18 -18 18q-26 0 -50 -24q-16 -15 -25.5 -41t-12 -45.5
t-5.5 -55.5t-4 -47q-6 -41 -14 -55q-18 -34 -54 -46q227 0 227 -184v-75q0 -37 16 -62.5t42 -25.5q31 0 59 28l3 -3q-33 -33 -89 -33q-68 0 -116 44.5t-48 138.5v51q0 62 -30.5 89.5t-95.5 27.5h-51v-341h91v-4h-310v4h90v659h-3q-98 0 -153 -66t-55 -155h-4v225z" />
    <glyph glyph-name="uni04A1" unicode="&#x4a1;" horiz-adv-x="564" 
d="M12 426h309v-4h-61v-198h50q50 0 58 63q0 4 1.5 20t2.5 23.5t3.5 22t5.5 23t8.5 19t12.5 17.5q18 19 50 19q24 0 43 -18t19 -42q0 -21 -13.5 -36.5t-33.5 -15.5t-33.5 14t-13.5 33q0 13 12 24.5t12 20.5q0 3 -3.5 6.5t-7.5 3.5q-16 0 -28 -12q-10 -10 -16.5 -27.5
t-8.5 -28t-5 -37t-3 -29.5q-5 -53 -44 -64q83 0 119 -29.5t36 -88.5v-47q0 -23 10.5 -38t27.5 -15q16 0 27.5 9.5t14.5 19.5l4 -1q-5 -16 -25.5 -27.5t-48.5 -11.5q-44 0 -78 28t-34 87v36q0 41 -15 58t-55 17h-51v-216h61v-4h-222v4h61v418h-10q-63 0 -98.5 -41.5
t-35.5 -98.5h-4v144z" />
    <glyph glyph-name="uni04A2" unicode="&#x4a2;" horiz-adv-x="749" 
d="M538 0h-127v4h81v341h-236v-341h82v-4h-301v4h90v659h-90v4h301v-4h-82v-314h236v314h-81v4h301v-4h-90v-659h101v-192h-4q0 73 -48 130.5t-133 57.5z" />
    <glyph glyph-name="uni04A3" unicode="&#x4a3;" horiz-adv-x="537" 
d="M376 0h-80v4h61v216h-177v-216h61v-4h-222v4h61v418h-61v4h222v-4h-61v-198h177v198h-61v4h222v-4h-61v-418h61v-147h-4q0 56 -36.5 99.5t-101.5 43.5z" />
    <glyph glyph-name="uni04A4" unicode="&#x4a4;" horiz-adv-x="941" 
d="M712 0h-301v4h81v341h-236v-341h82v-4h-301v4h90v659h-90v4h301v-4h-82v-314h236v314h-81v4h511v-225h-4q0 88 -56.5 154.5t-155.5 66.5h-84v-659h90v-4z" />
    <glyph glyph-name="uni04A5" unicode="&#x4a5;" horiz-adv-x="672" 
d="M518 0h-222v4h61v216h-177v-216h61v-4h-222v4h61v418h-61v4h222v-4h-61v-198h177v198h-61v4h364v-150h-4q0 56 -40.5 101t-103.5 45h-55v-418h61v-4z" />
    <glyph glyph-name="uni04AA" unicode="&#x4aa;" horiz-adv-x="627" 
d="M581 -14h-3q-2 10 -14 19t-30 9q-21 0 -81 -15t-88 -15q-134 0 -226 103.5t-92 245.5q0 143 89.5 246.5t223.5 103.5q24 0 76.5 -12.5t74.5 -12.5q19 0 32.5 7t15.5 15h4v-219h-4q0 72 -64.5 145t-134.5 73q-71 0 -106 -36q-65 -65 -65 -310q0 -244 65 -309
q36 -37 111 -37q87 0 150 75.5t63 170.5h4zM476 -161l2 -2q-46 -37 -91 -37q-36 0 -60.5 16.5t-24.5 49.5q0 40 35 71.5t101 62.5h8q-74 -53 -74 -127q0 -12 3 -23.5t15 -23t32 -11.5t54 24z" />
    <glyph glyph-name="uni04AB" unicode="&#x4ab;" horiz-adv-x="441" 
d="M419 86q-29 -43 -74.5 -69t-96.5 -26q-87 0 -148 65t-61 157t61 157t148 65q66 0 108.5 -31t42.5 -70q0 -46 -45 -46q-20 0 -31.5 11t-11.5 27q0 12 6 25t6 29q0 51 -75 51q-42 0 -65 -23q-21 -22 -30 -64.5t-9 -130.5t9 -130.5t30 -64.5q23 -23 65 -23q51 0 95.5 25.5
t71.5 67.5zM334 -161l2 -2q-46 -37 -91 -37q-36 0 -60.5 16.5t-24.5 49.5q0 40 35 71.5t101 62.5h8q-74 -53 -74 -127q0 -12 3 -23.5t15 -23t32 -11.5t54 24z" />
    <glyph glyph-name="uni04AE" unicode="&#x4ae;" horiz-adv-x="630" 
d="M654 663h-60q-24 0 -42 -39l-150 -317v-303h91v-4h-310v4h90v287l-195 372h-93v4h342v-4h-108l181 -349l148 310q8 17 9 26t-2.5 11t-10.5 2h-80v4h190v-4z" />
    <glyph glyph-name="uni04AF" unicode="&#x4af;" horiz-adv-x="415" 
d="M443 422h-35q-15 0 -23.5 -7.5t-18.5 -33.5l-93 -362v-324h61v-4h-222v4h61v296l-151 431h-54v4h223v-4h-58l136 -396l93 354q5 20 5 29.5t-3 11t-11 1.5h-38v4h128v-4z" />
    <glyph glyph-name="uni04B0" unicode="&#x4b0;" horiz-adv-x="630" 
d="M114 204h159v87l-195 372h-93v4h342v-4h-108l181 -349l148 310q8 17 9 26t-2.5 11t-10.5 2h-80v4h190v-4h-60q-24 0 -42 -39l-150 -317v-103h152v-4h-152v-196h91v-4h-310v4h90v196h-159v4z" />
    <glyph glyph-name="uni04B1" unicode="&#x4b1;" horiz-adv-x="415" 
d="M56 -118h117v109l-151 431h-54v4h223v-4h-58l136 -396l93 354q5 20 5 29.5t-3 11t-11 1.5h-38v4h128v-4h-35q-15 0 -23.5 -7.5t-18.5 -33.5l-93 -362v-137h110v-4h-110v-183h61v-4h-222v4h61v183h-117v4z" />
    <glyph glyph-name="uni04BA" unicode="&#x4ba;" horiz-adv-x="715" 
d="M127 4v659h-90v4h329v-4h-109v-307q60 17 100 17q120 0 185 -39t65 -137v-193h91v-4h-311v4h91v210q0 89 -25 122t-96 33q-45 0 -100 -17v-348h91v-4h-311v4h90z" />
    <glyph glyph-name="uni04BB" unicode="&#x4bb;" horiz-adv-x="528" 
d="M519 0h-223v4h62v325q0 50 -18.5 76t-46.5 26q-87 0 -113 -84v-343h61v-4h-222v4h61v727h-61v4h161v-378q13 39 44.5 58.5t68.5 19.5q77 0 120.5 -44t43.5 -123v-264h62v-4z" />
    <glyph glyph-name="uni04C0" unicode="&#x4c0;" horiz-adv-x="383" 
d="M347 0h-310v4h90v659h-90v4h310v-4h-90v-659h90v-4z" />
    <glyph glyph-name="uni04CF" unicode="&#x4cf;" horiz-adv-x="250" 
d="M180 731v-727h62v-4h-223v4h61v727h-61v4h223v-4h-62z" />
    <glyph glyph-name="uni04D0" unicode="&#x4d0;" horiz-adv-x="632" 
d="M660 0h-320v4h95l-81 227h-207l-70 -188q-8 -25 -5.5 -32t13.5 -7h71v-4h-178v4h57q13 0 21 7t17 32l234 637h4l263 -676h86v-4zM352 235l-100 284l-104 -284h204zM449 895q0 -59 -33.5 -107t-106.5 -48t-106.5 48t-33.5 107q0 1 2 1t2 -1q0 -34 33 -63.5t103 -29.5
t103 29.5t33 63.5q0 1 2 1t2 -1z" />
    <glyph glyph-name="uni04D1" unicode="&#x4d1;" horiz-adv-x="436" 
d="M437 31q-5 -15 -26 -27t-48 -12q-32 0 -56.5 18.5t-29.5 46.5q-20 -65 -104 -65q-55 0 -97 27t-42 78q0 34 15 60t38 39t43 19.5t38 8.5q83 8 97 18q7 5 7 12v76q0 102 -64 102q-62 0 -62 -46q0 -8 6 -22t6 -23q0 -16 -12 -26.5t-35 -10.5q-22 0 -33 14t-11 33
q0 31 39.5 58t101.5 27q78 0 121 -45t43 -136v-215q0 -34 26 -34q12 0 22 8.5t13 17.5zM272 70v171q-10 -7 -23.5 -10.5t-34 -6t-28.5 -4.5q-27 -5 -40.5 -31.5t-13.5 -91.5q0 -59 15.5 -78t43.5 -19q36 0 58.5 20.5t22.5 49.5zM358 674q0 -59 -33.5 -107t-106.5 -48
t-106.5 48t-33.5 107q0 2 2 2t2 -2q0 -34 33 -63.5t103 -29.5t103 29.5t33 63.5q0 2 2 2t2 -2z" />
    <glyph glyph-name="uni04D2" unicode="&#x4d2;" horiz-adv-x="632" 
d="M660 0h-320v4h95l-81 227h-207l-70 -188q-8 -25 -5.5 -32t13.5 -7h71v-4h-178v4h57q13 0 21 7t17 32l234 637h4l263 -676h86v-4zM352 235l-100 284l-104 -284h204zM270 806q0 -25 -17 -42.5t-42 -17.5q-23 0 -39 17.5t-16 42.5q0 23 16 39.5t39 16.5q25 0 42 -16.5
t17 -39.5zM270 806q0 -25 -17 -42.5t-42 -17.5q-23 0 -39 17.5t-16 42.5q0 23 16 39.5t39 16.5q25 0 42 -16.5t17 -39.5zM463 806q0 -25 -17 -42.5t-42 -17.5q-23 0 -39 17.5t-16 42.5q0 23 16 39.5t39 16.5q25 0 42 -16.5t17 -39.5q0 -25 -17 -42.5t-42 -17.5
q-23 0 -39 17.5t-16 42.5q0 23 16 39.5t39 16.5q25 0 42 -16.5t17 -39.5z" />
    <glyph glyph-name="uni04D3" unicode="&#x4d3;" horiz-adv-x="436" 
d="M437 31q-5 -15 -26 -27t-48 -12q-32 0 -56.5 18.5t-29.5 46.5q-20 -65 -104 -65q-55 0 -97 27t-42 78q0 34 15 60t38 39t43 19.5t38 8.5q83 8 97 18q7 5 7 12v76q0 102 -64 102q-62 0 -62 -46q0 -8 6 -22t6 -23q0 -16 -12 -26.5t-35 -10.5q-22 0 -33 14t-11 33
q0 31 39.5 58t101.5 27q78 0 121 -45t43 -136v-215q0 -34 26 -34q12 0 22 8.5t13 17.5zM272 70v171q-10 -7 -23.5 -10.5t-34 -6t-28.5 -4.5q-27 -5 -40.5 -31.5t-13.5 -91.5q0 -59 15.5 -78t43.5 -19q36 0 58.5 20.5t22.5 49.5zM181 594q0 -22 -14.5 -37.5t-35.5 -15.5
t-36 15.5t-15 37.5t15 37.5t36 15.5t35.5 -15.5t14.5 -37.5zM354 594q0 -22 -14.5 -37.5t-35.5 -15.5t-36 15.5t-15 37.5t15 37.5t36 15.5t35.5 -15.5t14.5 -37.5z" />
    <glyph glyph-name="uni04D4" unicode="&#x4d4;" horiz-adv-x="900" 
d="M878 0h-561v4h91v275h-218l-133 -236q-19 -34 -14 -38q3 -1 9 -1h76v-4h-178v4h62q11 0 18.5 7t22.5 32l351 620h-87v4h510v-197h-4q0 73 -50 133t-134 60h-102v-319h25q56 0 94.5 38.5t38.5 88.5h4v-257h-4q0 50 -38.5 88.5t-94.5 38.5h-25v-337h105q110 0 171 65
t61 146h4v-215zM408 283v379l-216 -379h216z" />
    <glyph glyph-name="uni04D5" unicode="&#x4d5;" horiz-adv-x="705" 
d="M671 241v-3h-285q-1 -8 -1 -25q0 -92 13.5 -141t34 -63t56.5 -14q52 0 96.5 25.5t71.5 67.5l3 -2q-28 -43 -73.5 -69t-97.5 -26q-62 0 -103 28.5t-51 73.5q-8 -39 -55.5 -70.5t-101.5 -31.5q-56 0 -100 27.5t-44 77.5q0 35 14.5 60.5t38 39t42.5 19.5t38 8q98 9 113 20
q5 5 6 10v76q0 102 -72 102q-68 0 -68 -45q0 -8 5.5 -23t5.5 -23q0 -16 -11.5 -26.5t-34.5 -10.5q-22 0 -33 14t-11 33q0 31 40.5 58t106.5 27q93 0 129 -67q40 67 146 67q85 0 133.5 -63.5t48.5 -130.5zM577 242q-2 106 -22 147.5t-66 41.5q-54 0 -77.5 -42t-25.5 -151
l-3 4h194zM286 108v132q-18 -11 -53 -16t-49 -11q-18 -8 -26.5 -15t-17 -32.5t-8.5 -69.5q0 -59 15 -80t42 -21q39 0 68 26.5t29 86.5z" />
    <glyph glyph-name="uni04D6" unicode="&#x4d6;" horiz-adv-x="619" 
d="M597 0h-561v4h91v659h-91v4h510v-196h-4q0 72 -50 132t-134 60h-102v-319h24q57 0 95.5 38.5t38.5 88.5h4v-257h-4q0 50 -38.5 88.5t-95.5 38.5h-24v-337h104q110 0 171.5 65t61.5 146h4v-215zM449 895q0 -59 -33.5 -107t-106.5 -48t-106.5 48t-33.5 107q0 1 2 1t2 -1
q0 -34 33 -63.5t103 -29.5t103 29.5t33 63.5q0 1 2 1t2 -1z" />
    <glyph glyph-name="uni04D7" unicode="&#x4d7;" horiz-adv-x="464" 
d="M430 238h-286v-25q0 -88 9 -130.5t31 -64.5q23 -23 64 -23q52 0 96.5 25.5t71.5 67.5l3 -2q-29 -44 -74 -69.5t-97 -25.5q-86 0 -147 65t-61 157t61 157t147 65q85 0 133.5 -63.5t48.5 -130.5v-3zM336 242q-3 129 -33 166q-20 23 -55 23q-41 0 -64 -23q-36 -36 -39 -166
h191zM372 674q0 -59 -33.5 -107t-106.5 -48t-106.5 48t-33.5 107q0 2 2 2t2 -2q0 -34 33 -63.5t103 -29.5t103 29.5t33 63.5q0 2 2 2t2 -2z" />
    <glyph glyph-name="uni04D8" unicode="&#x4d8;" horiz-adv-x="683" 
d="M40 333v16h454q-1 233 -61 294q-36 36 -111 36q-70 0 -134 -73t-64 -145h-4v219h4q2 -8 15 -15t33 -7q22 0 74 12.5t76 12.5q135 0 224.5 -103.5t89.5 -246.5q0 -144 -84.5 -246.5t-217.5 -102.5q-127 0 -210.5 101t-83.5 248zM171 345v-12q0 -142 13 -208t48 -101
q35 -36 102 -36q72 0 108 36q32 32 42 101.5t10 207.5v12h-323z" />
    <glyph glyph-name="afii10846" unicode="&#x4d9;" horiz-adv-x="470" 
d="M286 408q-23 23 -64 23q-52 0 -96.5 -25.5t-71.5 -67.5l-3 2q29 44 74 69.5t97 25.5q86 0 147 -65t61 -157t-61 -157t-147 -65q-85 0 -133.5 63.5t-48.5 130.5v39h286q-1 144 -40 184zM326 188v25v7h-192v-36q0 -125 33 -166q20 -23 55 -23q41 0 64 23q37 37 40 170z" />
    <glyph glyph-name="uni04DA" unicode="&#x4da;" horiz-adv-x="683" 
d="M40 333v16h454q-1 233 -61 294q-36 36 -111 36q-70 0 -134 -73t-64 -145h-4v219h4q2 -8 15 -15t33 -7q22 0 74 12.5t76 12.5q135 0 224.5 -103.5t89.5 -246.5q0 -144 -84.5 -246.5t-217.5 -102.5q-127 0 -210.5 101t-83.5 248zM171 345v-12q0 -142 13 -208t48 -101
q35 -36 102 -36q72 0 108 36q32 32 42 101.5t10 207.5v12h-323zM295 806q0 -25 -17 -42.5t-42 -17.5q-23 0 -39 17.5t-16 42.5q0 23 16 39.5t39 16.5q25 0 42 -16.5t17 -39.5zM295 806q0 -25 -17 -42.5t-42 -17.5q-23 0 -39 17.5t-16 42.5q0 23 16 39.5t39 16.5
q25 0 42 -16.5t17 -39.5zM488 806q0 -25 -17 -42.5t-42 -17.5q-23 0 -39 17.5t-16 42.5q0 23 16 39.5t39 16.5q25 0 42 -16.5t17 -39.5q0 -25 -17 -42.5t-42 -17.5q-23 0 -39 17.5t-16 42.5q0 23 16 39.5t39 16.5q25 0 42 -16.5t17 -39.5z" />
    <glyph glyph-name="uni04DB" unicode="&#x4db;" horiz-adv-x="470" 
d="M286 408q-23 23 -64 23q-52 0 -96.5 -25.5t-71.5 -67.5l-3 2q29 44 74 69.5t97 25.5q86 0 147 -65t61 -157t-61 -157t-147 -65q-85 0 -133.5 63.5t-48.5 130.5v39h286q-1 144 -40 184zM326 188v25v7h-192v-36q0 -125 33 -166q20 -23 55 -23q41 0 64 23q37 37 40 170z
M188 594q0 -22 -14.5 -37.5t-35.5 -15.5t-36 15.5t-15 37.5t15 37.5t36 15.5t35.5 -15.5t14.5 -37.5zM361 594q0 -22 -14.5 -37.5t-35.5 -15.5t-36 15.5t-15 37.5t15 37.5t36 15.5t35.5 -15.5t14.5 -37.5z" />
    <glyph glyph-name="uni04DC" unicode="&#x4dc;" horiz-adv-x="949" 
d="M328 0v4h82v341h-37q-65 0 -95.5 -27.5t-30.5 -89.5v-51q0 -94 -48 -138.5t-116 -44.5q-56 0 -89 33l3 3q30 -28 59 -28q26 0 42 25.5t16 62.5v75q0 184 227 184q-36 12 -54 46q-8 14 -14 55q-1 11 -4 47t-5.5 55.5t-12 45.5t-25.5 41q-24 24 -51 24q-16 0 -16 -17
q0 -12 16 -29.5t16 -34.5q0 -27 -19 -47t-46 -20q-28 0 -47.5 22t-19.5 51q0 43 28 64t60 21q51 0 82 -31q16 -16 25.5 -42.5t12.5 -45t6 -56.5t4 -48q5 -36 14 -53q11 -21 33 -34.5t43 -13.5h43v314h-82v4h293v-4h-82v-314h43q21 0 43 13.5t33 34.5q9 17 14 53q1 10 4 48
t6 56.5t12.5 45t25.5 42.5q31 31 82 31q32 0 60 -21t28 -64q0 -29 -19.5 -51t-47.5 -22q-27 0 -46 20t-19 47q0 17 16 34.5t16 29.5q0 17 -16 17q-27 0 -51 -24q-16 -15 -25.5 -41t-12 -45.5t-5.5 -55.5t-4 -47q-6 -41 -14 -55q-18 -34 -54 -46q227 0 227 -184v-75
q0 -37 16 -62.5t42 -25.5q29 0 59 28l3 -3q-33 -33 -89 -33q-68 0 -116 44.5t-48 138.5v51q0 62 -30.5 89.5t-95.5 27.5h-37v-341h82v-4h-293zM434 806q0 -25 -17 -42.5t-42 -17.5q-23 0 -39 17.5t-16 42.5q0 23 16 39.5t39 16.5q25 0 42 -16.5t17 -39.5zM434 806
q0 -25 -17 -42.5t-42 -17.5q-23 0 -39 17.5t-16 42.5q0 23 16 39.5t39 16.5q25 0 42 -16.5t17 -39.5zM627 806q0 -25 -17 -42.5t-42 -17.5q-23 0 -39 17.5t-16 42.5q0 23 16 39.5t39 16.5q25 0 42 -16.5t17 -39.5q0 -25 -17 -42.5t-42 -17.5q-23 0 -39 17.5t-16 42.5
q0 23 16 39.5t39 16.5q25 0 42 -16.5t17 -39.5z" />
    <glyph glyph-name="uni04DD" unicode="&#x4dd;" horiz-adv-x="688" 
d="M691 33q-5 -16 -25.5 -27.5t-48.5 -11.5q-45 0 -78.5 28t-33.5 87v36q0 41 -15 58t-55 17h-41v-216h61v-4h-222v4h61v216h-41q-40 0 -55 -17t-15 -58v-36q0 -59 -34 -87t-78 -28q-28 0 -48.5 11.5t-25.5 27.5l4 1q3 -10 14.5 -19.5t27.5 -9.5q17 0 27.5 15t10.5 38v47
q0 59 36 88.5t119 29.5q-39 11 -44 64q0 3 -3 29.5t-5 37t-8.5 28t-16.5 27.5q-12 12 -28 12q-4 0 -7.5 -3.5t-3.5 -6.5q0 -9 13 -20t13 -24q0 -19 -13.5 -33t-33.5 -14t-33.5 15.5t-13.5 36.5q0 25 17 42t43 17q32 0 50 -19q7 -7 12.5 -17.5t8.5 -19t5.5 -23t3.5 -22
t2.5 -23.5t1.5 -20q8 -63 58 -63h40v198h-61v4h222v-4h-61v-198h40q50 0 58 63q0 4 1.5 20t2.5 23.5t3.5 22t5.5 23t8.5 19t12.5 17.5q18 19 50 19q26 0 43 -17t17 -42q0 -21 -13.5 -36.5t-33.5 -15.5t-33.5 14t-13.5 33q0 13 13 24t13 20q0 3 -3.5 6.5t-7.5 3.5
q-16 0 -28 -12q-10 -10 -16.5 -27.5t-8.5 -28t-5 -37t-3 -29.5q-5 -53 -44 -64q83 0 119 -29.5t36 -88.5v-47q0 -23 10.5 -38t27.5 -15q16 0 27.5 9.5t14.5 19.5zM307 594q0 -22 -14.5 -37.5t-35.5 -15.5t-36 15.5t-15 37.5t15 37.5t36 15.5t35.5 -15.5t14.5 -37.5zM480 594
q0 -22 -14.5 -37.5t-35.5 -15.5t-36 15.5t-15 37.5t15 37.5t36 15.5t35.5 -15.5t14.5 -37.5z" />
    <glyph glyph-name="uni04E4" unicode="&#x4e4;" horiz-adv-x="749" 
d="M712 0h-301v4h81v566l-236 -479v-87h82v-4h-301v4h90v659h-90v4h301v-4h-82v-563l236 479v84h-81v4h301v-4h-90v-659h90v-4zM334 806q0 -25 -17 -42.5t-42 -17.5q-23 0 -39 17.5t-16 42.5q0 23 16 39.5t39 16.5q25 0 42 -16.5t17 -39.5zM334 806q0 -25 -17 -42.5
t-42 -17.5q-23 0 -39 17.5t-16 42.5q0 23 16 39.5t39 16.5q25 0 42 -16.5t17 -39.5zM527 806q0 -25 -17 -42.5t-42 -17.5q-23 0 -39 17.5t-16 42.5q0 23 16 39.5t39 16.5q25 0 42 -16.5t17 -39.5q0 -25 -17 -42.5t-42 -17.5q-23 0 -39 17.5t-16 42.5q0 23 16 39.5t39 16.5
q25 0 42 -16.5t17 -39.5z" />
    <glyph glyph-name="uni04E5" unicode="&#x4e5;" horiz-adv-x="537" 
d="M518 0h-222v4h61v375l-177 -332v-43h61v-4h-222v4h61v418h-61v4h222v-4h-61v-367l177 333v34h-61v4h222v-4h-61v-418h61v-4zM232 594q0 -22 -14.5 -37.5t-35.5 -15.5t-36 15.5t-15 37.5t15 37.5t36 15.5t35.5 -15.5t14.5 -37.5zM405 594q0 -22 -14.5 -37.5t-35.5 -15.5
t-36 15.5t-15 37.5t15 37.5t36 15.5t35.5 -15.5t14.5 -37.5z" />
    <glyph glyph-name="uni04E6" unicode="&#x4e6;" horiz-adv-x="720" 
d="M673 333q0 -145 -92 -247t-222 -102q-129 0 -220.5 102t-91.5 247q0 143 89.5 246.5t222.5 103.5q131 0 222.5 -102.5t91.5 -247.5zM532 333q0 244 -66 310q-35 36 -107 36q-70 0 -105 -36q-66 -66 -66 -310q0 -139 15 -206t51 -103q35 -36 105 -36q72 0 107 36
q36 36 51 103t15 206zM319 806q0 -25 -17 -42.5t-42 -17.5q-23 0 -39 17.5t-16 42.5q0 23 16 39.5t39 16.5q25 0 42 -16.5t17 -39.5zM319 806q0 -25 -17 -42.5t-42 -17.5q-23 0 -39 17.5t-16 42.5q0 23 16 39.5t39 16.5q25 0 42 -16.5t17 -39.5zM512 806q0 -25 -17 -42.5
t-42 -17.5q-23 0 -39 17.5t-16 42.5q0 23 16 39.5t39 16.5q25 0 42 -16.5t17 -39.5q0 -25 -17 -42.5t-42 -17.5q-23 0 -39 17.5t-16 42.5q0 23 16 39.5t39 16.5q25 0 42 -16.5t17 -39.5z" />
    <glyph glyph-name="uni04E7" unicode="&#x4e7;" horiz-adv-x="497" 
d="M457 213q0 -92 -61 -157t-148 -65q-86 0 -147 65t-61 157t61 157t147 65q87 0 148 -65t61 -157zM352 213q0 155 -39 195q-23 23 -65 23q-41 0 -64 -23q-39 -40 -39 -195q0 -88 9 -130.5t30 -64.5q23 -23 64 -23q42 0 65 23q21 22 30 64.5t9 130.5zM212 594
q0 -22 -14.5 -37.5t-35.5 -15.5t-36 15.5t-15 37.5t15 37.5t36 15.5t35.5 -15.5t14.5 -37.5zM385 594q0 -22 -14.5 -37.5t-35.5 -15.5t-36 15.5t-15 37.5t15 37.5t36 15.5t35.5 -15.5t14.5 -37.5z" />
    <glyph glyph-name="uni04E8" unicode="&#x4e8;" horiz-adv-x="720" 
d="M673 333q0 -145 -92 -247t-222 -102q-129 0 -220.5 102t-91.5 247q0 143 89.5 246.5t222.5 103.5q131 0 222.5 -102.5t91.5 -247.5zM532 333v12h-344v-12q0 -139 15 -206t51 -103q35 -36 105 -36q72 0 107 36q36 36 51 103t15 206zM254 643q-65 -65 -66 -294h344
q-3 229 -66 294q-35 36 -107 36q-70 0 -105 -36z" />
    <glyph glyph-name="uni04E9" unicode="&#x4e9;" horiz-adv-x="497" 
d="M457 213q0 -92 -61 -157t-148 -65q-86 0 -147 65t-61 157t61 157t147 65q87 0 148 -65t61 -157zM352 213v7h-207v-7q0 -88 9 -130.5t30 -64.5q23 -23 64 -23q42 0 65 23q21 22 30 64.5t9 130.5zM184 408q-38 -39 -39 -184h207q-1 145 -39 184q-23 23 -65 23
q-41 0 -64 -23z" />
    <glyph glyph-name="uni04EA" unicode="&#x4ea;" horiz-adv-x="720" 
d="M673 333q0 -145 -92 -247t-222 -102q-129 0 -220.5 102t-91.5 247q0 143 89.5 246.5t222.5 103.5q131 0 222.5 -102.5t91.5 -247.5zM532 333v12h-344v-12q0 -139 15 -206t51 -103q35 -36 105 -36q72 0 107 36q36 36 51 103t15 206zM254 643q-65 -65 -66 -294h344
q-3 229 -66 294q-35 36 -107 36q-70 0 -105 -36zM319 806q0 -25 -17 -42.5t-42 -17.5q-23 0 -39 17.5t-16 42.5q0 23 16 39.5t39 16.5q25 0 42 -16.5t17 -39.5zM319 806q0 -25 -17 -42.5t-42 -17.5q-23 0 -39 17.5t-16 42.5q0 23 16 39.5t39 16.5q25 0 42 -16.5t17 -39.5z
M512 806q0 -25 -17 -42.5t-42 -17.5q-23 0 -39 17.5t-16 42.5q0 23 16 39.5t39 16.5q25 0 42 -16.5t17 -39.5q0 -25 -17 -42.5t-42 -17.5q-23 0 -39 17.5t-16 42.5q0 23 16 39.5t39 16.5q25 0 42 -16.5t17 -39.5z" />
    <glyph glyph-name="uni04EB" unicode="&#x4eb;" horiz-adv-x="497" 
d="M457 213q0 -92 -61 -157t-148 -65q-86 0 -147 65t-61 157t61 157t147 65q87 0 148 -65t61 -157zM352 213v7h-207v-7q0 -88 9 -130.5t30 -64.5q23 -23 64 -23q42 0 65 23q21 22 30 64.5t9 130.5zM184 408q-38 -39 -39 -184h207q-1 145 -39 184q-23 23 -65 23
q-41 0 -64 -23zM212 594q0 -22 -14.5 -37.5t-35.5 -15.5t-36 15.5t-15 37.5t15 37.5t36 15.5t35.5 -15.5t14.5 -37.5zM385 594q0 -22 -14.5 -37.5t-35.5 -15.5t-36 15.5t-15 37.5t15 37.5t36 15.5t35.5 -15.5t14.5 -37.5z" />
    <glyph glyph-name="uni04EC" unicode="&#x4ec;" horiz-adv-x="627" 
d="M581 333q0 -142 -92 -245.5t-226 -103.5q-73 0 -140.5 50t-67.5 119q0 36 22.5 61.5t58.5 25.5q28 0 46.5 -19t18.5 -47q0 -11 -1.5 -19.5t-7 -15.5t-8.5 -11.5t-13 -9.5t-13.5 -7t-16.5 -7t-16 -6q-18 -9 -18 -29q0 -23 51.5 -52.5t104.5 -29.5q74 0 111 37
q65 65 65 309v12h-239v4h239q-1 229 -65 294q-36 36 -107 36q-69 0 -128.5 -72.5t-59.5 -145.5h-4v219h4q2 -8 15 -15t33 -7q22 0 69 12.5t71 12.5q135 0 224.5 -103.5t89.5 -246.5zM243 806q0 -25 -17 -42.5t-42 -17.5q-23 0 -39 17.5t-16 42.5q0 23 16 39.5t39 16.5
q25 0 42 -16.5t17 -39.5zM243 806q0 -25 -17 -42.5t-42 -17.5q-23 0 -39 17.5t-16 42.5q0 23 16 39.5t39 16.5q25 0 42 -16.5t17 -39.5zM436 806q0 -25 -17 -42.5t-42 -17.5q-23 0 -39 17.5t-16 42.5q0 23 16 39.5t39 16.5q25 0 42 -16.5t17 -39.5q0 -25 -17 -42.5
t-42 -17.5q-23 0 -39 17.5t-16 42.5q0 23 16 39.5t39 16.5q25 0 42 -16.5t17 -39.5z" />
    <glyph glyph-name="uni04ED" unicode="&#x4ed;" horiz-adv-x="441" 
d="M401 213q0 -92 -62 -157t-152 -65q-66 0 -109.5 31t-43.5 70q0 46 45 46q20 0 31.5 -11t11.5 -27q0 -12 -6 -25t-6 -29q0 -51 77 -51q26 0 45 8.5t30.5 26.5t18.5 36.5t10 48t4 50.5t1 54v1h-146v4h146q0 29 -0.5 46t-3.5 45t-10 45t-18 35.5t-30 27t-45 8.5
q-39 0 -83.5 -38.5t-44.5 -84.5h-4v127h4q0 -16 21 -16q23 0 57.5 8t49.5 8q90 0 151 -65t61 -157zM164 594q0 -22 -14.5 -37.5t-35.5 -15.5t-36 15.5t-15 37.5t15 37.5t36 15.5t35.5 -15.5t14.5 -37.5zM337 594q0 -22 -14.5 -37.5t-35.5 -15.5t-36 15.5t-15 37.5t15 37.5
t36 15.5t35.5 -15.5t14.5 -37.5z" />
    <glyph glyph-name="uni04F0" unicode="&#x4f0;" horiz-adv-x="654" 
d="M668 663h-60q-24 0 -42 -39l-250 -561q-14 -31 -42 -53.5t-63 -22.5q-60 0 -99.5 40.5t-39.5 92.5q0 37 24.5 60.5t53.5 23.5t50 -21t21 -50q0 -20 -10 -35.5t-22.5 -24t-22.5 -19.5t-10 -23q0 -41 55 -41q30 0 58.5 21t42.5 54l25 55l-260 543h-91v4h338v-4h-108
l181 -407l165 368q17 39 -11 39h-73v4h190v-4zM336 806q0 -25 -17 -42.5t-42 -17.5q-23 0 -39 17.5t-16 42.5q0 23 16 39.5t39 16.5q25 0 42 -16.5t17 -39.5zM336 806q0 -25 -17 -42.5t-42 -17.5q-23 0 -39 17.5t-16 42.5q0 23 16 39.5t39 16.5q25 0 42 -16.5t17 -39.5z
M529 806q0 -25 -17 -42.5t-42 -17.5q-23 0 -39 17.5t-16 42.5q0 23 16 39.5t39 16.5q25 0 42 -16.5t17 -39.5q0 -25 -17 -42.5t-42 -17.5q-23 0 -39 17.5t-16 42.5q0 23 16 39.5t39 16.5q25 0 42 -16.5t17 -39.5z" />
    <glyph glyph-name="uni04F1" unicode="&#x4f1;" horiz-adv-x="415" 
d="M443 422h-41q-13 0 -19.5 -7.5t-16.5 -33.5l-227 -617q-17 -46 -34 -63.5t-47 -17.5q-31 0 -51 16t-20 45q0 25 15 42.5t36 17.5t32.5 -11t11.5 -28q0 -13 -10 -28t-10 -26q0 -15 17 -15q31 0 55 66l84 229l-196 431h-54v4h220v-4h-58l137 -299l94 257q7 18 6.5 28
t-4.5 12t-11 2h-37v4h128v-4zM201 594q0 -22 -14.5 -37.5t-35.5 -15.5t-36 15.5t-15 37.5t15 37.5t36 15.5t35.5 -15.5t14.5 -37.5zM374 594q0 -22 -14.5 -37.5t-35.5 -15.5t-36 15.5t-15 37.5t15 37.5t36 15.5t35.5 -15.5t14.5 -37.5z" />
    <glyph glyph-name="uni04F2" unicode="&#x4f2;" horiz-adv-x="654" 
d="M668 663h-60q-24 0 -42 -39l-250 -561q-14 -31 -42 -53.5t-63 -22.5q-60 0 -99.5 40.5t-39.5 92.5q0 37 24.5 60.5t53.5 23.5t50 -21t21 -50q0 -20 -10 -35.5t-22.5 -24t-22.5 -19.5t-10 -23q0 -41 55 -41q30 0 58.5 21t42.5 54l25 55l-260 543h-91v4h338v-4h-108
l181 -407l165 368q17 39 -11 39h-73v4h190v-4zM266 729l144 154q20 23 42 23q17 0 28.5 -12t11.5 -28q0 -21 -21 -32l-204 -107zM396 729l144 154q20 23 42 23q17 0 28.5 -12t11.5 -28q0 -21 -21 -32l-204 -107z" />
    <glyph glyph-name="uni04F3" unicode="&#x4f3;" horiz-adv-x="415" 
d="M443 422h-41q-13 0 -19.5 -7.5t-16.5 -33.5l-227 -617q-17 -46 -34 -63.5t-47 -17.5q-31 0 -51 16t-20 45q0 25 15 42.5t36 17.5t32.5 -11t11.5 -28q0 -13 -10 -28t-10 -26q0 -15 17 -15q31 0 55 66l84 229l-196 431h-54v4h220v-4h-58l137 -299l94 257q7 18 6.5 28
t-4.5 12t-11 2h-37v4h128v-4zM86 508l144 154q20 23 42 23q17 0 28.5 -12t11.5 -28q0 -21 -21 -32l-204 -107zM216 508l144 154q20 23 42 23q17 0 28.5 -12t11.5 -28q0 -21 -21 -32l-204 -107z" />
    <glyph glyph-name="uni04F4" unicode="&#x4f4;" horiz-adv-x="715" 
d="M678 0h-329v4h109v312q-63 -22 -122 -22q-116 0 -172 38t-56 139v192h-90v4h310v-4h-91v-239q0 -79 15.5 -102.5t83.5 -23.5q62 0 122 23v342h-81v4h301v-4h-90v-659h90v-4zM317 806q0 -25 -17 -42.5t-42 -17.5q-23 0 -39 17.5t-16 42.5q0 23 16 39.5t39 16.5
q25 0 42 -16.5t17 -39.5zM317 806q0 -25 -17 -42.5t-42 -17.5q-23 0 -39 17.5t-16 42.5q0 23 16 39.5t39 16.5q25 0 42 -16.5t17 -39.5zM510 806q0 -25 -17 -42.5t-42 -17.5q-23 0 -39 17.5t-16 42.5q0 23 16 39.5t39 16.5q25 0 42 -16.5t17 -39.5q0 -25 -17 -42.5
t-42 -17.5q-23 0 -39 17.5t-16 42.5q0 23 16 39.5t39 16.5q25 0 42 -16.5t17 -39.5z" />
    <glyph glyph-name="uni04F5" unicode="&#x4f5;" horiz-adv-x="507" 
d="M234 184q-33 0 -55 2.5t-50.5 11.5t-43.5 31.5t-15 57.5v135h-61v4h212v-4h-51v-159q0 -43 13 -59t51 -16t93 22v212h-51v4h212v-4h-61v-418h61v-4h-232v4h71v202q-60 -22 -93 -22zM217 594q0 -22 -14.5 -37.5t-35.5 -15.5t-36 15.5t-15 37.5t15 37.5t36 15.5t35.5 -15.5
t14.5 -37.5zM390 594q0 -22 -14.5 -37.5t-35.5 -15.5t-36 15.5t-15 37.5t15 37.5t36 15.5t35.5 -15.5t14.5 -37.5z" />
    <glyph glyph-name="uni04F8" unicode="&#x4f8;" horiz-adv-x="904" 
d="M868 0h-302v4h81v659h-81v4h302v-4h-91v-659h91v-4zM568 204q0 -91 -64.5 -147.5t-188.5 -56.5h-278v4h90v659h-90v4h310v-4h-90v-270h52q126 0 192.5 -50.5t66.5 -138.5zM440 204q0 100 -31.5 143t-99.5 43h-52v-386h58q67 0 96 48t29 152zM411 806q0 -25 -17 -42.5
t-42 -17.5q-23 0 -39 17.5t-16 42.5q0 23 16 39.5t39 16.5q25 0 42 -16.5t17 -39.5zM411 806q0 -25 -17 -42.5t-42 -17.5q-23 0 -39 17.5t-16 42.5q0 23 16 39.5t39 16.5q25 0 42 -16.5t17 -39.5zM604 806q0 -25 -17 -42.5t-42 -17.5q-23 0 -39 17.5t-16 42.5q0 23 16 39.5
t39 16.5q25 0 42 -16.5t17 -39.5q0 -25 -17 -42.5t-42 -17.5q-23 0 -39 17.5t-16 42.5q0 23 16 39.5t39 16.5q25 0 42 -16.5t17 -39.5z" />
    <glyph glyph-name="uni04F9" unicode="&#x4f9;" horiz-adv-x="667" 
d="M648 0h-222v4h61v418h-61v4h222v-4h-61v-418h61v-4zM422 132q0 -57 -44 -94.5t-123 -37.5h-236v4h61v418h-61v4h222v-4h-61v-168h61q82 0 131.5 -33.5t49.5 -88.5zM324 132q0 64 -20 91t-64 27h-60v-246h64q43 0 61.5 31t18.5 97zM297 594q0 -22 -14.5 -37.5t-35.5 -15.5
t-36 15.5t-15 37.5t15 37.5t36 15.5t35.5 -15.5t14.5 -37.5zM470 594q0 -22 -14.5 -37.5t-35.5 -15.5t-36 15.5t-15 37.5t15 37.5t36 15.5t35.5 -15.5t14.5 -37.5z" />
    <glyph glyph-name="Wgrave" unicode="&#x1e80;" horiz-adv-x="958" 
d="M1006 663h-69q-10 0 -17 -7t-16 -32l-221 -638h-5l-183 491l-171 -491h-5l-271 677h-91v4h323v-4h-94l197 -497l109 317l-67 180h-78v4h319v-4h-106l182 -499l159 465q12 34 -9 34h-76v4h190v-4zM568 729l-1 -2l-204 107q-21 11 -21 32q0 16 11.5 28t28.5 12q22 0 42 -23
z" />
    <glyph glyph-name="wgrave" unicode="&#x1e81;" horiz-adv-x="667" 
d="M698 422h-37q-14 0 -22 -7t-17 -34l-136 -388h-6l-146 333l-117 -333h-6l-188 429h-55v4h217v-4h-55l130 -296l72 206l-40 90h-48v4h216v-4h-61l129 -296l90 254q15 42 -8 42h-40v4h128v-4zM443 508l-1 -2l-204 107q-21 11 -21 32q0 16 11.5 28t28.5 12q22 0 42 -23z" />
    <glyph glyph-name="Wacute" unicode="&#x1e82;" horiz-adv-x="958" 
d="M1006 663h-69q-10 0 -17 -7t-16 -32l-221 -638h-5l-183 491l-171 -491h-5l-271 677h-91v4h323v-4h-94l197 -497l109 317l-67 180h-78v4h319v-4h-106l182 -499l159 465q12 34 -9 34h-76v4h190v-4zM416 729l144 154q20 23 42 23q17 0 28.5 -12t11.5 -28q0 -21 -21 -32
l-204 -107z" />
    <glyph glyph-name="wacute" unicode="&#x1e83;" horiz-adv-x="667" 
d="M698 422h-37q-14 0 -22 -7t-17 -34l-136 -388h-6l-146 333l-117 -333h-6l-188 429h-55v4h217v-4h-55l130 -296l72 206l-40 90h-48v4h216v-4h-61l129 -296l90 254q15 42 -8 42h-40v4h128v-4zM261 508l144 154q20 23 42 23q17 0 28.5 -12t11.5 -28q0 -21 -21 -32l-204 -107
z" />
    <glyph glyph-name="Wdieresis" unicode="&#x1e84;" horiz-adv-x="958" 
d="M1006 663h-69q-10 0 -17 -7t-16 -32l-221 -638h-5l-183 491l-171 -491h-5l-271 677h-91v4h323v-4h-94l197 -497l109 317l-67 180h-78v4h319v-4h-106l182 -499l159 465q12 34 -9 34h-76v4h190v-4zM458 806q0 -25 -17 -42.5t-42 -17.5q-23 0 -39 17.5t-16 42.5
q0 23 16 39.5t39 16.5q25 0 42 -16.5t17 -39.5zM458 806q0 -25 -17 -42.5t-42 -17.5q-23 0 -39 17.5t-16 42.5q0 23 16 39.5t39 16.5q25 0 42 -16.5t17 -39.5zM651 806q0 -25 -17 -42.5t-42 -17.5q-23 0 -39 17.5t-16 42.5q0 23 16 39.5t39 16.5q25 0 42 -16.5t17 -39.5
q0 -25 -17 -42.5t-42 -17.5q-23 0 -39 17.5t-16 42.5q0 23 16 39.5t39 16.5q25 0 42 -16.5t17 -39.5z" />
    <glyph glyph-name="wdieresis" unicode="&#x1e85;" horiz-adv-x="667" 
d="M698 422h-37q-14 0 -22 -7t-17 -34l-136 -388h-6l-146 333l-117 -333h-6l-188 429h-55v4h217v-4h-55l130 -296l72 206l-40 90h-48v4h216v-4h-61l129 -296l90 254q15 42 -8 42h-40v4h128v-4zM317 594q0 -22 -14.5 -37.5t-35.5 -15.5t-36 15.5t-15 37.5t15 37.5t36 15.5
t35.5 -15.5t14.5 -37.5zM490 594q0 -22 -14.5 -37.5t-35.5 -15.5t-36 15.5t-15 37.5t15 37.5t36 15.5t35.5 -15.5t14.5 -37.5z" />
    <glyph glyph-name="Ygrave" unicode="&#x1ef2;" horiz-adv-x="630" 
d="M654 663h-60q-24 0 -42 -39l-150 -317v-303h91v-4h-310v4h90v287l-195 372h-93v4h342v-4h-108l181 -349l148 310q8 17 9 26t-2.5 11t-10.5 2h-80v4h190v-4zM424 729l-1 -2l-204 107q-21 11 -21 32q0 16 11.5 28t28.5 12q22 0 42 -23z" />
    <glyph glyph-name="ygrave" unicode="&#x1ef3;" horiz-adv-x="415" 
d="M443 422h-41q-13 0 -19.5 -7.5t-16.5 -33.5l-227 -617q-17 -46 -34 -63.5t-47 -17.5q-31 0 -51 16t-20 45q0 25 15 42.5t36 17.5t32.5 -11t11.5 -28q0 -13 -10 -28t-10 -26q0 -15 17 -15q31 0 55 66l84 229l-196 431h-54v4h220v-4h-58l137 -299l94 257q7 18 6.5 28
t-4.5 12t-11 2h-37v4h128v-4zM317 508l-1 -2l-204 107q-21 11 -21 32q0 16 11.5 28t28.5 12q22 0 42 -23z" />
    <glyph glyph-name="endash" unicode="&#x2013;" horiz-adv-x="500" 
d="M488 234h-476v4h476v-4z" />
    <glyph glyph-name="emdash" unicode="&#x2014;" horiz-adv-x="1000" 
d="M976 234h-953v4h953v-4z" />
    <glyph glyph-name="quoteleft" unicode="&#x2018;" horiz-adv-x="181" 
d="M157 679q-29 -11 -50.5 -34.5t-21.5 -51.5q0 -35 37 -62q25 -17 25 -48q0 -24 -16.5 -41.5t-39.5 -17.5q-59 0 -59 74q0 45 39 107.5t85 77.5z" />
    <glyph glyph-name="quoteright" unicode="&#x2019;" horiz-adv-x="181" 
d="M25 428q29 11 50.5 34.5t21.5 51.5q0 35 -37 62q-25 17 -25 48q0 24 16.5 41.5t39.5 17.5q59 0 59 -74q0 -45 -39 -107.5t-85 -77.5z" />
    <glyph glyph-name="quotesinglbase" unicode="&#x201a;" horiz-adv-x="181" 
d="M25 -150q29 11 50.5 34.5t21.5 51.5q0 35 -37 62q-25 17 -25 48q0 24 16.5 41.5t39.5 17.5q59 0 59 -74q0 -45 -39 -107.5t-85 -77.5z" />
    <glyph glyph-name="quotedblleft" unicode="&#x201c;" horiz-adv-x="331" 
d="M157 679q-29 -11 -50.5 -34.5t-21.5 -51.5q0 -35 37 -62q25 -17 25 -48q0 -24 -16.5 -41.5t-39.5 -17.5q-59 0 -59 74q0 45 39 107.5t85 77.5zM307 679q-29 -11 -50.5 -34.5t-21.5 -51.5q0 -35 37 -62q25 -17 25 -48q0 -24 -16.5 -41.5t-39.5 -17.5q-59 0 -59 74
q0 45 39 107.5t85 77.5z" />
    <glyph glyph-name="quotedblright" unicode="&#x201d;" horiz-adv-x="331" 
d="M25 428q29 11 50.5 34.5t21.5 51.5q0 35 -37 62q-25 17 -25 48q0 24 16.5 41.5t39.5 17.5q59 0 59 -74q0 -45 -39 -107.5t-85 -77.5zM175 428q29 11 50.5 34.5t21.5 51.5q0 35 -37 62q-25 17 -25 48q0 24 16.5 41.5t39.5 17.5q59 0 59 -74q0 -45 -39 -107.5t-85 -77.5z
" />
    <glyph glyph-name="quotedblbase" unicode="&#x201e;" horiz-adv-x="331" 
d="M25 -150q29 11 50.5 34.5t21.5 51.5q0 35 -37 62q-25 17 -25 48q0 24 16.5 41.5t39.5 17.5q59 0 59 -74q0 -45 -39 -107.5t-85 -77.5zM175 -150q29 11 50.5 34.5t21.5 51.5q0 35 -37 62q-25 17 -25 48q0 24 16.5 41.5t39.5 17.5q59 0 59 -74q0 -45 -39 -107.5t-85 -77.5z
" />
    <glyph glyph-name="dagger" unicode="&#x2020;" horiz-adv-x="500" 
d="M444 453q0 -18 -10.5 -31t-27.5 -13t-64 22t-71 22q-15 0 -19 -1v-15q0 -115 50 -175q-50 -151 -50 -404h-5q0 253 -50 404q50 60 50 175v15q-4 1 -19 1q-24 0 -71 -22t-64 -22t-27.5 13t-10.5 31q0 19 12 32t31 13q15 0 46 -12q4 -2 18.5 -7.5t22 -8.5t19.5 -7
t22.5 -5.5t20.5 -1.5v22q0 15 -3 30t-7 25t-12 31t-13 34q-9 25 -9 37q0 20 13 34t34 14q20 0 33 -14t13 -34q0 -12 -9 -37q-5 -13 -13 -34t-12 -31t-7 -25t-3 -30v-22q26 0 103 30q31 12 46 12q19 0 31 -13t12 -32z" />
    <glyph glyph-name="daggerdbl" unicode="&#x2021;" horiz-adv-x="500" 
d="M444 83q0 -19 -12 -32t-31 -13q-15 0 -46 12q-5 2 -22.5 9.5t-26 10.5t-22.5 6.5t-26 3.5h-6v-17q0 -9 0.5 -17t2.5 -16.5t3 -14t4.5 -15.5t5.5 -14.5t7.5 -18t7.5 -19.5q13 -32 13 -47q0 -19 -12.5 -33.5t-32.5 -14.5q-22 0 -35 14t-13 34q0 15 13 47q2 6 7.5 19.5
t7.5 18t5.5 14.5t4.5 15.5t3 14t2.5 16.5t0.5 17v17h-6q-12 0 -26 -3.5t-22.5 -6.5t-26 -10.5t-22.5 -9.5q-31 -12 -46 -12q-19 0 -31 13t-12 32q0 18 10.5 31t27.5 13t70 -21q46 -23 71 -23q10 0 13 1v19q0 103 -47 165q47 62 47 165v19q-3 1 -13 1q-25 0 -71 -23
q-53 -21 -70 -21t-27.5 13t-10.5 31q0 19 12 32t31 13q15 0 46 -12q5 -2 22.5 -9.5t26 -10.5t22.5 -6.5t26 -3.5h6v17q0 9 -0.5 17t-2.5 16.5t-3 14t-4.5 15.5t-5.5 14.5t-7.5 18t-7.5 19.5q-13 32 -13 47q0 20 13 34t35 14q20 0 32.5 -14.5t12.5 -33.5q0 -15 -13 -47
q-2 -6 -7.5 -19.5t-7.5 -18t-5.5 -14.5t-4.5 -15.5t-3 -14t-2.5 -16.5t-0.5 -17v-17h6q12 0 26 3.5t22.5 6.5t26 10.5t22.5 9.5q31 12 46 12q19 0 31 -13t12 -32q0 -18 -10.5 -31t-27.5 -13q-18 0 -70 21q-46 23 -71 23q-10 0 -13 -1v-19q0 -103 47 -165q-47 -62 -47 -165
v-19q3 -1 13 -1q25 0 71 23q52 21 70 21q17 0 27.5 -13t10.5 -31z" />
    <glyph glyph-name="bullet" unicode="&#x2022;" horiz-adv-x="345" 
d="M295 354q0 -51 -36 -87t-86 -36q-51 0 -87 36t-36 87t36 87t87 36q50 0 86 -36t36 -87z" />
    <glyph glyph-name="ellipsis" unicode="&#x2026;" horiz-adv-x="633" 
d="M583 46q0 -25 -16 -42t-39 -17t-39.5 17t-16.5 42q0 24 16.5 41.5t39.5 17.5q22 0 38.5 -17.5t16.5 -41.5zM372 46q0 -25 -16 -42t-39 -17t-39.5 17t-16.5 42q0 24 16.5 41.5t39.5 17.5q22 0 38.5 -17.5t16.5 -41.5zM161 46q0 -25 -16 -42t-39 -17t-39.5 17t-16.5 42
q0 24 16.5 41.5t39.5 17.5q22 0 38.5 -17.5t16.5 -41.5z" />
    <glyph glyph-name="perthousand" unicode="&#x2030;" horiz-adv-x="1030" 
d="M343 509q0 -69 -44 -117t-109 -48q-63 0 -106.5 48t-43.5 117t43.5 117.5t106.5 48.5q65 0 109 -48t44 -118zM257 509q0 96 -14 129t-53 33q-36 0 -50.5 -33t-14.5 -129q0 -70 9 -106.5t21 -45.5t35 -9q25 0 38 10t21 45.5t8 105.5zM640 157q0 -69 -44 -117t-109 -48
q-63 0 -106.5 48t-43.5 117t43.5 117.5t106.5 48.5q65 0 109 -48t44 -118zM554 157q0 96 -14 129t-53 33q-36 0 -50.5 -33t-14.5 -129q0 -70 9 -106.5t21 -45.5t35 -9q25 0 38 10t21 45.5t8 105.5zM555 683l-426 -706l-4 3l426 705zM990 157q0 -69 -44 -117t-109 -48
q-63 0 -106.5 48t-43.5 117t43.5 117.5t106.5 48.5q65 0 109 -48t44 -118zM904 157q0 96 -14 129t-53 33q-36 0 -50.5 -33t-14.5 -129q0 -70 9 -106.5t21 -45.5t35 -9q25 0 38 10t21 45.5t8 105.5z" />
    <glyph glyph-name="guilsinglleft" unicode="&#x2039;" horiz-adv-x="227" 
d="M190 59h-7q0 27 -17.5 55.5t-44 50t-46.5 34.5t-35 21v4q23 12 51 30.5t60 56t32 73.5h7q0 -44 -21 -91.5t-46 -70.5q25 -23 46 -71t21 -92z" />
    <glyph glyph-name="guilsinglright" unicode="&#x203a;" horiz-adv-x="227" 
d="M187 220q-15 -8 -35 -21t-46.5 -34.5t-44 -50t-17.5 -55.5h-7q0 44 21 92t46 71q-25 23 -46 70.5t-21 91.5h7q0 -36 32 -73.5t60 -56t51 -30.5v-4z" />
    <glyph glyph-name="fraction" unicode="&#x2044;" horiz-adv-x="500" 
d="M452 677l-401 -693l-3 2l401 693z" />
    <glyph glyph-name="four.superior" unicode="&#x2074;" horiz-adv-x="330" 
d="M292 267h-163v4h44v132h-144v4q39 54 51 79l86 181q22 -8 55 3.5t47 27.5l3 -2l-236 -289h138v61q25 1 45 16t25 40h5v-117h54v-4h-54v-132h44v-4z" />
    <glyph glyph-name="one.inferior" unicode="&#x2081;" horiz-adv-x="330" 
d="M252 0h-163v4h44v392h-44v4h120v-396h43v-4z" />
    <glyph glyph-name="two.inferior" unicode="&#x2082;" horiz-adv-x="330" 
d="M156 406q53 0 92.5 -25.5t39.5 -77.5q0 -22 -13.5 -45t-29.5 -39.5t-48 -46t-51 -50.5l-65 -72v-2h139q29 0 39 9.5t10 34.5h4v-92h-233v8l97 116q48 58 63.5 93t15.5 91q0 49 -14 71.5t-46 22.5q-53 0 -53 -27q0 -8 7 -19t7 -18q0 -11 -8.5 -19t-23.5 -8q-36 0 -36 36
q0 22 29 40.5t78 18.5z" />
    <glyph glyph-name="three.inferior" unicode="&#x2083;" horiz-adv-x="330" 
d="M142 -3q-50 0 -76 17t-26 40q0 16 10 25.5t25 9.5q32 0 32 -26q0 -7 -7 -18t-7 -20q0 -12 9 -18t40 -6q40 0 58.5 22.5t18.5 88.5q0 64 -13.5 88.5t-40.5 24.5q-19 0 -56 -21l-2 4q51 26 69 50.5t18 70.5q0 42 -9 57t-38 15q-13 0 -24 -7.5t-11 -20.5q0 -6 2.5 -13.5
t2.5 -11.5q0 -10 -7.5 -18.5t-21.5 -8.5q-27 0 -27 30q0 19 24.5 36.5t58.5 17.5q121 0 121 -81q0 -52 -118 -98q13 3 23 3q58 0 93 -33.5t35 -78.5q0 -56 -47 -88t-109 -32z" />
    <glyph glyph-name="four.inferior" unicode="&#x2084;" horiz-adv-x="330" 
d="M292 0h-163v4h44v132h-144v4q39 54 51 79l86 181q22 -8 55 3.5t47 27.5l3 -2l-236 -289h138v61q25 1 45 16t25 40h5v-117h54v-4h-54v-132h44v-4z" />
    <glyph glyph-name="Euro" unicode="&#x20ac;" horiz-adv-x="539" 
d="M27 392h51q6 57 25 107.5t51 92.5t81.5 66.5t110.5 24.5q60 0 96 -28t36 -64q0 -21 -16 -37.5t-37 -16.5q-48 0 -48 40q0 12 10.5 29.5t10.5 31.5q0 41 -52 41q-32 0 -56.5 -11t-40.5 -33t-26.5 -47t-15.5 -60.5t-7 -65.5t-3 -70h178v-4h-178v-51v-32h178v-4h-178
q2 -174 31 -239.5t102 -65.5q84 0 142 92l5 -2q-61 -94 -146 -94q-106 0 -176 87.5t-79 221.5h-49v4h49q-1 10 -1 32q0 17 2 51h-50v4z" />
    <glyph glyph-name="afii61289" unicode="&#x2113;" horiz-adv-x="376" 
d="M262 6q40 0 93 45l3 -3q-64 -62 -135 -62q-64 0 -101 36t-37 108v106l-63 -65l-4 4l67 69v243q0 105 49 169.5t110 64.5q97 0 97 -118q0 -72 -36 -140.5t-120 -156.5v-192q0 -108 77 -108zM271 623q0 54 -9.5 72.5t-29.5 18.5q-18 0 -32.5 -21.5t-14.5 -72.5v-306
q46 54 66 140.5t20 168.5z" />
    <glyph glyph-name="afii61352" unicode="&#x2116;" horiz-adv-x="965" 
d="M903 370q0 -63 -42 -108t-103 -45q-60 0 -102 45t-42 108q0 64 42 109.5t102 45.5t102.5 -45.5t42.5 -109.5zM909 157h-288v4h288v-4zM540 205v412q0 46 -16 46h-76v4h187v-4h-77q-14 0 -14 -46v-629h-5l-412 670v-608q0 -46 16 -46h75v-4h-187v4h78q14 0 14 46v613h-91
v4h230zM830 370q0 106 -26 135q-17 16 -46 16q-28 0 -44 -16q-26 -27 -26 -135q0 -105 26 -134q17 -16 44 -16t46 16q26 30 26 134z" />
    <glyph glyph-name="trademark" unicode="&#x2122;" horiz-adv-x="930" 
d="M396 532h-4q0 54 -33.5 93.5t-92.5 39.5h-10v-394h55v-4h-187v4h54v394h-9q-59 0 -91 -39.5t-32 -93.5h-5v135h355v-135zM472 662v-363q0 -28 14 -28h41v-4h-112v4h40q15 0 15 28v364h-55v4h135l108 -288l88 288h134v-4h-55v-392h55v-4h-186v4h54v391l-124 -402h-4z" />
    <glyph glyph-name="Omega" unicode="&#x2126;" horiz-adv-x="718" 
d="M359 676q-89 0 -124 -58t-35 -203q0 -120 25 -171.5t99 -74.5v-169h-252l-11 194h4q5 -59 21.5 -73.5t83.5 -14.5h150v58q-105 14 -182.5 83.5t-77.5 168.5q0 125 86.5 196t212.5 71t212.5 -71t86.5 -196q0 -99 -77.5 -168.5t-182.5 -83.5v-58h150q67 0 83.5 14.5
t21.5 73.5h4l-11 -194h-252v169q74 23 99 74.5t25 171.5q0 145 -35 203t-124 58z" />
    <glyph glyph-name="estimated" unicode="&#x212e;" horiz-adv-x="600" 
d="M561 259h-404v-181q59 -59 145 -59q122 0 193 120l35 -21q-46 -72 -98 -103.5t-130 -31.5q-115 0 -186.5 79t-71.5 197q0 119 71 197.5t187 78.5q115 0 186.5 -77t72.5 -199zM157 295h291v145q-63 60 -147 60t-144 -60v-145z" />
    <glyph glyph-name="partialdiff" unicode="&#x2202;" horiz-adv-x="537" 
d="M471 364q0 -46 -5.5 -93t-21.5 -99.5t-40 -92.5t-65 -66t-93 -26q-88 0 -142 68t-54 159q0 89 52.5 148.5t140.5 59.5q90 0 166 -78v12q0 117 -19 182q-18 60 -57 100.5t-95 40.5q-73 0 -119 -51l-31 40q39 28 69.5 40t71.5 12q67 0 116.5 -33.5t75.5 -88t38 -113
t12 -121.5zM407 304q-74 78 -152 78q-71 0 -109 -52t-38 -126q0 -70 37.5 -124t104.5 -54q135 0 157 278z" />
    <glyph glyph-name="Delta" unicode="&#x2206;" horiz-adv-x="597" 
d="M582 0h-567l292 680h4zM439 4l-188 532l-229 -532h417z" />
    <glyph glyph-name="product" unicode="&#x220f;" horiz-adv-x="778" 
d="M744 -214h-292v4q19 0 27.5 0.5t20 2t16 5.5t9.5 11.5t6.5 18.5t1.5 28v871q0 35 -9.5 45t-45.5 10h-184q-28 0 -39 -7t-11 -34v-885q0 -46 15 -56t66 -10v-4h-291v4q52 0 66 9.5t14 56.5v879q0 16 -6.5 26.5t-20.5 14.5t-24.5 5t-28.5 1v4h710v-4q-50 0 -65.5 -10
t-15.5 -58v-879q0 -13 5.5 -22t12 -13.5t19.5 -6.5t21 -2.5t23 -0.5v-4z" />
    <glyph glyph-name="summation" unicode="&#x2211;" horiz-adv-x="722" 
d="M661 7l-10 -221h-608l324 533l-314 467h579l11 -213h-4q-7 60 -30.5 88.5t-81.5 28.5h-404l248 -371l-260 -431h423q74 0 96 23t27 96h4z" />
    <glyph glyph-name="minus" unicode="&#x2212;" horiz-adv-x="600" 
d="M549 215h-500v54h500v-54z" />
    <glyph glyph-name="uni2215" unicode="&#x2215;" horiz-adv-x="500" 
d="M452 677l-401 -693l-3 2l401 693z" />
    <glyph glyph-name="uni2219" unicode="&#x2219;" horiz-adv-x="200" 
d="M157 357q0 -25 -17 -42.5t-42 -17.5q-23 0 -39 17.5t-16 42.5q0 23 16 39.5t39 16.5q25 0 42 -16.5t17 -39.5z" />
    <glyph glyph-name="radical" unicode="&#x221a;" horiz-adv-x="481" 
d="M442 786l-180 -1000h-51l-159 354l-46 -21l-19 36l93 42l154 -345l165 934h43z" />
    <glyph glyph-name="infinity" unicode="&#x221e;" horiz-adv-x="741" 
d="M690 246q0 -65 -43 -110t-107 -45q-56 0 -91.5 28.5t-73.5 84.5q-38 -52 -77.5 -80.5t-92.5 -28.5q-64 0 -109 43t-45 107q0 66 43 110.5t108 44.5q88 0 165 -114q25 31 35.5 43t33.5 32.5t46 28t52 7.5q67 0 111.5 -42.5t44.5 -108.5zM643 245q0 42 -29 72.5t-71 30.5
q-10 0 -20.5 -3.5t-19 -7.5t-20 -13.5t-18 -15t-18 -18t-16 -17.5t-16 -18.5t-12.5 -15.5q66 -101 136 -101q42 0 73 32.5t31 74.5zM339 253q-47 59 -69 76q-33 25 -68 25q-43 0 -73.5 -32t-30.5 -75q0 -42 29.5 -72.5t71.5 -30.5q60 0 140 109z" />
    </font>
</defs>
</svg>
